<?xml version="1.0" encoding="iso-8859-1"?>
<!-- Generator: Adobe Illustrator 19.0.0, SVG Export Plug-In . SVG Version: 6.00 Build 0)  -->
<svg version="1.1" id="Layer_1" xmlns="http://www.w3.org/2000/svg" xmlns:xlink="http://www.w3.org/1999/xlink" x="0px" y="0px"
	 viewBox="0 0 496.4 496.4" style="enable-background:new 0 0 496.4 496.4;" xml:space="preserve">
<polygon style="fill:#5C777A;" points="283.2,409 212.8,409 221.6,345 274.4,345 "/>
<path style="fill:#B5C6C6;" d="M496,341.8c0,10.4-8.8,19.2-19.2,19.2H19.2C8.8,361,0,352.2,0,341.8V52.2C0,41.8,8.8,33,19.2,33
	h457.6c10.4,0,19.2,8.8,19.2,19.2V341.8z"/>
<path style="fill:#244B54;" d="M476.8,33H19.2C8.8,33,0,42.6,0,53v260h496V53C496,42.6,487.2,33,476.8,33z"/>
<path style="fill:#FDFFFF;" d="M466.4,85c0,11.2-8.8,20-20,20H39.2c-11.2,0-8.8-8.8-8.8-20l0,0c0-11.2-2.4-20,8.8-20h406.4
	C456.8,65,466.4,73.8,466.4,85L466.4,85z"/>
<path style="fill:#E6EFEF;" d="M30.4,85L30.4,85c0-11.2-2.4-20,8.8-20h406.4c11.2,0,20,8.8,20,20l0,0"/>
<path style="fill:#5C777A;" d="M120,75.4l-0.8-0.8H116c-0.8,0-0.8,0.8-1.6,0.8l-2.4,8l0,0l0,0l-2.4-8c0-0.8-0.8-0.8-1.6-0.8h-2.4
	c-0.8,0-0.8,0-1.6,0.8l-2.4,8l0,0l0,0l-2.4-8c0-0.8-0.8-0.8-1.6-0.8H96h-0.8h-0.8h-3.2c-0.8,0-0.8,0.8-1.6,0.8l-2.4,8l0,0l0,0
	l-2.4-8c0-0.8-0.8-0.8-1.6-0.8h-2.4c-0.8,0-0.8,0-1.6,0.8l-2.4,8l0,0l0,0l-2.4-8c0-0.8-0.8-0.8-1.6-0.8H72h-0.8h-0.8h-3.2
	c-0.8,0-0.8,0.8-1.6,0.8l-2.4,8l0,0l0,0l-2.4-8c0-0.8-0.8-0.8-1.6-0.8h-1.6c-0.8,0-0.8,0-1.6,0.8l-2.4,8l0,0l0,0l-2.4-8
	c0-0.8-0.8-0.8-1.6-0.8h-2.4c-0.8,0-0.8,0-0.8,0.8c0,0,0,0.8,0,1.6l4.8,16c0,0.8,0.8,0.8,1.6,0.8h2.4c0.8,0,0.8,0,1.6-0.8l2.4-7.2
	c0,0,0,0,0-0.8c0,0,0,0,0,0.8l2.4,7.2c0,0.8,0.8,0.8,1.6,0.8h2.4c0.8,0,0.8,0,1.6-0.8L72,79.4L76,93c0,0.8,0.8,0.8,1.6,0.8H80
	c0.8,0,0.8,0,1.6-0.8l2.4-7.2c0,0,0,0,0-0.8c0,0,0,0,0,0.8l2.4,7.2c0,0.8,0.8,0.8,1.6,0.8h2.4c0.8,0,0.8,0,1.6-0.8l4.8-13.6l4,13.6
	c0,0.8,0.8,0.8,1.6,0.8h2.4c0.8,0,0.8,0,1.6-0.8l2.4-7.2c0,0,0,0,0-0.8c0,0,0,0,0,0.8l2.4,7.2c0,0.8,0.8,0.8,1.6,0.8h2.4
	c0.8,0,0.8,0,1.6-0.8l4.8-16C120,76.2,120,75.4,120,75.4z"/>
<path style="fill:#B5C6C6;" d="M336,410.6c0,8-6.4,14.4-14.4,14.4H174.4c-8,0-14.4-6.4-14.4-14.4v-4c0-8,6.4-14.4,14.4-14.4h148
	c8,0,14.4,6.4,14.4,14.4v4H336z"/>
<circle style="fill:#5C777A;" cx="248" cy="332.2" r="10.4"/>
<circle style="fill:#1BCEB8;" cx="385.6" cy="353" r="110.4"/>
<path style="fill:#09ADB5;" d="M385.6,242.6c60.8,0,110.4,49.6,110.4,110.4s-49.6,110.4-110.4,110.4"/>
<path style="fill:#0DBFBA;" d="M307.2,274.6c43.2-43.2,113.6-43.2,156.8,0s43.2,113.6,0,156.8"/>
<g>
	<path style="fill:#EEFFFF;" d="M384.8,406.6c-8.8,0-16-7.2-16-16v-74.4c0-8.8,7.2-16,16-16s16,7.2,16,16v74.4
		C400.8,399.4,393.6,406.6,384.8,406.6z"/>
	<path style="fill:#EEFFFF;" d="M422.4,369H348c-8.8,0-16-7.2-16-16s7.2-16,16-16h74.4c8.8,0,16,7.2,16,16S431.2,369,422.4,369z"/>
</g>
<g>
</g>
<g>
</g>
<g>
</g>
<g>
</g>
<g>
</g>
<g>
</g>
<g>
</g>
<g>
</g>
<g>
</g>
<g>
</g>
<g>
</g>
<g>
</g>
<g>
</g>
<g>
</g>
<g>
</g>
</svg>
