<?xml version="1.0" encoding="utf-8"?>
<!-- Generator: Adobe Illustrator 22.0.1, SVG Export Plug-In . SVG Version: 6.00 Build 0)  -->
<svg version="1.1" id="Capa_1" xmlns="http://www.w3.org/2000/svg" xmlns:xlink="http://www.w3.org/1999/xlink" x="0px" y="0px"
	 viewBox="0 0 500 500" style="enable-background:new 0 0 500 500;" xml:space="preserve">
<style type="text/css">
	.st0{fill:#C6C6C6;}
	.st1{fill:#FFFFFF;}
	.st2{fill:#FFFFFF;stroke:#FFFFFF;stroke-width:5.5495;stroke-miterlimit:10;}
	.st3{fill:#DC3336;}
	.st4{fill:#F4C312;}
	.st5{fill:#4EB056;}
	.st6{fill:#547DBE;}
	.st7{fill:#EDEDED;}
	.st8{fill:#DADADA;}
	.st9{clip-path:url(#SVGID_2_);fill:#DADADA;}
</style>
<circle class="st0" cx="250.1" cy="250.2" r="186.3"/>
<g>
	<g>
		<circle class="st1" cx="250.2" cy="220.5" r="23.4"/>
		<path class="st1" d="M316.3,163.1H184.1c-10.6,0-19.1,8.6-19.1,19.1v76.5c0,10.5,8.6,19.1,19.1,19.1h132.2
			c10.5,0,19.1-8.6,19.1-19.1v-76.5C335.4,171.7,326.8,163.1,316.3,163.1z M250.2,256.6c-19.9,0-36.1-16.2-36.1-36.1
			s16.2-36.1,36.1-36.1s36.1,16.2,36.1,36.1S270.1,256.6,250.2,256.6z"/>
	</g>
	<path class="st1" d="M372,265.1c-5.8-4.5-11.3-6.6-15-8.1c-3.7-1.6-5.8-2.1-5.8-2.1s1.8,1.1,5.3,3.2c3.2,2.1,7.9,5.5,12.3,10.5
		c2.1,2.4,3.9,5.5,5,8.7c0.8,3.2,0.5,6.6-1.3,9.5c-3.4,6-11.6,10.5-20.2,13.9c-17.6,6.6-38.6,9.2-56.7,10.2
		c-7.1,0.5-13.9,0.5-20,0.5v28.1c7.1-0.8,15-2.1,23.4-3.7c19.4-4.2,41.2-10.5,60.2-21.8c4.7-2.9,9.2-6,13.1-9.7
		c3.9-3.7,7.4-8.1,9.2-13.7c1.8-5.3,1.3-11.3-1.1-15.5C378,270.1,374.9,267.2,372,265.1z"/>
	<path class="st1" d="M143.2,313.7c18.9,11.3,40.7,17.6,60.2,21.8c6.3,1.3,12.6,2.4,18.4,3.2v16.8l34.2-29.4l-34.2-29.4v14.4
		c-4.7,0-9.7-0.3-15-0.5c-18.1-1.1-39.1-3.4-56.7-10c-8.7-3.2-16.8-7.9-20.5-13.7c-1.8-2.9-2.4-6-1.3-9.5c0.8-3.2,2.6-6.3,4.7-8.7
		c4.2-5,8.9-8.1,12.3-10.5c3.2-2.1,5.3-3.2,5.3-3.2s-2.1,0.5-5.8,2.1c-3.7,1.6-8.9,3.7-15,8.1c-2.9,2.4-6,5.3-8.1,9.5
		c-2.1,4.2-2.6,10.2-0.8,15.5s5.5,9.7,9.5,13.7C134,307.7,138.4,310.9,143.2,313.7z"/>
</g>
</svg>
