<?xml version="1.0" encoding="utf-8"?>
<!-- Generator: Adobe Illustrator 22.0.1, SVG Export Plug-In . SVG Version: 6.00 Build 0)  -->
<svg version="1.1" id="Capa_1" xmlns="http://www.w3.org/2000/svg" xmlns:xlink="http://www.w3.org/1999/xlink" x="0px" y="0px"
	 viewBox="0 0 500 500" style="enable-background:new 0 0 500 500;" xml:space="preserve">
<style type="text/css">
	.st0{fill:#C6C6C6;}
	.st1{fill:#FFFFFF;}
	.st2{fill:#FFFFFF;stroke:#FFFFFF;stroke-width:5.5495;stroke-miterlimit:10;}
	.st3{fill:#DC3336;}
	.st4{fill:#F4C312;}
	.st5{fill:#4EB056;}
	.st6{fill:#547DBE;}
	.st7{fill:#EDEDED;}
	.st8{fill:#DADADA;}
	.st9{clip-path:url(#SVGID_2_);fill:#DADADA;}
</style>
<circle class="st1" cx="250" cy="250" r="186.3"/>
<g>
	<path class="st0" d="M151.8,245.4l72.9,42.1c0.8,0.5,1.7,0.5,2.5,0l72.9-42.1c0.8-0.5,0.8-1.7,0-2.2l-72.9-42.1
		c-0.8-0.5-1.7-0.5-2.5,0l-72.9,42.1C151,243.7,151,244.9,151.8,245.4z"/>
	<path class="st7" d="M234.9,196.6l72.9,42.1c0.8,0.5,1.7,0.5,2.5,0l43.1-75.8c0.8-0.5,0.8-1.7,0-2.2l-72.9-42.1
		c-0.8-0.5-1.7-0.5-2.5,0l-43.1,75.8C234.1,194.9,234.1,196.1,234.9,196.6z"/>
	<path class="st8" d="M146.8,340.2l73,42.2c0.8,0.5,1.9-0.1,1.9-1.1v-83.9c0-0.9-0.5-1.7-1.3-2.2l-73-42.1c-0.8-0.5-1.9,0.1-1.9,1.1
		V338C145.5,338.9,146,339.8,146.8,340.2z"/>
	<path class="st7" d="M305.3,340l-73,42.2c-0.8,0.5-1.9-0.1-1.9-1.1v-83.9c0-0.9,0.5-1.7,1.3-2.2l73-42.1c0.8-0.5,1.9,0.1,1.9,1.1
		v83.7C306.5,338.8,306.1,339.6,305.3,340z"/>
	<g>
		<defs>
			<path id="SVGID_1_" d="M151.8,245.4l72.9,42.1c0.8,0.5,1.7,0.5,2.5,0l72.9-42.1c0.8-0.5,0.8-1.7,0-2.2l-72.9-42.1
				c-0.8-0.5-1.7-0.5-2.5,0l-72.9,42.1C151,243.7,151,244.9,151.8,245.4z"/>
		</defs>
		<clipPath id="SVGID_2_">
			<use xlink:href="#SVGID_1_"  style="overflow:visible;"/>
		</clipPath>
		<rect x="133.3" y="197.4" class="st9" width="92.7" height="94.8"/>
	</g>
	<path class="st3" d="M263,325v9.5c0,1.8-1.4,4-3.2,5l-1.6,0.9c0-5.3,0-10.6,0-15.9l1.6-0.9C261.6,322.6,263,323.2,263,325z
		 M293.3,312.6c0-3.8-2.7-5.5-6.4-4.1v-5.1c0-9.7-7.9-13-17.5-7.5c-9.7,5.5-17.5,17.9-17.5,27.5v5.1c-3.6,2.8-6.4,7.6-6.4,11.4
		c0,4.9,4.8,5.1,9.5,2.3c0-7.4,0-13.3,0-20.7c0-7.9,6.4-18,14.3-22.5s14.3-1.8,14.3,6.1c0,2.9,0,17.2,0,19.1c0,2.6-2.1,6-4.8,7.5
		l-5.1,2.9c-0.7-1.5-2.4-1.8-4.5-0.6c-2.6,1.5-4.8,4.9-4.8,7.5c0,2.6,2.1,3.5,4.8,2c2.1-1.2,3.8-3.5,4.5-5.8l5.1-2.9
		c4-2.3,7.3-7.1,7.8-11.3C290.3,320.7,293.3,316.4,293.3,312.6z M280.5,327.7c0-3.2,0-12.7,0-15.9l-1.6,0.9c-1.8,1-3.2,3.2-3.2,5
		v9.5c0,1.8,1.4,2.4,3.2,1.4L280.5,327.7z"/>
	<path class="st6" d="M183.6,295.9c-10-5.8-18.1-2.4-18.1,7.6c0,10,8.1,22.9,18.1,28.7s18.1,2.4,18.1-7.6S193.6,301.8,183.6,295.9z
		 M183.6,325.2c-5.4-3.1-9.8-10.1-9.8-15.4c0-5.4,4.4-7.2,9.8-4.1s9.8,10.1,9.8,15.4S189,328.4,183.6,325.2z M186.4,317.1
		c0,1.5-1.2,2.1-2.8,1.2s-2.8-2.9-2.8-4.4s1.2-2.1,2.8-1.2S186.4,315.5,186.4,317.1z M204.1,347.3c0.9,1.4,0.3,2.5-1,1.8l-39-22.7
		c-1.2-0.7-1.9-2.6-1-3l5.6-2.3c0.2-0.1,0.5,0,0.8,0.1c3.7,5.6,8.7,10.6,14.1,13.8c5.4,3.2,10.4,3.9,14.1,2.7
		c0.3,0.2,0.6,0.5,0.8,0.8L204.1,347.3z"/>
	<path class="st4" d="M316.3,174.3l-7.9-4.6c-1.1-0.6-2.5-0.3-3.1,0.8l-4.6,7.9c-0.6,1.1-0.3,2.5,0.8,3.1l2,1.1l-2.8,4.9l-10.9,0.7
		l17.3-29.8l0.5,4.5c0.1,1.2,1.3,2.1,2.5,2c1.2-0.1,2.1-1.3,2-2.5l-1.3-11.3c0,0,0-0.1,0-0.1c-0.2-1.4-1.6-2.2-3-1.7
		c0,0-0.1,0-0.1,0l-10.5,4.5c-1.2,0.5-1.7,1.8-1.2,3c0.5,1.2,1.8,1.7,3,1.2l4.2-1.8l-21.9,37.7l-4.8-9.8l3-5.2
		c2.8,0.5,5.7-0.7,7.2-3.3c1.9-3.3,0.8-7.5-2.5-9.3c-3.3-1.9-7.5-0.8-9.3,2.5c-1.5,2.6-1.1,5.7,0.7,7.8l-3.6,6.3
		c-0.4,0.7-0.4,1.5-0.1,2.1l6.7,13.7l-4,6.8c-0.6,1.1-0.3,2.5,0.8,3.1c1.1,0.6,2.5,0.3,3.1-0.8L287,193l15.2-0.9
		c0.8,0,1.4-0.5,1.8-1.1l3.4-5.9l2,1.1c1.1,0.6,2.5,0.3,3.1-0.8l4.6-7.9C317.8,176.4,317.4,175,316.3,174.3z M281.8,170.1
		c1.1,0.6,1.5,2,0.8,3.1c-0.6,1.1-2,1.5-3.1,0.8c-1.1-0.6-1.5-2-0.8-3.1C279.4,169.9,280.7,169.5,281.8,170.1z M309.7,181.1
		l-3.9-2.3l2.3-3.9l3.9,2.3L309.7,181.1z"/>
</g>
</svg>
