<?xml version="1.0" encoding="utf-8"?>
<!-- Generator: Adobe Illustrator 22.0.1, SVG Export Plug-In . SVG Version: 6.00 Build 0)  -->
<svg version="1.1" id="Capa_1" xmlns="http://www.w3.org/2000/svg" xmlns:xlink="http://www.w3.org/1999/xlink" x="0px" y="0px"
	 viewBox="0 0 500 500" style="enable-background:new 0 0 500 500;" xml:space="preserve">
<style type="text/css">
	.st0{fill:#C6C6C6;}
	.st1{fill:#FFFFFF;}
	.st2{fill:#FFFFFF;stroke:#FFFFFF;stroke-width:5.5495;stroke-miterlimit:10;}
	.st3{fill:#DC3336;}
	.st4{fill:#F4C312;}
	.st5{fill:#4EB056;}
	.st6{fill:#547DBE;}
	.st7{fill:#EDEDED;}
	.st8{fill:#DADADA;}
	.st9{clip-path:url(#SVGID_2_);fill:#DADADA;}
</style>
<circle class="st0" cx="250.2" cy="250.2" r="186.3"/>
<g>
	<path class="st1" d="M151.9,239.2l73.4,42.4c0.8,0.5,1.8,0.5,2.5,0l73.4-42.4c0.8-0.5,0.8-1.7,0-2.2l-73.4-42.4
		c-0.8-0.5-1.8-0.5-2.5,0L151.9,237C151.1,237.5,151.1,238.8,151.9,239.2z"/>
	<g>
		<path class="st1" d="M355,154l-73.4-42.4c-0.8-0.5-1.8-0.5-2.5,0l-43.4,76.3c-0.8,0.5-0.8,1.7,0,2.2l73.4,42.4
			c0.8,0.5,1.8,0.5,2.5,0l43.4-76.3C355.8,155.7,355.8,154.5,355,154z M318.8,171.2c-1.4,2.5-2.9,5-4.3,7.4c-1.2,2-2.5,2.3-4.5,1.2
			c-1.1-0.6-1.1-0.6-1.8,0.5c-0.8,1.3-1.6,2.6-2.3,3.9c-0.6,1.1-1.5,1.7-2.8,1.8c-2.7,0.2-5.4,0.3-8.1,0.5c-1.9,0.2-3.9,0.1-5.8,0.4
			c-0.6,0.1-0.9,0.3-1.2,0.8c-2.5,4.4-5.1,8.7-7.6,13.1c-0.2,0.3-0.3,0.6-0.5,0.9c-0.9,1.2-2.4,1.6-3.7,0.9
			c-1.3-0.7-1.9-2.4-1.2-3.7c0.9-1.7,1.9-3.4,2.9-5.1c0.1-0.2,0.2-0.4,0.3-0.6c0.5-0.7,0.5-1.4,0.1-2.3c-1.9-3.8-3.7-7.6-5.6-11.3
			c-0.9-1.7-0.9-3.1,0.2-4.6c0.8-1.2,1.4-2.5,2.2-3.7c0.5-0.9,0.6-1.6,0.1-2.5c-2.1-3.9-0.1-8.1,2.7-9.7c2.5-1.4,5.1-1.5,7.6-0.1
			c2.3,1.4,3.6,3.4,3.7,6.2c0.2,3.5-2.4,7.5-7.3,7.7c-0.9,0-1.3,0.3-1.7,1.1c-0.5,1-1.1,1.9-1.6,2.8c-0.2,0.4-0.4,0.7-0.2,1.2
			c1.3,2.5,2.5,5.1,3.8,7.6c0,0.1,0.1,0.1,0.2,0.1c0.7-0.7,20-33.7,20.3-34.9c-0.5,0-0.9,0.3-1.3,0.5c-0.7,0.3-1.4,0.6-2.1,0.5
			c-1.3,0-2.3-0.7-2.6-1.8c-0.4-1.5-0.1-2.5,1.1-3.4c0.2-0.2,0.5-0.3,0.8-0.4c3.3-1.4,6.6-2.8,9.9-4.2c0.6-0.3,1.3-0.5,2-0.4
			c1.4,0.3,2.1,1.1,2.3,2.6c0.3,2.3,0.5,4.6,0.8,6.9c0.1,1.1,0.3,2.2,0.4,3.4c0.1,0.5,0.1,1,0.1,1.4c0,1.4-1,2.6-2.4,2.8
			c-1.4,0.2-2.6-0.6-3.1-2c-0.2-0.5-0.2-1-0.2-1.5c-0.1-0.5-0.2-0.9-0.3-1.7c-5.4,9.2-10.6,18.2-16,27.5c2.2-0.3,4.1-0.2,5.9-0.4
			c0.9-0.1,1.8-0.2,2.7-0.2c0.7,0,1.1-0.2,1.5-0.8c0.5-0.9,1-1.7,1.5-2.6c0.4-0.6,0.3-1-0.3-1.2c-0.2-0.1-0.4-0.3-0.7-0.4
			c-1.4-0.9-1.9-2.5-1.1-3.9c1.2-2.1,2.4-4.2,3.7-6.3c0.3-0.5,0.5-1,0.8-1.5c1-1.5,2.5-2,4.1-1.1c2.7,1.5,5.3,3,7.9,4.6
			C319.2,168.1,319.6,169.7,318.8,171.2z"/>
		<path class="st1" d="M312,170.5c-0.7-0.4-1.4-0.8-2.1-1.3c-0.4-0.2-0.6,0-0.7,0.2c-0.4,0.7-0.8,1.3-1.2,2
			c-0.2,0.3-0.1,0.6,0.2,0.7c0.7,0.4,1.3,0.8,2,1.2c0.2,0.1,0.5,0.2,0.6,0c0.5-0.8,1-1.6,1.4-2.4C312.3,170.7,312.2,170.6,312,170.5
			z"/>
		<path class="st1" d="M281.7,167.2c1,0,1.7-0.8,1.7-1.8c0-0.9-0.9-1.8-1.7-1.8c-0.9,0-1.7,0.9-1.7,1.8
			C279.9,166.3,280.8,167.2,281.7,167.2z"/>
	</g>
	<path class="st1" d="M305.8,246.9l-73.6,42.4c-0.8,0.5-1.3,1.3-1.3,2.2v84.4c0,1,1.1,1.6,1.9,1.1l73.6-42.5
		c0.8-0.5,1.3-1.3,1.3-2.2V248C307.7,247,306.7,246.4,305.8,246.9z M261.3,334.3c-0.8,0.6-1.6,0.9-2.7,1.5c0-0.5-0.1-0.8-0.1-1.1
		c0-5,0-10,0-15c0-0.9,0.2-1.4,1-1.7c0.5-0.2,1-0.6,1.5-0.8c1.9-0.7,3.4,0.1,3.5,2.3c0,0.8,0,1.6,0,2.3c0,2.2,0,4.3,0,6.5
		C264.6,330.9,263.3,332.9,261.3,334.3z M292.2,314.3c-0.9,1.3-2,2.4-3.2,3.5c-0.3,0.3-0.6,0.7-0.7,1.2c-1.4,5.3-4.6,9.2-9.4,11.8
		c-0.2,0.1-0.4,0.2-0.6,0.3c-1.7,0.9-3.2,1.8-4,3.7c-0.7,1.7-2.1,2.9-3.6,3.8c-0.9,0.6-1.9,1-3,0.9c-1.5-0.1-2.6-1.2-2.7-2.7
		c-0.5-4.2,3.5-8.6,6.5-9.4c1.1-0.3,2.1-0.2,2.9,0.5c0.5,0.4,0.8,0.3,1.3,0.1c1.3-0.7,2.6-1.4,3.8-2.2c2-1.3,3.5-3,4.2-5.3
		c0.2-0.6,0.3-1.3,0.3-1.9c0-6.4,0-12.9,0-19.3c0-0.8-0.1-1.6-0.3-2.5c-1-4.2-4.4-5.5-7.8-5c-3.2,0.5-6,2.1-8.5,4.1
		c-4.9,3.9-8.3,8.9-10.2,14.8c-0.6,1.9-0.9,3.8-0.9,5.8c0,3.1,0,6.2,0,9.3c0,3.4,0,6.8,0,10.2c0,1-0.4,1.6-1.3,2
		c-1.3,0.6-2.7,1.1-4.1,1.3c-2.7,0.3-5.3-0.9-5.4-4.5c0-1.8,0.4-3.4,1.1-5c1-2.4,2.5-4.5,4.4-6.2c0.6-0.5,0.8-1.1,0.7-1.8
		c-0.1-2.4,0-4.9,0.4-7.3c0.5-3.4,1.8-6.5,3.3-9.4c2.3-4.3,5.3-8.1,8.9-11.3c3.4-3,7.2-5.4,11.7-6.4c2.2-0.5,4.4-0.5,6.5,0.4
		c3.3,1.4,4.9,4,5.5,7.4c0.4,1.9,0.2,3.9,0.2,5.9c0,1.1,0,1.1,1.1,0.9c2.7-0.4,5,1.6,5.2,4.2C295.1,309.1,293.9,311.8,292.2,314.3z
		 M276.1,313.2c0-3.3,1.4-5.7,4.3-7.2c0.5-0.2,0.9-0.5,1.4-0.7c0,0,0.1,0,0.3,0c0,0.3,0,0.6,0,0.9c0,5,0,10,0,15
		c0,0.8-0.2,1.3-0.9,1.7c-0.9,0.4-1.6,1-2.6,1.1c-1.2,0-2-0.5-2.3-1.7c-0.1-0.6-0.2-1.1-0.2-1.7
		C276.1,318.2,276.1,315.7,276.1,313.2z"/>
	<g>
		<path class="st1" d="M181.5,316.9c1.9,1.7,4,3,6.6,3.5c2.1,0.4,4-0.7,4.8-2.7c0.3-0.8,0.4-1.6,0.3-2.4c0.1-1.2-0.2-2.4-0.5-3.5
			c-1.3-4.1-3.7-7.4-7-10.1c-1.7-1.4-3.5-2.4-5.7-2.8c-1.6-0.3-4,0.1-4.8,2.6c-0.4,1.2-0.6,2.3-0.4,3.6
			C175.6,309.8,178,313.7,181.5,316.9z M180.7,307.7c0.1-1.2,0.9-1.9,2.4-1.8c0.8,0.1,1.7,0.7,2.4,1.4c0.9,0.9,1.6,2.1,1.8,3.4
			c0.3,1.7-0.9,3.2-2.9,2.6C182.4,312.5,180.5,309.9,180.7,307.7z"/>
		<path class="st1" d="M221.1,289.5l-73.6-42.4c-0.8-0.5-1.9,0.1-1.9,1.1v84.3c0,0.9,0.5,1.7,1.3,2.2l73.6,42.5
			c0.8,0.5,1.9-0.1,1.9-1.1v-84.4C222.4,290.7,221.9,289.9,221.1,289.5z M166.2,292.1c1.4-3.3,4.5-5.4,8.1-5.5
			c3.4-0.1,6.4,1,9.3,2.6c6.5,3.7,11.3,9,15,15.5c1.9,3.3,3.2,6.7,3.9,10.5c0.2,1.2,0.4,2.5,0.4,3.8c-0.1,2.1-0.3,4.2-1.3,6.2
			c-1.6,3.1-4.3,4.7-7.8,4.9c-2.6,0.1-5-0.5-7.3-1.6c-3.3-1.5-6.2-3.5-8.8-6c-3.7-3.5-6.7-7.5-9-12c-1.7-3.3-2.9-6.7-3.2-10.4
			C165,297.3,165.1,294.6,166.2,292.1z M205.2,343.9c-0.5,0.5-1,0.4-1.6,0.2c-0.9-0.5-1.8-1-2.6-1.5c-5.7-3.3-11.3-6.6-17-9.9
			c-6.5-3.8-13.1-7.6-19.6-11.4c-0.9-0.5-1.5-1.3-1.9-2.3c-0.3-0.8,0-1.6,0.7-1.9c1.8-0.8,3.7-1.5,5.5-2.3c0.2-0.1,0.4-0.1,0.5-0.1
			c0.8,0,1.1,0.4,1.4,0.8c1.1,1.8,2.4,3.4,3.8,4.9c4.2,4.7,9,8.6,15.1,10.6c2.7,0.9,5.4,1.2,8.2,0.4c0.6-0.2,1,0,1.4,0.4
			c0.3,0.3,0.5,0.7,0.8,1.1c1.7,2.6,3.4,5.3,5,7.9c0.3,0.4,0.5,0.9,0.7,1.4C205.7,343,205.6,343.5,205.2,343.9z"/>
	</g>
</g>
</svg>
