<?xml version="1.0" encoding="utf-8"?>
<!-- Generator: Adobe Illustrator 22.0.1, SVG Export Plug-In . SVG Version: 6.00 Build 0)  -->
<svg version="1.1" id="Capa_1" xmlns="http://www.w3.org/2000/svg" xmlns:xlink="http://www.w3.org/1999/xlink" x="0px" y="0px"
	 viewBox="0 0 32 32" style="enable-background:new 0 0 32 32;" xml:space="preserve">
<style type="text/css">
	.st0{fill:#EDEDED;}
	.st1{fill:none;}
	.st2{fill:#DC3336;}
	.st3{fill:#547DBE;}
	.st4{fill:#F4C312;}
</style>
<path class="st0" d="M26.8,8.9L16.2,2.8c-0.1-0.1-0.3-0.1-0.4,0L5.2,8.9C5.1,9,5.1,9.2,5.2,9.3l10.6,6.1c0.1,0.1,0.3,0.1,0.4,0
	l10.6-6.1C26.9,9.2,26.9,9,26.8,8.9z"/>
<path class="st0" d="M15.2,16.5L4.6,10.4c-0.1-0.1-0.3,0-0.3,0.2v12.2c0,0.1,0.1,0.3,0.2,0.3l10.6,6.2c0.1,0.1,0.3,0,0.3-0.2V16.8
	C15.4,16.7,15.3,16.6,15.2,16.5z"/>
<path class="st1" d="M5.2,9.3l10.6,6.1c0.1,0.1,0.3,0.1,0.4,0l10.6-6.1c0.1-0.1,0.1-0.2,0-0.3L16.2,2.8c-0.1-0.1-0.3-0.1-0.4,0
	L5.2,8.9C5.1,9,5.1,9.2,5.2,9.3z"/>
<path class="st0" d="M27.4,10.4l-10.6,6.1c-0.1,0.1-0.2,0.2-0.2,0.3V29c0,0.1,0.2,0.2,0.3,0.2L27.5,23c0.1-0.1,0.2-0.2,0.2-0.3V10.5
	C27.7,10.4,27.6,10.3,27.4,10.4z"/>
<path class="st2" d="M21.4,22.2c0,0.3-0.2,0.6-0.5,0.7l-0.2,0.1c0-0.8,0-1.5,0-2.3l0.2-0.1c0.3-0.1,0.5-0.1,0.5,0.2V22.2z"/>
<path class="st2" d="M24.8,20.7c-0.1,0.6-0.6,1.3-1.1,1.6L23,22.7c-0.1,0.3-0.4,0.7-0.7,0.8c-0.4,0.2-0.7,0.1-0.7-0.3
	c0-0.4,0.3-0.9,0.7-1.1c0.3-0.2,0.6-0.1,0.7,0.1l0.7-0.4c0.4-0.2,0.7-0.7,0.7-1.1c0-0.3,0-2.4,0-2.8c0-1.2-0.9-1.5-2.1-0.9
	c-1.2,0.7-2.1,2.1-2.1,3.3c0,1.1,0,1.9,0,3c-0.7,0.4-1.4,0.4-1.4-0.3c0-0.6,0.4-1.3,0.9-1.7v-0.7c0-1.4,1.1-3.2,2.5-4
	c1.4-0.8,2.5-0.3,2.5,1.1v0.7c0.5-0.2,0.9,0,0.9,0.6C25.8,19.6,25.4,20.2,24.8,20.7z"/>
<path class="st2" d="M23.2,21.2v-1.4c0-0.3,0.2-0.6,0.5-0.7l0.2-0.1c0,0.5,0,1.9,0,2.3l-0.2,0.1C23.4,21.5,23.2,21.4,23.2,21.2z"/>
<g>
	<g>
		<g>
			<path class="st3" d="M9.8,19.1c-0.2-0.1-0.4-0.1-0.4,0.2c0,0.2,0.2,0.5,0.4,0.6c0.2,0.1,0.4,0.1,0.4-0.2S10,19.2,9.8,19.1z"/>
		</g>
		<g>
			<g>
				<path class="st3" d="M9.8,16.6c-1.5-0.8-2.6-0.4-2.6,1.1c0,1.5,1.2,3.3,2.6,4.2c1.5,0.8,2.6,0.4,2.6-1.1S11.3,17.5,9.8,16.6z
					 M9.8,20.9c-0.8-0.5-1.4-1.5-1.4-2.2c0-0.8,0.6-1,1.4-0.6s1.4,1.5,1.4,2.2C11.2,21.1,10.6,21.3,9.8,20.9z"/>
			</g>
		</g>
	</g>
</g>
<path class="st3" d="M12.7,24.4L7,21.1c-0.2-0.1-0.3-0.4-0.1-0.4l0.8-0.3c0,0,0.1,0,0.1,0c0.5,0.8,1.3,1.5,2.1,2
	c0.8,0.5,1.5,0.6,2.1,0.4c0,0,0.1,0.1,0.1,0.1l0.8,1.3C12.9,24.3,12.8,24.5,12.7,24.4z"/>
<path class="st4" d="M20.4,9.7l-1.3-0.9c-0.2-0.1-0.4-0.1-0.6-0.1l-1.1,0.6c-0.2,0.1-0.1,0.3,0,0.4l0.3,0.2l-0.7,0.4l-2-0.4l4.1-2.4
	l-0.1,0.5c0,0.1,0.2,0.3,0.4,0.3c0.2,0,0.4,0,0.4-0.2l0.1-1.3c0,0,0,0,0,0c0-0.2-0.2-0.3-0.5-0.3c0,0,0,0,0,0l-2,0
	c-0.2,0-0.4,0.1-0.3,0.3c0,0.1,0.3,0.3,0.5,0.3l0.8,0l-5.2,3.1l-0.5-1.3l0.7-0.4c0.5,0.2,1,0.2,1.4,0c0.5-0.3,0.4-0.8-0.1-1.1
	c-0.5-0.4-1.3-0.4-1.8-0.2c-0.4,0.2-0.4,0.6-0.1,0.9l-0.9,0.5C12,8.6,12,8.7,12,8.8l0.8,1.8l-0.9,0.6c-0.2,0.1-0.1,0.3,0,0.4
	c0.2,0.1,0.4,0.1,0.6,0.1l2-1.2l2.8,0.6c0.1,0,0.3,0,0.4,0l0.8-0.5l0.3,0.2c0.2,0.1,0.4,0.1,0.6,0.1l1.1-0.6
	C20.6,10,20.6,9.8,20.4,9.7z M13.7,7.6c0.2-0.1,0.4-0.1,0.6,0.1c0.2,0.1,0.2,0.3,0,0.4c-0.2,0.1-0.4,0.1-0.6-0.1
	C13.6,7.9,13.6,7.7,13.7,7.6z M19,10.2l-0.6-0.4l0.5-0.3l0.6,0.4L19,10.2z"/>
</svg>
