<?xml version="1.0" encoding="utf-8"?>
<!-- Generator: Adobe Illustrator 22.0.1, SVG Export Plug-In . SVG Version: 6.00 Build 0)  -->
<svg version="1.1" id="Capa_1" xmlns="http://www.w3.org/2000/svg" xmlns:xlink="http://www.w3.org/1999/xlink" x="0px" y="0px"
	 viewBox="0 0 500 500" style="enable-background:new 0 0 500 500;" xml:space="preserve">
<style type="text/css">
	.st0{fill:#C6C6C6;}
	.st1{fill:#FFFFFF;}
	.st2{fill:#FFFFFF;stroke:#FFFFFF;stroke-width:5.5495;stroke-miterlimit:10;}
	.st3{fill:#DC3336;}
	.st4{fill:#F4C312;}
	.st5{fill:#4EB056;}
	.st6{fill:#547DBE;}
	.st7{fill:#EDEDED;}
	.st8{fill:#DADADA;}
	.st9{clip-path:url(#SVGID_2_);fill:#DADADA;}
</style>
<circle class="st4" cx="250" cy="250.3" r="186.3"/>
<g>
	<g>
		<path class="st1" d="M190.6,329.6c7.1,0,12.8-5.7,12.8-12.8c0-7-5.7-12.8-12.8-12.8c-7,0-12.8,5.7-12.8,12.8
			C177.8,323.9,183.5,329.6,190.6,329.6z"/>
		<path class="st1" d="M190.6,332.2c-12.9,0-23.3,10.5-23.3,23.3v19.4h46.7v-19.4C213.9,342.7,203.5,332.2,190.6,332.2z"/>
	</g>
	<g>
		<path class="st1" d="M251.2,329.6c7.1,0,12.8-5.7,12.8-12.8c0-7-5.7-12.8-12.8-12.8c-7.1,0-12.8,5.7-12.8,12.8
			C238.4,323.9,244.1,329.6,251.2,329.6z"/>
		<path class="st1" d="M251.2,332.2c-12.9,0-23.3,10.5-23.3,23.3v19.4h46.7v-19.4C274.5,342.7,264.1,332.2,251.2,332.2z"/>
	</g>
	<g>
		<path class="st1" d="M311.8,329.6c7,0,12.8-5.7,12.8-12.8c0-7-5.7-12.8-12.8-12.8c-7.1,0-12.8,5.7-12.8,12.8
			C299,323.9,304.8,329.6,311.8,329.6z"/>
		<path class="st1" d="M311.8,332.2c-12.9,0-23.3,10.5-23.3,23.3v19.4h46.7v-19.4C335.2,342.7,324.7,332.2,311.8,332.2z"/>
	</g>
	<path class="st1" d="M341.7,164.1v93.4c0,10.7-9.4,19.5-21,19.5H179.3c-11.6,0-21-8.8-21-19.5v-93.4c0-10.7,9.4-19.5,21-19.5h141.5
		C332.3,144.6,341.7,153.3,341.7,164.1z"/>
</g>
</svg>
