<?xml version="1.0" encoding="utf-8"?>
<!-- Generator: Adobe Illustrator 22.0.1, SVG Export Plug-In . SVG Version: 6.00 Build 0)  -->
<svg version="1.1" id="Capa_1" xmlns="http://www.w3.org/2000/svg" xmlns:xlink="http://www.w3.org/1999/xlink" x="0px" y="0px"
	 viewBox="0 0 500 500" style="enable-background:new 0 0 500 500;" xml:space="preserve">
<style type="text/css">
	.st0{fill:#C6C6C6;}
	.st1{fill:#FFFFFF;}
	.st2{fill:#FFFFFF;stroke:#FFFFFF;stroke-width:5.5495;stroke-miterlimit:10;}
	.st3{fill:#DC3336;}
	.st4{fill:#F4C312;}
	.st5{fill:#4EB056;}
	.st6{fill:#547DBE;}
	.st7{fill:#EDEDED;}
	.st8{fill:#DADADA;}
	.st9{clip-path:url(#SVGID_2_);fill:#DADADA;}
</style>
<circle class="st5" cx="250" cy="250.3" r="186.3"/>
<g>
	<path class="st1" d="M254.3,154.9c-0.9-0.4-2-0.3-2.8,0.4l-61.3,51.1h-61.1c-1.4,0-2.6,1.2-2.6,2.6v82.7c0,1.4,1.2,2.6,2.6,2.6
		h61.1l61.3,51.1c0.5,0.4,1.1,0.6,1.7,0.6c0.4,0,0.7-0.1,1.1-0.2c0.9-0.4,1.5-1.3,1.5-2.3V157.2
		C255.8,156.2,255.2,155.3,254.3,154.9z"/>
	<path class="st2" d="M301.3,218.5c-1,1-1,2.6,0,3.7c7.3,7.3,11.4,17.1,11.4,27.4c0,10.4-4,20.1-11.4,27.4c-1,1-1,2.6,0,3.7
		c0.5,0.5,1.2,0.8,1.8,0.8c0.7,0,1.3-0.3,1.8-0.8c8.3-8.3,12.9-19.3,12.9-31.1s-4.6-22.8-12.9-31.1
		C303.9,217.5,302.3,217.5,301.3,218.5z"/>
	<path class="st2" d="M326.9,196.5c-1-1-2.6-1-3.7,0c-1,1-1,2.6,0,3.7c27.2,27.2,27.2,71.5,0,98.7c-1,1-1,2.6,0,3.7
		c0.5,0.5,1.2,0.8,1.8,0.8c0.7,0,1.3-0.3,1.8-0.8c14.2-14.2,22-33,22-53S341,210.7,326.9,196.5z"/>
	<path class="st2" d="M348.8,174.6c-1-1-2.6-1-3.7,0c-1,1-1,2.6,0,3.7c39.3,39.3,39.3,103.3,0,142.6c-1,1-1,2.6,0,3.7
		c0.5,0.5,1.2,0.8,1.8,0.8c0.7,0,1.3-0.3,1.8-0.8C390.1,283.2,390.1,215.9,348.8,174.6z"/>
</g>
</svg>
