<?xml version="1.0" encoding="utf-8"?>
<!-- Generator: Adobe Illustrator 22.0.1, SVG Export Plug-In . SVG Version: 6.00 Build 0)  -->
<svg version="1.1" id="Capa_1" xmlns="http://www.w3.org/2000/svg" xmlns:xlink="http://www.w3.org/1999/xlink" x="0px" y="0px"
	 viewBox="0 0 500 500" style="enable-background:new 0 0 500 500;" xml:space="preserve">
<style type="text/css">
	.st0{fill:#C6C6C6;}
	.st1{fill:#FFFFFF;}
	.st2{fill:#FFFFFF;stroke:#FFFFFF;stroke-width:5.5495;stroke-miterlimit:10;}
	.st3{fill:#DC3336;}
	.st4{fill:#F4C312;}
	.st5{fill:#4EB056;}
	.st6{fill:#547DBE;}
	.st7{fill:#EDEDED;}
	.st8{fill:#DADADA;}
	.st9{clip-path:url(#SVGID_2_);fill:#DADADA;}
</style>
<circle class="st0" cx="250.6" cy="250.2" r="186.3"/>
<g>
	<g>
		<path class="st1" d="M191.2,329.5c7.1,0,12.8-5.7,12.8-12.8c0-7-5.7-12.8-12.8-12.8c-7,0-12.8,5.7-12.8,12.8
			C178.4,323.8,184.1,329.5,191.2,329.5z"/>
		<path class="st1" d="M191.2,332.2c-12.9,0-23.3,10.5-23.3,23.3v19.4h46.7v-19.4C214.5,342.6,204,332.2,191.2,332.2z"/>
	</g>
	<g>
		<path class="st1" d="M251.8,329.5c7.1,0,12.8-5.7,12.8-12.8c0-7-5.7-12.8-12.8-12.8c-7.1,0-12.8,5.7-12.8,12.8
			C239,323.8,244.7,329.5,251.8,329.5z"/>
		<path class="st1" d="M251.8,332.2c-12.9,0-23.3,10.5-23.3,23.3v19.4h46.7v-19.4C275.1,342.6,264.7,332.2,251.8,332.2z"/>
	</g>
	<g>
		<path class="st1" d="M312.4,329.5c7,0,12.8-5.7,12.8-12.8c0-7-5.7-12.8-12.8-12.8c-7.1,0-12.8,5.7-12.8,12.8
			C299.6,323.8,305.4,329.5,312.4,329.5z"/>
		<path class="st1" d="M312.4,332.2c-12.9,0-23.3,10.5-23.3,23.3v19.4h46.7v-19.4C335.8,342.6,325.3,332.2,312.4,332.2z"/>
	</g>
	<path class="st1" d="M342.3,164v93.4c0,10.7-9.4,19.5-21,19.5H179.9c-11.6,0-21-8.8-21-19.5V164c0-10.7,9.4-19.5,21-19.5h141.5
		C332.9,144.5,342.3,153.3,342.3,164z"/>
</g>
</svg>
