<svg xmlns="http://www.w3.org/2000/svg" viewBox="0 0 115.25 36.62"><defs><style>.cls-1{fill:#5278b3;}.cls-2{fill:#cf3737;}.cls-3{fill:#e9bc25;}.cls-4{fill:#4fa855;}.cls-5{isolation:isolate;font-size:6.21px;font-family:ArgentumSans-Bold, ArgentumSans Bold;font-weight:700;}.cls-5,.cls-6{fill:#fff;}</style></defs><g id="Layer_2" data-name="Layer 2"><g id="Capa_1" data-name="Capa 1"><path class="cls-1" d="M10.48,36.52C4,36.52,0,32.79,0,26.58v-8c0-6.21,4-9.93,10.48-9.93,6.66,0,10.39,3.67,10.39,8.54a1.11,1.11,0,0,1-1.15,1.19H17.29a1.06,1.06,0,0,1-1.14-1.14c0-2.58-1.89-4.57-5.62-4.57s-5.71,2.24-5.71,6.51V26c0,4.28,2.09,6.51,5.71,6.51,3.88,0,5.62-2.08,5.62-4.52a1,1,0,0,1,1.14-1.14h2.39A1.14,1.14,0,0,1,20.87,28C20.87,32.64,17.14,36.52,10.48,36.52Z"/><path class="cls-2" d="M27.72,36a1.18,1.18,0,0,1-1.19-1.19V13L25,12.82a1.21,1.21,0,0,1-1.14-1.24v-1.3a1.13,1.13,0,0,1,1.19-1.14h5a1.18,1.18,0,0,1,1.19,1.19v24.5A1.18,1.18,0,0,1,30.11,36ZM28.77,5.71c-1.74,0-2.83-.79-2.83-2.78S27,0,28.77,0A2.6,2.6,0,0,1,31.7,2.93C31.7,4.87,30.56,5.71,28.77,5.71Z"/><path class="cls-3" d="M37.91,27.43V13H36.27A1.22,1.22,0,0,1,35,11.78V10.33a1.22,1.22,0,0,1,1.24-1.19H38l.45-5.51a1.3,1.3,0,0,1,1.29-1.2h1.74a1.18,1.18,0,0,1,1.19,1.2V9.14h6.56a1.22,1.22,0,0,1,1.24,1.19v1.45A1.22,1.22,0,0,1,49.24,13H42.68V27.13c0,3.77,1.54,5.56,4.92,5.56a14.6,14.6,0,0,0,2.48-.2.93.93,0,0,1,1.14.95v1.44A1.53,1.53,0,0,1,50,36.27a15,15,0,0,1-2.88.35C41,36.67,37.91,33.64,37.91,27.43Z"/><path class="cls-4" d="M56.34,36a1.18,1.18,0,0,1-1.19-1.19V1.19A1.18,1.18,0,0,1,56.34,0h2.34a1.18,1.18,0,0,1,1.19,1.19V11.68a10.19,10.19,0,0,1,7-3c6.16,0,8.94,3.42,8.94,9.63v8.65c0,6.21-2.78,9.64-8.94,9.64a10.26,10.26,0,0,1-7.26-3.23l-.15,1.54a1.43,1.43,0,0,1-1.39,1.19H56.34Zm3.58-20V29.16a8.77,8.77,0,0,0,6.21,3.28c3.68,0,5-2.08,5-6.11v-7.5c0-4-1.34-6.11-5-6.11A8.77,8.77,0,0,0,59.92,16Z"/><circle class="cls-2" cx="98.86" cy="20.13" r="16.39"/><text class="cls-5" transform="translate(95.8 22.18)">REC</text><polygon class="cls-6" points="88.27 16.45 88.27 15.22 85.75 15.22 85.75 15.95 85.75 16.45 85.75 23.35 85.75 24.16 85.75 24.58 88.27 24.58 88.27 23.35 86.97 23.35 86.97 16.45 88.27 16.45"/><polygon class="cls-6" points="109.45 23.35 109.45 24.58 111.97 24.58 111.97 23.85 111.97 23.35 111.97 16.45 111.97 15.65 111.97 15.22 109.45 15.22 109.45 16.45 110.75 16.45 110.75 23.35 109.45 23.35"/><circle class="cls-6" cx="91.28" cy="19.87" r="2.85"/></g></g></svg>