<?xml version="1.0" encoding="utf-8"?>
<!-- Generator: Adobe Illustrator 22.0.1, SVG Export Plug-In . SVG Version: 6.00 Build 0)  -->
<svg version="1.1" id="Capa_1" xmlns="http://www.w3.org/2000/svg" xmlns:xlink="http://www.w3.org/1999/xlink" x="0px" y="0px"
	 viewBox="0 0 500 500" style="enable-background:new 0 0 500 500;" xml:space="preserve">
<style type="text/css">
	.st0{fill:#4EB056;}
	.st1{fill:#C6C6C6;}
	.st2{fill:#009FE3;}
	.st3{fill:#E94E1B;}
	.st4{fill:#FFFFFF;}
	.st5{fill:#DC3336;}
	.st6{fill:#FFFFFF;stroke:#FFFFFF;stroke-width:5.5495;stroke-miterlimit:10;}
	.st7{fill:#F4C312;}
	.st8{fill:#E71D73;}
	.st9{fill:#547DBE;}
	.st10{fill:#EDEDED;}
	.st11{fill:#DADADA;}
	.st12{clip-path:url(#SVGID_2_);fill:#DADADA;}
	.st13{clip-path:url(#SVGID_4_);fill:#DADADA;}
	.st14{fill:#8085C0;}
	.st15{fill:#BE1622;}
	.st16{clip-path:url(#SVGID_6_);fill:#DADADA;}
	.st17{clip-path:url(#SVGID_8_);fill:#DADADA;}
	.st18{clip-path:url(#SVGID_10_);fill:#DADADA;}
	.st19{clip-path:url(#SVGID_12_);fill:#DADADA;}
	.st20{clip-path:url(#SVGID_14_);fill:#DADADA;}
	.st21{clip-path:url(#SVGID_16_);fill:#DADADA;}
	.st22{fill:#C6C6C6;stroke:#C6C6C6;stroke-width:3;stroke-miterlimit:10;}
	.st23{clip-path:url(#SVGID_18_);fill:#DADADA;}
	.st24{fill:#4EB056;stroke:#4EB056;stroke-width:3;stroke-miterlimit:10;}
	.st25{clip-path:url(#SVGID_20_);fill:#DADADA;}
	.st26{clip-path:url(#SVGID_22_);fill:#DADADA;}
	.st27{clip-path:url(#SVGID_24_);fill:#DADADA;}
	.st28{fill:#006633;}
	.st29{fill:#FFFFFF;stroke:#FFFFFF;stroke-width:5;stroke-miterlimit:10;}
	.st30{fill:none;stroke:#FFFFFF;stroke-width:18.9043;stroke-miterlimit:10;}
	.st31{fill:none;stroke:#FFFFFF;stroke-width:18.6817;stroke-linecap:round;stroke-linejoin:round;stroke-miterlimit:10;}
	.st32{fill:#7D4E24;}
</style>
<g>
	<circle class="st1" cx="237.8" cy="256.5" r="185.8"/>
	<g id="Close">
		<path class="st4" d="M237.8,236.5c12.2,0,22-9.9,22-22v-65.6c0-12.1-9.8-22-22-22c-12.2,0-22,9.9-22,22v65.6
			C215.8,226.7,225.6,236.5,237.8,236.5z"/>
		<path class="st4" d="M277.8,160.8v40.6c21.5,13.4,35.8,37.2,35.8,64.4c0,41.9-34.1,75.9-75.9,75.9c-41.9,0-75.9-34.1-75.9-75.9
			c0-27.1,14.4-50.9,35.8-64.4v-40.6c-42.2,16.2-72.3,57.1-72.3,104.9c0,61.9,50.4,112.3,112.3,112.3c61.9,0,112.3-50.4,112.3-112.3
			C350.1,217.9,320,177,277.8,160.8z"/>
	</g>
</g>
</svg>
