<?xml version="1.0" encoding="utf-8"?>
<!-- Generator: Adobe Illustrator 22.0.1, SVG Export Plug-In . SVG Version: 6.00 Build 0)  -->
<svg version="1.1" id="Capa_1" xmlns="http://www.w3.org/2000/svg" xmlns:xlink="http://www.w3.org/1999/xlink" x="0px" y="0px"
	 viewBox="0 0 500 500" style="enable-background:new 0 0 500 500;" xml:space="preserve">
<style type="text/css">
	.st0{fill:#7D4E24;}
	.st1{fill:#C6C6C6;}
	.st2{fill:#009FE3;}
	.st3{fill:#E94E1B;}
	.st4{fill:#FFFFFF;}
	.st5{fill:#DC3336;}
	.st6{fill:#FFFFFF;stroke:#FFFFFF;stroke-width:5.5495;stroke-miterlimit:10;}
	.st7{fill:#F4C312;}
	.st8{fill:#E71D73;}
	.st9{fill:#4EB056;}
	.st10{fill:#547DBE;}
	.st11{fill:#EDEDED;}
	.st12{fill:#DADADA;}
	.st13{clip-path:url(#SVGID_2_);fill:#DADADA;}
	.st14{clip-path:url(#SVGID_4_);fill:#DADADA;}
	.st15{fill:#8085C0;}
	.st16{fill:#BE1622;}
	.st17{clip-path:url(#SVGID_6_);fill:#DADADA;}
	.st18{clip-path:url(#SVGID_8_);fill:#DADADA;}
	.st19{clip-path:url(#SVGID_10_);fill:#DADADA;}
	.st20{clip-path:url(#SVGID_12_);fill:#DADADA;}
	.st21{clip-path:url(#SVGID_14_);fill:#DADADA;}
	.st22{clip-path:url(#SVGID_16_);fill:#DADADA;}
	.st23{fill:#C6C6C6;stroke:#C6C6C6;stroke-width:3;stroke-miterlimit:10;}
	.st24{clip-path:url(#SVGID_18_);fill:#DADADA;}
	.st25{fill:#4EB056;stroke:#4EB056;stroke-width:3;stroke-miterlimit:10;}
	.st26{clip-path:url(#SVGID_20_);fill:#DADADA;}
	.st27{clip-path:url(#SVGID_22_);fill:#DADADA;}
	.st28{clip-path:url(#SVGID_24_);fill:#DADADA;}
	.st29{fill:#006633;}
	.st30{fill:#FFFFFF;stroke:#FFFFFF;stroke-width:5;stroke-miterlimit:10;}
	.st31{fill:none;stroke:#FFFFFF;stroke-width:18.9043;stroke-miterlimit:10;}
	.st32{fill:none;stroke:#FFFFFF;stroke-width:18.6817;stroke-linecap:round;stroke-linejoin:round;stroke-miterlimit:10;}
</style>
<circle class="st1" cx="250" cy="250" r="186.3"/>
<g>
	<path class="st30" d="M350.7,261.2c-0.6-0.6-1.6-0.6-2.2,0s-0.6,1.6,0,2.2c7.9,7.9,12.3,18.4,12.3,29.6c0,11.2-4.4,21.7-12.3,29.6
		c-0.6,0.6-0.6,1.6,0,2.2c0.3,0.3,0.7,0.5,1.1,0.5s0.8-0.2,1.1-0.5c8.5-8.5,13.2-19.8,13.2-31.8C363.9,281,359.2,269.7,350.7,261.2z
		"/>
	<path class="st30" d="M363.8,248c-0.6-0.6-1.6-0.6-2.2,0s-0.6,1.6,0,2.2c23.6,23.6,23.6,61.9,0,85.5c-0.6,0.6-0.6,1.6,0,2.2
		c0.3,0.3,0.7,0.5,1.1,0.5s0.8-0.2,1.1-0.5C388.6,313.2,388.6,272.8,363.8,248z"/>
	<path class="st30" d="M335.3,274.4c-0.6,0.6-0.6,1.6,0,2.2c4.4,4.4,6.8,10.2,6.8,16.4c0,6.2-2.4,12-6.8,16.4
		c-0.6,0.6-0.6,1.6,0,2.2c0.3,0.3,0.7,0.5,1.1,0.5c0.4,0,0.8-0.2,1.1-0.5c5-5,7.7-11.6,7.7-18.6c0-7-2.7-13.7-7.7-18.6
		C336.9,273.8,335.9,273.8,335.3,274.4z"/>
</g>
<path class="st4" d="M225.9,140.5c39.2,6.1,69.4,40,69.4,80.9c0,9.1,2.2,17.5,6.3,24.4l12.1,20.2c1.6,2.7,0.8,6.1-1.8,7.8
	c-5.9,3.8-9.4,10.2-9.4,17.2v10.7v14.8v3.9c0,7.3-5.9,13.2-13.2,13.2h-11.9c-15,0-27.3,11.9-27.9,26.8H166v-16.7
	c0-27.1-7.9-54.5-23.6-81.4c-9.3-16-12.8-34.4-10.1-53.2c4.3-29.5,25.3-54.4,52.7-64.7C185.1,144.5,198.1,137.1,225.9,140.5z"/>
</svg>
