<?xml version="1.0" encoding="utf-8"?>
<!-- Generator: Adobe Illustrator 22.0.1, SVG Export Plug-In . SVG Version: 6.00 Build 0)  -->
<svg version="1.1" id="Capa_1" xmlns="http://www.w3.org/2000/svg" xmlns:xlink="http://www.w3.org/1999/xlink" x="0px" y="0px"
	 viewBox="0 0 500 500" style="enable-background:new 0 0 500 500;" xml:space="preserve">
<style type="text/css">
	.st0{fill:#4EB056;}
	.st1{fill:#C6C6C6;}
	.st2{fill:#009FE3;}
	.st3{fill:#E94E1B;}
	.st4{fill:#FFFFFF;}
	.st5{fill:#DC3336;}
	.st6{fill:#FFFFFF;stroke:#FFFFFF;stroke-width:5.5495;stroke-miterlimit:10;}
	.st7{fill:#F4C312;}
	.st8{fill:#E71D73;}
	.st9{fill:#547DBE;}
	.st10{fill:#EDEDED;}
	.st11{fill:#DADADA;}
	.st12{clip-path:url(#SVGID_2_);fill:#DADADA;}
	.st13{clip-path:url(#SVGID_4_);fill:#DADADA;}
	.st14{fill:#8085C0;}
	.st15{fill:#BE1622;}
	.st16{clip-path:url(#SVGID_6_);fill:#DADADA;}
	.st17{clip-path:url(#SVGID_8_);fill:#DADADA;}
	.st18{clip-path:url(#SVGID_10_);fill:#DADADA;}
	.st19{clip-path:url(#SVGID_12_);fill:#DADADA;}
	.st20{clip-path:url(#SVGID_14_);fill:#DADADA;}
	.st21{clip-path:url(#SVGID_16_);fill:#DADADA;}
	.st22{fill:#C6C6C6;stroke:#C6C6C6;stroke-width:3;stroke-miterlimit:10;}
	.st23{clip-path:url(#SVGID_18_);fill:#DADADA;}
	.st24{fill:#4EB056;stroke:#4EB056;stroke-width:3;stroke-miterlimit:10;}
	.st25{clip-path:url(#SVGID_20_);fill:#DADADA;}
	.st26{clip-path:url(#SVGID_22_);fill:#DADADA;}
	.st27{clip-path:url(#SVGID_24_);fill:#DADADA;}
	.st28{fill:#006633;}
	.st29{fill:#FFFFFF;stroke:#FFFFFF;stroke-width:5;stroke-miterlimit:10;}
	.st30{fill:none;stroke:#FFFFFF;stroke-width:18.9043;stroke-miterlimit:10;}
	.st31{fill:none;stroke:#FFFFFF;stroke-width:18.6817;stroke-linecap:round;stroke-linejoin:round;stroke-miterlimit:10;}
	.st32{fill:#7D4E24;}
</style>
<circle class="st0" cx="-3910.4" cy="250" r="186.3"/>
<circle class="st1" cx="-4430" cy="250" r="186.3"/>
<circle class="st2" cx="-4950" cy="250" r="186.3"/>
<circle class="st1" cx="-5470" cy="250" r="186.3"/>
<circle class="st3" cx="-7030" cy="250" r="186.3"/>
<circle class="st1" cx="-10670" cy="250" r="186.3"/>
<polygon class="st4" points="-10542.5,207.4 -10574.3,235.9 -10574.3,196.9 -10793.9,196.9 -10793.9,319.3 -10574.3,319.3 
	-10574.3,279.9 -10542.5,308.2 "/>
<circle class="st1" cx="-11189.9" cy="-397.9" r="186.3"/>
<circle class="st5" cx="-10150" cy="250" r="186.3"/>
<circle class="st1" cx="-9629.3" cy="250" r="186.3"/>
<circle class="st5" cx="-9109.9" cy="250" r="186.3"/>
<circle class="st1" cx="-8590" cy="250" r="186.3"/>
<circle class="st5" cx="-8070" cy="250" r="186.3"/>
<circle class="st1" cx="-7550" cy="250" r="186.3"/>
<circle class="st1" cx="-2347" cy="250" r="186.3"/>
<circle class="st1" cx="-3390" cy="250" r="186.3"/>
<g>
	<g>
		<circle class="st4" cx="-11189.8" cy="-427.5" r="23.4"/>
		<path class="st4" d="M-11123.7-484.9h-132.2c-10.6,0-19.1,8.6-19.1,19.1v76.5c0,10.5,8.6,19.1,19.1,19.1h132.2
			c10.5,0,19.1-8.6,19.1-19.1v-76.5C-11104.6-476.3-11113.2-484.9-11123.7-484.9z M-11189.8-391.4c-19.9,0-36.1-16.2-36.1-36.1
			s16.2-36.1,36.1-36.1s36.1,16.2,36.1,36.1S-11169.9-391.4-11189.8-391.4z"/>
	</g>
	<path class="st4" d="M-11068-382.9c-5.8-4.5-11.3-6.6-15-8.1s-5.8-2.1-5.8-2.1s1.8,1.1,5.3,3.2c3.2,2.1,7.9,5.5,12.3,10.5
		c2.1,2.4,3.9,5.5,5,8.7c0.8,3.2,0.5,6.6-1.3,9.5c-3.4,6-11.6,10.5-20.2,13.9c-17.6,6.6-38.6,9.2-56.7,10.2
		c-7.1,0.5-13.9,0.5-20,0.5v28.1c7.1-0.8,15-2.1,23.4-3.7c19.4-4.2,41.2-10.5,60.2-21.8c4.7-2.9,9.2-6,13.1-9.7
		c3.9-3.7,7.4-8.1,9.2-13.7c1.8-5.3,1.3-11.3-1.1-15.5C-11062-377.9-11065.1-380.8-11068-382.9z"/>
	<path class="st4" d="M-11296.8-334.3c18.9,11.3,40.7,17.6,60.2,21.8c6.3,1.3,12.6,2.4,18.4,3.2v16.8l34.2-29.4l-34.2-29.4v14.4
		c-4.7,0-9.7-0.3-15-0.5c-18.1-1.1-39.1-3.4-56.7-10c-8.7-3.2-16.8-7.9-20.5-13.7c-1.8-2.9-2.4-6-1.3-9.5c0.8-3.2,2.6-6.3,4.7-8.7
		c4.2-5,8.9-8.1,12.3-10.5c3.2-2.1,5.3-3.2,5.3-3.2s-2.1,0.5-5.8,2.1s-8.9,3.7-15,8.1c-2.9,2.4-6,5.3-8.1,9.5s-2.6,10.2-0.8,15.5
		c1.8,5.3,5.5,9.7,9.5,13.7C-11306-340.4-11301.6-337.2-11296.8-334.3z"/>
</g>
<circle class="st1" cx="-10669.4" cy="-397.9" r="186.3"/>
<g>
	<g>
		<path class="st4" d="M-10728.8-318.5c7.1,0,12.8-5.7,12.8-12.8c0-7-5.7-12.8-12.8-12.8c-7,0-12.8,5.7-12.8,12.8
			C-10741.6-324.3-10735.9-318.5-10728.8-318.5z"/>
		<path class="st4" d="M-10728.8-315.9c-12.9,0-23.3,10.5-23.3,23.3v19.4h46.7v-19.4C-10705.5-305.4-10716-315.9-10728.8-315.9z"/>
	</g>
	<g>
		<path class="st4" d="M-10668.2-318.5c7.1,0,12.8-5.7,12.8-12.8c0-7-5.7-12.8-12.8-12.8c-7.1,0-12.8,5.7-12.8,12.8
			C-10681-324.3-10675.3-318.5-10668.2-318.5z"/>
		<path class="st4" d="M-10668.2-315.9c-12.9,0-23.3,10.5-23.3,23.3v19.4h46.7v-19.4C-10644.9-305.4-10655.3-315.9-10668.2-315.9z"
			/>
	</g>
	<g>
		<path class="st4" d="M-10607.6-318.5c7,0,12.8-5.7,12.8-12.8c0-7-5.7-12.8-12.8-12.8c-7.1,0-12.8,5.7-12.8,12.8
			C-10620.4-324.3-10614.6-318.5-10607.6-318.5z"/>
		<path class="st4" d="M-10607.6-315.9c-12.9,0-23.3,10.5-23.3,23.3v19.4h46.7v-19.4C-10584.2-305.4-10594.7-315.9-10607.6-315.9z"
			/>
	</g>
	<path class="st4" d="M-10577.7-484.1v93.4c0,10.7-9.4,19.5-21,19.5h-141.5c-11.6,0-21-8.8-21-19.5v-93.4c0-10.7,9.4-19.5,21-19.5
		h141.5C-10587.1-503.5-10577.7-494.8-10577.7-484.1z"/>
</g>
<circle class="st1" cx="-10150" cy="-397.9" r="186.3"/>
<g>
	<path class="st4" d="M-10145.7-493.2c-0.9-0.4-2-0.3-2.8,0.4l-61.3,51.1h-61.1c-1.4,0-2.6,1.2-2.6,2.6v82.7c0,1.4,1.2,2.6,2.6,2.6
		h61.1l61.3,51.1c0.5,0.4,1.1,0.6,1.7,0.6c0.4,0,0.8-0.1,1.1-0.2c0.9-0.4,1.5-1.3,1.5-2.3v-186.1
		C-10144.2-491.9-10144.8-492.8-10145.7-493.2z"/>
	<path class="st6" d="M-10098.7-429.6c-1,1-1,2.6,0,3.7c7.3,7.3,11.4,17.1,11.4,27.4c0,10.4-4,20.1-11.4,27.4c-1,1-1,2.6,0,3.7
		c0.5,0.5,1.2,0.8,1.8,0.8s1.3-0.3,1.8-0.8c8.3-8.3,12.9-19.3,12.9-31.1s-4.6-22.8-12.9-31.1
		C-10096.1-430.6-10097.7-430.6-10098.7-429.6z"/>
	<path class="st6" d="M-10073.1-451.6c-1-1-2.6-1-3.7,0c-1,1-1,2.6,0,3.7c27.2,27.2,27.2,71.5,0,98.7c-1,1-1,2.6,0,3.7
		c0.5,0.5,1.2,0.8,1.8,0.8s1.3-0.3,1.8-0.8c14.2-14.2,22-33,22-53C-10051.2-418.6-10059-437.4-10073.1-451.6z"/>
	<path class="st6" d="M-10051.2-473.5c-1-1-2.6-1-3.7,0c-1,1-1,2.6,0,3.7c39.3,39.3,39.3,103.3,0,142.6c-1,1-1,2.6,0,3.7
		c0.5,0.5,1.2,0.8,1.8,0.8s1.3-0.3,1.8-0.8C-10009.9-364.9-10009.9-432.2-10051.2-473.5z"/>
</g>
<circle class="st1" cx="-11709.8" cy="-397.9" r="186.3"/>
<g>
	<path class="st4" d="M-11808.1-408.8l73.4,42.4c0.8,0.5,1.8,0.5,2.5,0l73.4-42.4c0.8-0.5,0.8-1.7,0-2.2l-73.4-42.4
		c-0.8-0.5-1.8-0.5-2.5,0l-73.4,42.4C-11808.9-410.5-11808.9-409.3-11808.1-408.8z"/>
	<g>
		<path class="st4" d="M-11605-494.1l-73.4-42.4c-0.8-0.5-1.8-0.5-2.5,0l-43.4,76.3c-0.8,0.5-0.8,1.7,0,2.2l73.4,42.4
			c0.8,0.5,1.8,0.5,2.5,0l43.4-76.3C-11604.2-492.4-11604.2-493.6-11605-494.1z M-11641.2-476.9c-1.4,2.5-2.9,5-4.3,7.4
			c-1.2,2-2.5,2.3-4.5,1.2c-1.1-0.6-1.1-0.6-1.8,0.5c-0.8,1.3-1.6,2.6-2.3,3.9c-0.6,1.1-1.5,1.7-2.8,1.8c-2.7,0.2-5.4,0.3-8.1,0.5
			c-1.9,0.2-3.9,0.1-5.8,0.4c-0.6,0.1-0.9,0.3-1.2,0.8c-2.5,4.4-5.1,8.7-7.6,13.1c-0.2,0.3-0.3,0.6-0.5,0.9
			c-0.9,1.2-2.4,1.6-3.7,0.9c-1.3-0.7-1.9-2.4-1.2-3.7c0.9-1.7,1.9-3.4,2.9-5.1c0.1-0.2,0.2-0.4,0.3-0.6c0.5-0.7,0.5-1.4,0.1-2.3
			c-1.9-3.8-3.7-7.6-5.6-11.3c-0.9-1.7-0.9-3.1,0.2-4.6c0.8-1.2,1.4-2.5,2.2-3.7c0.5-0.9,0.6-1.6,0.1-2.5c-2.1-3.9-0.1-8.1,2.7-9.7
			c2.5-1.4,5.1-1.5,7.6-0.1c2.3,1.4,3.6,3.4,3.7,6.2c0.2,3.5-2.4,7.5-7.3,7.7c-0.9,0-1.3,0.3-1.7,1.1c-0.5,1-1.1,1.9-1.6,2.8
			c-0.2,0.4-0.4,0.7-0.2,1.2c1.3,2.5,2.5,5.1,3.8,7.6c0,0.1,0.1,0.1,0.2,0.1c0.7-0.7,20-33.7,20.3-34.9c-0.5,0-0.9,0.3-1.3,0.5
			c-0.7,0.3-1.4,0.6-2.1,0.5c-1.3,0-2.3-0.7-2.6-1.8c-0.4-1.5-0.1-2.5,1.1-3.4c0.2-0.2,0.5-0.3,0.8-0.4c3.3-1.4,6.6-2.8,9.9-4.2
			c0.6-0.3,1.3-0.5,2-0.4c1.4,0.3,2.1,1.1,2.3,2.6c0.3,2.3,0.5,4.6,0.8,6.9c0.1,1.1,0.3,2.2,0.4,3.4c0.1,0.5,0.1,1,0.1,1.4
			c0,1.4-1,2.6-2.4,2.8c-1.4,0.2-2.6-0.6-3.1-2c-0.2-0.5-0.2-1-0.2-1.5c-0.1-0.5-0.2-0.9-0.3-1.7c-5.4,9.2-10.6,18.2-16,27.5
			c2.2-0.3,4.1-0.2,5.9-0.4c0.9-0.1,1.8-0.2,2.7-0.2c0.7,0,1.1-0.2,1.5-0.8c0.5-0.9,1-1.7,1.5-2.6c0.4-0.6,0.3-1-0.3-1.2
			c-0.2-0.1-0.4-0.3-0.7-0.4c-1.4-0.9-1.9-2.5-1.1-3.9c1.2-2.1,2.4-4.2,3.7-6.3c0.3-0.5,0.5-1,0.8-1.5c1-1.5,2.5-2,4.1-1.1
			c2.7,1.5,5.3,3,7.9,4.6C-11640.8-480-11640.4-478.3-11641.2-476.9z"/>
		<path class="st4" d="M-11648-477.6c-0.7-0.4-1.4-0.8-2.1-1.3c-0.4-0.2-0.6,0-0.8,0.2c-0.4,0.7-0.8,1.3-1.2,2
			c-0.2,0.3-0.1,0.6,0.2,0.7c0.7,0.4,1.3,0.8,2,1.2c0.2,0.1,0.4,0.2,0.6,0c0.5-0.8,1-1.6,1.4-2.4
			C-11647.7-477.4-11647.8-477.5-11648-477.6z"/>
		<path class="st4" d="M-11678.3-480.9c1,0,1.7-0.8,1.7-1.8c0-0.9-0.9-1.8-1.7-1.8c-0.9,0-1.7,0.9-1.7,1.8
			C-11680.1-481.7-11679.2-480.9-11678.3-480.9z"/>
	</g>
	<path class="st4" d="M-11654.2-401.2l-73.6,42.4c-0.8,0.5-1.3,1.3-1.3,2.2v84.4c0,1,1.1,1.6,1.9,1.1l73.6-42.5
		c0.8-0.5,1.3-1.3,1.3-2.2v-84.3C-11652.3-401.1-11653.3-401.7-11654.2-401.2z M-11698.7-313.7c-0.8,0.6-1.6,0.9-2.7,1.5
		c0-0.5-0.1-0.8-0.1-1.1c0-5,0-10,0-15c0-0.9,0.2-1.4,1-1.7c0.5-0.2,1-0.6,1.5-0.8c1.9-0.7,3.4,0.1,3.5,2.3c0,0.8,0,1.6,0,2.3
		c0,2.2,0,4.3,0,6.5C-11695.4-317.1-11696.7-315.2-11698.7-313.7z M-11667.8-333.8c-0.9,1.3-2,2.4-3.2,3.5c-0.3,0.3-0.6,0.7-0.7,1.2
		c-1.4,5.3-4.6,9.2-9.4,11.8c-0.2,0.1-0.4,0.2-0.6,0.3c-1.7,0.9-3.2,1.8-4,3.7c-0.7,1.7-2.1,2.9-3.6,3.8c-0.9,0.6-1.9,1-3,0.9
		c-1.5-0.1-2.6-1.2-2.7-2.7c-0.5-4.2,3.5-8.6,6.5-9.4c1.1-0.3,2.1-0.2,2.9,0.5c0.5,0.4,0.8,0.3,1.3,0.1c1.3-0.7,2.6-1.4,3.8-2.2
		c2-1.3,3.5-3,4.2-5.3c0.2-0.6,0.3-1.3,0.3-1.9c0-6.4,0-12.9,0-19.3c0-0.8-0.1-1.6-0.3-2.5c-1-4.2-4.4-5.5-7.8-5
		c-3.2,0.5-6,2.1-8.5,4.1c-4.9,3.9-8.3,8.9-10.2,14.8c-0.6,1.9-0.9,3.8-0.9,5.8c0,3.1,0,6.2,0,9.3c0,3.4,0,6.8,0,10.2
		c0,1-0.4,1.6-1.3,2c-1.3,0.6-2.7,1.1-4.1,1.3c-2.7,0.3-5.3-0.9-5.4-4.5c0-1.8,0.4-3.4,1.1-5c1-2.4,2.5-4.5,4.4-6.2
		c0.6-0.5,0.8-1.1,0.7-1.8c-0.1-2.4,0-4.9,0.4-7.3c0.5-3.4,1.8-6.5,3.3-9.4c2.3-4.3,5.3-8.1,8.9-11.3c3.4-3,7.2-5.4,11.7-6.4
		c2.2-0.5,4.4-0.5,6.5,0.4c3.3,1.4,4.9,4,5.5,7.4c0.4,1.9,0.2,3.9,0.2,5.9c0,1.1,0,1.1,1.1,0.9c2.7-0.4,5,1.6,5.2,4.2
		C-11664.9-339-11666.1-336.3-11667.8-333.8z M-11683.9-334.8c0-3.3,1.4-5.7,4.3-7.2c0.5-0.2,0.9-0.5,1.4-0.7c0,0,0.1,0,0.3,0
		c0,0.3,0,0.6,0,0.9c0,5,0,10,0,15c0,0.8-0.2,1.3-0.9,1.7c-0.9,0.4-1.6,1-2.6,1.1c-1.2,0-2-0.5-2.3-1.7c-0.1-0.6-0.2-1.1-0.2-1.7
		C-11683.9-329.9-11683.9-332.4-11683.9-334.8z"/>
	<g>
		<path class="st4" d="M-11778.5-331.1c1.9,1.7,4,3,6.6,3.5c2.1,0.4,4-0.7,4.8-2.7c0.3-0.8,0.4-1.6,0.3-2.4c0.1-1.2-0.2-2.4-0.5-3.5
			c-1.3-4.1-3.7-7.4-7-10.1c-1.7-1.4-3.5-2.4-5.7-2.8c-1.6-0.3-4,0.1-4.8,2.6c-0.4,1.2-0.6,2.3-0.4,3.6
			C-11784.4-338.2-11782-334.4-11778.5-331.1z M-11779.3-340.4c0.1-1.2,0.9-1.9,2.4-1.8c0.8,0.1,1.7,0.7,2.4,1.4
			c0.9,0.9,1.6,2.1,1.8,3.4c0.3,1.7-0.9,3.2-2.9,2.6C-11777.6-335.5-11779.5-338.2-11779.3-340.4z"/>
		<path class="st4" d="M-11738.9-358.6l-73.6-42.4c-0.8-0.5-1.9,0.1-1.9,1.1v84.3c0,0.9,0.5,1.7,1.3,2.2l73.6,42.5
			c0.8,0.5,1.9-0.1,1.9-1.1v-84.4C-11737.6-357.3-11738.1-358.2-11738.9-358.6z M-11793.8-356c1.4-3.3,4.5-5.4,8.1-5.5
			c3.4-0.1,6.4,1,9.3,2.6c6.5,3.7,11.3,9,15,15.5c1.9,3.3,3.2,6.7,3.9,10.5c0.2,1.2,0.4,2.5,0.4,3.8c-0.1,2.1-0.3,4.2-1.3,6.2
			c-1.6,3.1-4.3,4.7-7.8,4.9c-2.6,0.1-5-0.5-7.3-1.6c-3.3-1.5-6.2-3.5-8.8-6c-3.7-3.5-6.7-7.5-9-12c-1.7-3.3-2.9-6.7-3.2-10.4
			C-11795-350.8-11794.9-353.5-11793.8-356z M-11754.8-304.1c-0.5,0.5-1,0.4-1.6,0.2c-0.9-0.5-1.8-1-2.6-1.5
			c-5.7-3.3-11.3-6.6-17-9.9c-6.5-3.8-13.1-7.6-19.6-11.4c-0.9-0.5-1.5-1.3-1.9-2.3c-0.3-0.8,0-1.6,0.7-1.9c1.8-0.8,3.7-1.5,5.5-2.3
			c0.2-0.1,0.4-0.1,0.5-0.1c0.8,0,1.1,0.4,1.4,0.8c1.1,1.8,2.4,3.4,3.8,4.9c4.2,4.7,9,8.6,15.1,10.6c2.7,0.9,5.4,1.2,8.2,0.4
			c0.6-0.2,1,0,1.4,0.4c0.3,0.3,0.5,0.7,0.8,1.1c1.7,2.6,3.4,5.3,5,7.9c0.3,0.4,0.5,0.9,0.7,1.4
			C-11754.3-305.1-11754.4-304.6-11754.8-304.1z"/>
	</g>
</g>
<circle class="st5" cx="-9110" cy="-397.8" r="186.3"/>
<g>
	<g>
		<circle class="st4" cx="-9109.9" cy="-427.5" r="23.4"/>
		<path class="st4" d="M-9043.8-484.9H-9176c-10.5,0-19.1,8.6-19.1,19.1v76.5c0,10.5,8.6,19.1,19.1,19.1h132.2
			c10.5,0,19.1-8.6,19.1-19.1v-76.5C-9024.7-476.3-9033.3-484.9-9043.8-484.9z M-9109.9-391.4c-19.9,0-36.1-16.2-36.1-36.1
			c0-19.9,16.2-36.1,36.1-36.1c19.9,0,36.1,16.2,36.1,36.1C-9073.8-407.5-9090-391.4-9109.9-391.4z"/>
	</g>
	<path class="st4" d="M-8988.1-382.9c-5.8-4.5-11.3-6.6-15-8.1c-3.7-1.6-5.8-2.1-5.8-2.1s1.8,1.1,5.3,3.2c3.2,2.1,7.9,5.5,12.3,10.5
		c2.1,2.4,3.9,5.5,5,8.7c0.8,3.2,0.5,6.6-1.3,9.5c-3.4,6-11.6,10.5-20.2,13.9c-17.6,6.6-38.6,9.2-56.7,10.2
		c-7.1,0.5-13.9,0.5-20,0.5v28.1c7.1-0.8,15-2.1,23.4-3.7c19.4-4.2,41.2-10.5,60.2-21.8c4.7-2.9,9.2-6,13.1-9.7
		c3.9-3.7,7.4-8.1,9.2-13.7c1.8-5.3,1.3-11.3-1.1-15.5C-8982.1-377.9-8985.3-380.8-8988.1-382.9z"/>
	<path class="st4" d="M-9217-334.3c18.9,11.3,40.7,17.6,60.2,21.8c6.3,1.3,12.6,2.4,18.4,3.2v16.8l34.2-29.4l-34.2-29.4v14.4
		c-4.7,0-9.7-0.3-15-0.5c-18.1-1.1-39.1-3.4-56.7-10c-8.7-3.2-16.8-7.9-20.5-13.7c-1.8-2.9-2.4-6-1.3-9.5c0.8-3.2,2.6-6.3,4.7-8.7
		c4.2-5,8.9-8.1,12.3-10.5c3.2-2.1,5.3-3.2,5.3-3.2s-2.1,0.5-5.8,2.1c-3.7,1.6-8.9,3.7-15,8.1c-2.9,2.4-6,5.3-8.1,9.5
		c-2.1,4.2-2.6,10.2-0.8,15.5c1.8,5.3,5.5,9.7,9.5,13.7C-9226.2-340.3-9221.7-337.1-9217-334.3z"/>
</g>
<circle class="st7" cx="-8590" cy="-397.8" r="186.3"/>
<g>
	<g>
		<path class="st4" d="M-8649.4-318.5c7.1,0,12.8-5.7,12.8-12.8c0-7-5.7-12.8-12.8-12.8c-7,0-12.8,5.7-12.8,12.8
			C-8662.2-324.2-8656.5-318.5-8649.4-318.5z"/>
		<path class="st4" d="M-8649.4-315.8c-12.9,0-23.3,10.5-23.3,23.3v19.4h46.7v-19.4C-8626.1-305.4-8636.5-315.8-8649.4-315.8z"/>
	</g>
	<g>
		<path class="st4" d="M-8588.8-318.5c7.1,0,12.8-5.7,12.8-12.8c0-7-5.7-12.8-12.8-12.8c-7.1,0-12.8,5.7-12.8,12.8
			C-8601.6-324.2-8595.9-318.5-8588.8-318.5z"/>
		<path class="st4" d="M-8588.8-315.8c-12.9,0-23.3,10.5-23.3,23.3v19.4h46.7v-19.4C-8565.5-305.4-8575.9-315.8-8588.8-315.8z"/>
	</g>
	<g>
		<path class="st4" d="M-8528.2-318.5c7,0,12.8-5.7,12.8-12.8c0-7-5.7-12.8-12.8-12.8c-7.1,0-12.8,5.7-12.8,12.8
			C-8541-324.2-8535.2-318.5-8528.2-318.5z"/>
		<path class="st4" d="M-8528.2-315.8c-12.9,0-23.3,10.5-23.3,23.3v19.4h46.7v-19.4C-8504.8-305.4-8515.3-315.8-8528.2-315.8z"/>
	</g>
	<path class="st4" d="M-8498.3-484v93.4c0,10.7-9.4,19.5-21,19.5h-141.5c-11.6,0-21-8.8-21-19.5V-484c0-10.7,9.4-19.5,21-19.5h141.5
		C-8507.7-503.5-8498.3-494.7-8498.3-484z"/>
</g>
<circle class="st8" cx="-5990" cy="-397.8" r="186.3"/>
<path class="st4" d="M-5864.4-461.7v127.9c0,14.7-12.9,26.6-28.8,26.6h-193.7c-15.9,0-28.8-12-28.8-26.6v-127.9
	c0-14.7,12.9-26.6,28.8-26.6h193.7C-5877.3-488.4-5864.4-476.4-5864.4-461.7z"/>
<path class="st8" d="M-5882-399.1v60.7c0,7-6.1,12.7-13.7,12.7h-92c-7.5,0-13.7-5.7-13.7-12.7v-60.7c0-7,6.1-12.7,13.7-12.7h92
	C-5888.1-411.8-5882-406.1-5882-399.1z"/>
<circle class="st0" cx="-8070" cy="-397.8" r="186.3"/>
<g>
	<path class="st4" d="M-8065.7-493.2c-0.9-0.4-2-0.3-2.8,0.4l-61.3,51.1h-61.1c-1.4,0-2.6,1.2-2.6,2.6v82.7c0,1.4,1.2,2.6,2.6,2.6
		h61.1l61.3,51.1c0.5,0.4,1.1,0.6,1.7,0.6c0.4,0,0.8-0.1,1.1-0.2c0.9-0.4,1.5-1.3,1.5-2.3v-186.1
		C-8064.2-491.8-8064.8-492.8-8065.7-493.2z"/>
	<path class="st6" d="M-8018.7-429.6c-1,1-1,2.6,0,3.7c7.3,7.3,11.4,17.1,11.4,27.4c0,10.4-4,20.1-11.4,27.4c-1,1-1,2.6,0,3.7
		c0.5,0.5,1.2,0.8,1.8,0.8c0.7,0,1.3-0.3,1.8-0.8c8.3-8.3,12.9-19.3,12.9-31.1s-4.6-22.8-12.9-31.1
		C-8016.1-430.6-8017.7-430.6-8018.7-429.6z"/>
	<path class="st6" d="M-7993.1-451.5c-1-1-2.6-1-3.7,0c-1,1-1,2.6,0,3.7c27.2,27.2,27.2,71.5,0,98.7c-1,1-1,2.6,0,3.7
		c0.5,0.5,1.2,0.8,1.8,0.8c0.7,0,1.3-0.3,1.8-0.8c14.2-14.2,22-33,22-53C-7971.2-418.5-7979-437.3-7993.1-451.5z"/>
	<path class="st6" d="M-7971.2-473.5c-1-1-2.6-1-3.7,0c-1,1-1,2.6,0,3.7c39.3,39.3,39.3,103.3,0,142.6c-1,1-1,2.6,0,3.7
		c0.5,0.5,1.2,0.8,1.8,0.8c0.7,0,1.3-0.3,1.8-0.8C-7929.9-364.9-7929.9-432.1-7971.2-473.5z"/>
</g>
<circle class="st9" cx="-9629.3" cy="-397.8" r="186.3"/>
<g>
	<path class="st4" d="M-9727.6-408.8l73.4,42.4c0.8,0.5,1.8,0.5,2.5,0l73.4-42.4c0.8-0.5,0.8-1.7,0-2.2l-73.4-42.4
		c-0.8-0.5-1.8-0.5-2.5,0l-73.4,42.4C-9728.5-410.5-9728.5-409.3-9727.6-408.8z"/>
	<g>
		<path class="st4" d="M-9524.6-494l-73.4-42.4c-0.8-0.5-1.8-0.5-2.5,0l-43.4,76.3c-0.8,0.5-0.8,1.7,0,2.2l73.4,42.4
			c0.8,0.5,1.8,0.5,2.5,0l43.4-76.3C-9523.7-492.3-9523.7-493.5-9524.6-494z M-9560.8-476.8c-1.4,2.5-2.9,5-4.3,7.4
			c-1.2,2-2.5,2.3-4.5,1.2c-1.1-0.6-1.1-0.6-1.8,0.5c-0.8,1.3-1.6,2.6-2.3,3.9c-0.6,1.1-1.5,1.7-2.8,1.8c-2.7,0.2-5.4,0.3-8.1,0.5
			c-1.9,0.2-3.9,0.1-5.8,0.4c-0.6,0.1-0.9,0.3-1.2,0.8c-2.5,4.4-5.1,8.7-7.6,13.1c-0.2,0.3-0.3,0.6-0.5,0.9
			c-0.9,1.2-2.4,1.6-3.7,0.9c-1.3-0.7-1.9-2.4-1.2-3.7c0.9-1.7,1.9-3.4,2.9-5.1c0.1-0.2,0.2-0.4,0.3-0.6c0.5-0.7,0.5-1.4,0.1-2.3
			c-1.9-3.8-3.7-7.6-5.6-11.3c-0.9-1.7-0.9-3.1,0.2-4.6c0.8-1.2,1.4-2.5,2.2-3.7c0.5-0.9,0.6-1.6,0.1-2.5c-2.1-3.9-0.1-8.1,2.7-9.7
			c2.5-1.4,5.1-1.5,7.6-0.1c2.3,1.4,3.6,3.4,3.7,6.2c0.2,3.5-2.4,7.5-7.3,7.7c-0.9,0-1.3,0.3-1.7,1.1c-0.5,1-1.1,1.9-1.6,2.8
			c-0.2,0.4-0.4,0.7-0.2,1.2c1.3,2.5,2.5,5.1,3.8,7.6c0,0.1,0.1,0.1,0.2,0.1c0.7-0.7,20-33.7,20.3-34.9c-0.5,0-0.9,0.3-1.3,0.5
			c-0.7,0.3-1.4,0.6-2.1,0.5c-1.3,0-2.3-0.7-2.6-1.8c-0.4-1.5-0.1-2.5,1.1-3.4c0.2-0.2,0.5-0.3,0.8-0.4c3.3-1.4,6.6-2.8,9.9-4.2
			c0.6-0.3,1.3-0.5,2-0.4c1.4,0.3,2.1,1.1,2.3,2.6c0.3,2.3,0.5,4.6,0.8,6.9c0.1,1.1,0.3,2.2,0.4,3.4c0.1,0.5,0.1,1,0.1,1.4
			c0,1.4-1,2.6-2.4,2.8c-1.4,0.2-2.6-0.6-3.1-2c-0.2-0.5-0.2-1-0.2-1.5c-0.1-0.5-0.2-0.9-0.3-1.7c-5.4,9.2-10.6,18.2-16,27.5
			c2.2-0.3,4-0.2,5.9-0.4c0.9-0.1,1.8-0.2,2.7-0.2c0.7,0,1.1-0.2,1.5-0.8c0.5-0.9,1-1.7,1.5-2.6c0.4-0.6,0.3-1-0.3-1.2
			c-0.2-0.1-0.4-0.3-0.7-0.4c-1.4-0.9-1.9-2.5-1.1-3.9c1.2-2.1,2.4-4.2,3.7-6.3c0.3-0.5,0.5-1,0.8-1.5c1-1.5,2.5-2,4.1-1.1
			c2.7,1.5,5.3,3,7.9,4.6C-9560.3-479.9-9559.9-478.3-9560.8-476.8z"/>
		<path class="st4" d="M-9567.5-477.5c-0.7-0.4-1.4-0.8-2.1-1.3c-0.4-0.2-0.6,0-0.7,0.2c-0.4,0.7-0.8,1.3-1.2,2
			c-0.2,0.3-0.1,0.6,0.2,0.7c0.7,0.4,1.3,0.8,2,1.2c0.2,0.1,0.5,0.2,0.6,0c0.5-0.8,1-1.6,1.4-2.4
			C-9567.2-477.3-9567.4-477.4-9567.5-477.5z"/>
		<path class="st4" d="M-9597.9-480.8c1,0,1.7-0.8,1.7-1.8c0-0.9-0.9-1.8-1.7-1.8c-0.9,0-1.7,0.9-1.7,1.8
			C-9599.6-481.7-9598.7-480.8-9597.9-480.8z"/>
	</g>
	<path class="st4" d="M-9573.7-401.1l-73.5,42.4c-0.8,0.5-1.3,1.3-1.3,2.2v84.4c0,1,1.1,1.6,1.9,1.1l73.6-42.5
		c0.8-0.5,1.3-1.3,1.3-2.2V-400C-9571.8-401-9572.9-401.6-9573.7-401.1z M-9618.3-313.7c-0.8,0.6-1.6,0.9-2.7,1.5
		c0-0.5-0.1-0.8-0.1-1.1c0-5,0-10,0-15c0-0.9,0.2-1.4,1-1.7c0.5-0.2,1-0.6,1.5-0.8c1.9-0.7,3.4,0.1,3.5,2.3c0,0.8,0,1.6,0,2.3
		c0,2.2,0,4.3,0,6.5C-9615-317.1-9616.2-315.1-9618.3-313.7z M-9587.4-333.7c-0.9,1.3-2,2.4-3.2,3.5c-0.3,0.3-0.6,0.7-0.7,1.2
		c-1.4,5.3-4.6,9.2-9.4,11.8c-0.2,0.1-0.4,0.2-0.6,0.3c-1.7,0.9-3.2,1.8-4,3.7c-0.7,1.7-2.1,2.9-3.6,3.8c-0.9,0.6-1.9,1-3,0.9
		c-1.5-0.1-2.6-1.2-2.7-2.7c-0.5-4.2,3.5-8.6,6.5-9.4c1.1-0.3,2.1-0.2,2.9,0.5c0.5,0.4,0.8,0.3,1.3,0.1c1.3-0.7,2.6-1.4,3.8-2.2
		c2-1.3,3.5-3,4.2-5.3c0.2-0.6,0.3-1.3,0.3-1.9c0-6.4,0-12.9,0-19.3c0-0.8-0.1-1.6-0.3-2.5c-1-4.2-4.4-5.5-7.8-5
		c-3.2,0.5-6,2.1-8.5,4.1c-4.9,3.9-8.3,8.9-10.2,14.8c-0.6,1.9-0.9,3.8-0.9,5.8c0,3.1,0,6.2,0,9.3c0,3.4,0,6.8,0,10.2
		c0,1-0.4,1.6-1.3,2c-1.3,0.6-2.7,1.1-4.1,1.3c-2.7,0.3-5.3-0.9-5.4-4.5c0-1.8,0.4-3.4,1.1-5c1-2.4,2.5-4.5,4.4-6.2
		c0.6-0.5,0.8-1.1,0.7-1.8c-0.1-2.4,0-4.9,0.4-7.3c0.5-3.4,1.8-6.5,3.3-9.4c2.3-4.3,5.3-8.1,8.9-11.3c3.4-3,7.2-5.4,11.7-6.4
		c2.2-0.5,4.4-0.5,6.5,0.4c3.3,1.4,4.9,4,5.5,7.4c0.4,1.9,0.2,3.9,0.2,5.9c0,1.1,0,1.1,1.1,0.9c2.7-0.4,5,1.6,5.2,4.2
		C-9584.4-338.9-9585.6-336.2-9587.4-333.7z M-9603.4-334.8c0-3.3,1.4-5.7,4.3-7.2c0.5-0.2,0.9-0.5,1.4-0.7c0,0,0.1,0,0.3,0
		c0,0.3,0,0.6,0,0.9c0,5,0,10,0,15c0,0.8-0.2,1.3-0.9,1.7c-0.9,0.4-1.6,1-2.6,1.1c-1.2,0-2-0.5-2.3-1.7c-0.1-0.6-0.2-1.1-0.2-1.7
		C-9603.4-329.8-9603.4-332.3-9603.4-334.8z"/>
	<g>
		<path class="st4" d="M-9698-331.1c1.9,1.7,4,3,6.6,3.5c2.1,0.4,4-0.7,4.8-2.7c0.3-0.8,0.4-1.6,0.3-2.4c0.1-1.2-0.2-2.4-0.5-3.5
			c-1.3-4.1-3.7-7.4-7-10.1c-1.7-1.4-3.5-2.4-5.7-2.8c-1.6-0.3-4,0.1-4.8,2.6c-0.4,1.2-0.6,2.3-0.4,3.6
			C-9704-338.2-9701.5-334.3-9698-331.1z M-9698.9-340.3c0.1-1.2,0.9-1.9,2.4-1.8c0.8,0.1,1.7,0.7,2.4,1.4c0.9,0.9,1.6,2.1,1.8,3.4
			c0.3,1.7-0.9,3.2-2.9,2.6C-9697.2-335.5-9699-338.1-9698.9-340.3z"/>
		<path class="st4" d="M-9658.5-358.5l-73.5-42.4c-0.8-0.5-1.9,0.1-1.9,1.1v84.3c0,0.9,0.5,1.7,1.3,2.2l73.6,42.5
			c0.8,0.5,1.9-0.1,1.9-1.1v-84.4C-9657.2-357.3-9657.7-358.1-9658.5-358.5z M-9713.3-355.9c1.4-3.3,4.5-5.4,8.1-5.5
			c3.4-0.1,6.4,1,9.3,2.6c6.5,3.7,11.3,9,15,15.5c1.9,3.3,3.2,6.7,3.9,10.5c0.2,1.2,0.4,2.5,0.4,3.8c-0.1,2.1-0.3,4.2-1.3,6.2
			c-1.6,3.1-4.3,4.7-7.8,4.9c-2.6,0.1-5-0.5-7.3-1.6c-3.3-1.5-6.2-3.5-8.8-6c-3.7-3.5-6.7-7.5-9-12c-1.7-3.3-2.9-6.7-3.2-10.4
			C-9714.5-350.8-9714.4-353.4-9713.3-355.9z M-9674.4-304.1c-0.5,0.5-1,0.4-1.6,0.2c-0.9-0.5-1.8-1-2.6-1.5
			c-5.7-3.3-11.3-6.6-17-9.9c-6.5-3.8-13.1-7.6-19.6-11.4c-0.9-0.5-1.5-1.3-1.9-2.3c-0.3-0.8,0-1.6,0.7-1.9c1.8-0.8,3.7-1.5,5.5-2.3
			c0.2-0.1,0.4-0.1,0.5-0.1c0.8,0,1.1,0.4,1.4,0.8c1.1,1.8,2.4,3.4,3.8,4.9c4.2,4.7,9,8.6,15.1,10.6c2.7,0.9,5.4,1.2,8.2,0.4
			c0.6-0.2,1,0,1.4,0.4c0.3,0.3,0.5,0.7,0.8,1.1c1.7,2.6,3.4,5.3,5,7.9c0.3,0.4,0.5,0.9,0.7,1.4
			C-9673.8-305-9673.9-304.5-9674.4-304.1z"/>
	</g>
</g>
<g>
	<path class="st4" d="M-7163.7-411.3l110.1,63.6c1.2,0.7,2.6,0.7,3.8,0l110.1-63.6c1.3-0.7,1.3-2.6,0-3.3l-110.1-63.6
		c-1.2-0.7-2.6-0.7-3.8,0l-110.1,63.6C-7165-413.9-7165-412-7163.7-411.3z"/>
	<g>
		<path class="st4" d="M-6859.1-539.2l-110.1-63.6c-1.2-0.7-2.6-0.7-3.8,0l-65.1,114.5c-1.3,0.7-1.3,2.6,0,3.3l110.1,63.6
			c1.2,0.7,2.6,0.7,3.8,0l65.1-114.5C-6857.9-536.6-6857.9-538.5-6859.1-539.2z M-6913.4-513.4c-2.1,3.7-4.3,7.5-6.5,11.2
			c-1.8,3-3.7,3.5-6.7,1.9c-1.7-0.9-1.7-0.9-2.7,0.7c-1.2,2-2.3,3.9-3.5,5.9c-0.9,1.7-2.2,2.5-4.2,2.7c-4,0.3-8.1,0.4-12.1,0.8
			c-2.9,0.3-5.9,0.1-8.8,0.6c-0.9,0.1-1.4,0.4-1.8,1.2c-3.8,6.6-7.6,13.1-11.4,19.6c-0.3,0.5-0.5,0.9-0.8,1.3
			c-1.4,1.9-3.6,2.4-5.6,1.3c-1.9-1.1-2.8-3.5-1.7-5.6c1.3-2.6,2.9-5.1,4.3-7.7c0.2-0.3,0.3-0.6,0.5-0.8c0.8-1.1,0.8-2.2,0.2-3.4
			c-2.9-5.6-5.5-11.4-8.4-17c-1.3-2.5-1.3-4.6,0.3-6.9c1.2-1.8,2.2-3.7,3.3-5.5c0.8-1.3,0.9-2.4,0.1-3.8c-3.2-5.9-0.1-12.2,4.1-14.5
			c3.7-2.1,7.6-2.3,11.4-0.1c3.5,2,5.3,5.2,5.6,9.3c0.3,5.2-3.5,11.2-11,11.5c-1.3,0.1-2,0.4-2.6,1.6c-0.7,1.5-1.6,2.8-2.5,4.2
			c-0.3,0.6-0.6,1.1-0.2,1.8c1.9,3.8,3.8,7.6,5.7,11.4c0,0.1,0.2,0.1,0.3,0.2c1.1-1,29.9-50.6,30.4-52.3c-0.8,0-1.4,0.5-2,0.7
			c-1,0.4-2,0.8-3.2,0.8c-1.9-0.1-3.5-1-3.9-2.7c-0.5-2.3-0.1-3.8,1.6-5c0.4-0.3,0.8-0.4,1.2-0.6c4.9-2.1,9.8-4.2,14.8-6.2
			c1-0.4,1.9-0.8,3-0.5c2,0.4,3.2,1.7,3.5,3.9c0.5,3.4,0.8,6.9,1.2,10.3c0.2,1.7,0.4,3.4,0.6,5c0.1,0.7,0.1,1.4,0.1,2.1
			c0,2.2-1.5,3.9-3.6,4.2c-2,0.3-4-0.9-4.7-3c-0.3-0.8-0.3-1.5-0.4-2.3c-0.1-0.7-0.3-1.4-0.5-2.5c-8.1,13.8-15.9,27.3-24,41.3
			c3.3-0.5,6.1-0.3,8.9-0.6c1.4-0.1,2.7-0.2,4.1-0.2c1,0,1.7-0.3,2.2-1.3c0.7-1.3,1.5-2.6,2.3-3.9c0.5-0.9,0.4-1.4-0.5-1.9
			c-0.4-0.2-0.7-0.4-1-0.6c-2.1-1.3-2.8-3.7-1.6-5.9c1.8-3.2,3.7-6.3,5.5-9.5c0.4-0.7,0.8-1.5,1.2-2.2c1.4-2.3,3.7-3,6.1-1.7
			c4,2.2,7.9,4.5,11.8,6.9C-6912.7-518-6912.2-515.6-6913.4-513.4z"/>
		<path class="st4" d="M-6923.5-514.4c-1-0.6-2.1-1.3-3.2-1.9c-0.5-0.3-0.9,0-1.1,0.4c-0.6,1-1.2,2-1.8,3c-0.3,0.5-0.1,0.8,0.3,1.1
			c1,0.6,2,1.2,3,1.7c0.3,0.2,0.7,0.3,0.9,0c0.8-1.2,1.6-2.4,2.1-3.5C-6923.1-514.1-6923.3-514.3-6923.5-514.4z"/>
		<path class="st4" d="M-6969.1-519.4c1.5-0.1,2.5-1.1,2.5-2.6c0-1.4-1.3-2.7-2.6-2.6c-1.4,0.1-2.6,1.3-2.6,2.7
			C-6971.7-520.7-6970.3-519.3-6969.1-519.4z"/>
	</g>
	<path class="st4" d="M-6932.8-399.8l-110.3,63.6c-1.2,0.7-1.9,1.9-1.9,3.3v126.7c0,1.5,1.6,2.4,2.9,1.6l110.3-63.8
		c1.2-0.7,1.9-1.9,1.9-3.3v-126.5C-6930-399.6-6931.6-400.6-6932.8-399.8z M-6999.7-268.6c-1.1,0.8-2.5,1.4-4,2.3
		c0-0.8-0.1-1.3-0.1-1.7c0-7.5,0-15,0-22.5c0-1.3,0.3-2.1,1.5-2.6c0.8-0.3,1.4-0.9,2.2-1.2c2.9-1.1,5.1,0.1,5.2,3.4
		c0,1.2,0,2.3,0,3.5c0,3.3,0,6.5,0,9.8C-6994.7-273.7-6996.6-270.9-6999.7-268.6z M-6953.3-298.7c-1.4,1.9-3,3.6-4.7,5.2
		c-0.5,0.5-0.9,1-1.1,1.8c-2,8-6.8,13.8-14.1,17.6c-0.3,0.2-0.6,0.3-0.9,0.5c-2.5,1.3-4.8,2.7-5.9,5.5c-1,2.5-3.1,4.3-5.4,5.8
		c-1.3,0.8-2.8,1.4-4.4,1.3c-2.3-0.2-3.8-1.8-4.1-4c-0.7-6.3,5.2-12.9,9.8-14.1c1.6-0.4,3.1-0.4,4.4,0.7c0.7,0.6,1.2,0.5,1.9,0.1
		c1.9-1.1,3.9-2.2,5.8-3.3c3-1.9,5.2-4.5,6.3-8c0.3-0.9,0.5-1.9,0.5-2.9c0-9.7,0-19.3,0-29c0-1.2-0.1-2.5-0.4-3.7
		c-1.5-6.3-6.6-8.3-11.7-7.5c-4.8,0.8-9,3.1-12.7,6.1c-7.3,5.9-12.4,13.3-15.3,22.2c-0.9,2.8-1.4,5.7-1.4,8.6c0,4.6,0,9.3,0,13.9
		c0,5.1-0.1,10.2,0,15.3c0,1.6-0.6,2.4-1.9,3c-2,0.9-4,1.6-6.1,1.9c-4.1,0.5-7.9-1.4-8-6.8c-0.1-2.7,0.7-5.2,1.7-7.6
		c1.6-3.6,3.8-6.7,6.7-9.3c0.9-0.8,1.1-1.6,1.1-2.7c-0.1-3.6,0.1-7.3,0.6-10.9c0.8-5,2.6-9.7,5-14.1c3.4-6.5,7.9-12.1,13.3-17
		c5.1-4.5,10.7-8.1,17.5-9.6c3.3-0.7,6.6-0.7,9.8,0.6c4.9,2.1,7.3,6.1,8.2,11.1c0.5,2.9,0.3,5.9,0.4,8.8c0,1.7,0,1.6,1.6,1.4
		c4.1-0.6,7.5,2.3,7.8,6.3C-6948.9-306.5-6950.7-302.5-6953.3-298.7z M-6977.4-300.3c0-4.9,2.1-8.5,6.4-10.8
		c0.7-0.4,1.4-0.7,2.1-1.1c0,0,0.1,0,0.4,0.1c0,0.5,0.1,0.9,0.1,1.4c0,7.5,0,15,0,22.5c0,1.2-0.3,2-1.4,2.5
		c-1.3,0.6-2.4,1.5-3.9,1.6c-1.8,0.1-2.9-0.8-3.4-2.5c-0.2-0.8-0.3-1.7-0.3-2.5C-6977.4-292.9-6977.4-296.6-6977.4-300.3z"/>
	<g>
		<path class="st4" d="M-7119.3-294.8c2.8,2.6,6.1,4.5,9.9,5.2c3.2,0.6,6.1-1.1,7.2-4.1c0.4-1.2,0.6-2.4,0.5-3.6
			c0.1-1.8-0.3-3.5-0.8-5.2c-1.9-6.1-5.6-11.2-10.5-15.2c-2.5-2.1-5.3-3.6-8.5-4.1c-2.4-0.4-6,0.2-7.3,3.8c-0.6,1.7-0.9,3.5-0.6,5.4
			C-7128.3-305.4-7124.6-299.6-7119.3-294.8z M-7120.6-308.6c0.1-1.7,1.3-2.8,3.7-2.8c1.1,0.1,2.5,1,3.7,2.2
			c1.4,1.4,2.4,3.1,2.7,5.1c0.4,2.6-1.3,4.9-4.3,3.8C-7118-301.3-7120.8-305.3-7120.6-308.6z"/>
		<path class="st4" d="M-7060-336l-110.3-63.6c-1.3-0.7-2.9,0.2-2.9,1.6v126.5c0,1.4,0.7,2.6,1.9,3.3l110.3,63.8
			c1.3,0.7,2.9-0.2,2.9-1.6v-126.7C-7058.1-334-7058.8-335.3-7060-336z M-7142.3-332.1c2.1-5,6.7-8.1,12.2-8.3
			c5.1-0.2,9.6,1.4,14,3.9c9.7,5.5,17,13.5,22.4,23.2c2.8,4.9,4.8,10.1,5.8,15.7c0.3,1.9,0.7,3.7,0.6,5.6c-0.1,3.2-0.5,6.4-2,9.3
			c-2.5,4.7-6.4,7-11.7,7.3c-3.9,0.2-7.5-0.8-11-2.3c-4.9-2.2-9.3-5.3-13.2-9c-5.6-5.2-10.1-11.3-13.6-18.1
			c-2.5-4.9-4.3-10.1-4.9-15.6C-7144-324.3-7143.9-328.2-7142.3-332.1z M-7083.8-254.3c-0.7,0.7-1.6,0.7-2.4,0.2
			c-1.3-0.7-2.6-1.4-3.9-2.2c-8.5-5-17-9.9-25.5-14.9c-9.8-5.7-19.6-11.4-29.4-17.1c-1.4-0.8-2.3-1.9-2.8-3.4c-0.4-1.2,0-2.4,1-2.9
			c2.8-1.2,5.5-2.3,8.3-3.5c0.3-0.1,0.6-0.1,0.7-0.1c1.2,0,1.7,0.6,2.1,1.2c1.7,2.6,3.7,5.1,5.8,7.4c6.3,7,13.5,12.9,22.6,16
			c4,1.3,8.1,1.8,12.3,0.6c0.9-0.3,1.5,0,2.1,0.6c0.4,0.5,0.8,1,1.1,1.6c2.5,4,5,7.9,7.5,11.9c0.4,0.7,0.8,1.4,1,2.1
			C-7083-255.7-7083.2-254.9-7083.8-254.3z"/>
	</g>
</g>
<circle class="st4" cx="-7550" cy="-398.1" r="186.3"/>
<g>
	<path class="st1" d="M-7648.2-402.6l72.9,42.1c0.8,0.5,1.7,0.5,2.5,0l72.9-42.1c0.8-0.5,0.8-1.7,0-2.2l-72.9-42.1
		c-0.8-0.5-1.7-0.5-2.5,0l-72.9,42.1C-7649-404.3-7649-403.1-7648.2-402.6z"/>
	<path class="st10" d="M-7565.1-451.4l72.9,42.1c0.8,0.5,1.7,0.5,2.5,0l43.1-75.8c0.8-0.5,0.8-1.7,0-2.2l-72.9-42.1
		c-0.8-0.5-1.7-0.5-2.5,0l-43.1,75.8C-7565.9-453.1-7565.9-451.9-7565.1-451.4z"/>
	<path class="st11" d="M-7653.2-307.9l73,42.2c0.8,0.5,1.9-0.1,1.9-1.1v-83.9c0-0.9-0.5-1.7-1.3-2.2l-73-42.1
		c-0.8-0.5-1.9,0.1-1.9,1.1v83.7C-7654.5-309.1-7654-308.3-7653.2-307.9z"/>
	<path class="st10" d="M-7494.7-308l-73,42.2c-0.8,0.5-1.9-0.1-1.9-1.1v-83.9c0-0.9,0.5-1.7,1.3-2.2l73-42.1
		c0.8-0.5,1.9,0.1,1.9,1.1v83.7C-7493.5-309.3-7493.9-308.5-7494.7-308z"/>
	<g>
		<defs>
			<path id="SVGID_1_" d="M-7648.2-402.6l72.9,42.1c0.8,0.5,1.7,0.5,2.5,0l72.9-42.1c0.8-0.5,0.8-1.7,0-2.2l-72.9-42.1
				c-0.8-0.5-1.7-0.5-2.5,0l-72.9,42.1C-7649-404.3-7649-403.1-7648.2-402.6z"/>
		</defs>
		<clipPath id="SVGID_2_">
			<use xlink:href="#SVGID_1_"  style="overflow:visible;"/>
		</clipPath>
		<rect x="-7666.7" y="-450.6" class="st12" width="92.7" height="94.8"/>
	</g>
	<path class="st5" d="M-7537-323.1v9.5c0,1.8-1.4,4-3.2,5l-1.6,0.9c0-5.3,0-10.6,0-15.9l1.6-0.9
		C-7538.4-325.5-7537-324.8-7537-323.1z M-7506.7-335.5c0-3.8-2.7-5.5-6.4-4.1v-5.1c0-9.7-7.9-13-17.5-7.5
		c-9.7,5.5-17.5,17.9-17.5,27.5v5.1c-3.6,2.8-6.4,7.6-6.4,11.4c0,4.9,4.8,5.1,9.5,2.3c0-7.4,0-13.3,0-20.7c0-7.9,6.4-18,14.3-22.5
		c7.9-4.5,14.3-1.8,14.3,6.1c0,2.9,0,17.2,0,19.1c0,2.6-2.1,6-4.8,7.5l-5.1,2.9c-0.7-1.5-2.4-1.8-4.5-0.6c-2.6,1.5-4.8,4.9-4.8,7.5
		c0,2.6,2.1,3.5,4.8,2c2.1-1.2,3.8-3.5,4.5-5.8l5.1-2.9c4-2.3,7.3-7.1,7.8-11.3C-7509.7-327.4-7506.7-331.6-7506.7-335.5z
		 M-7519.5-320.4c0-3.2,0-12.7,0-15.9l-1.6,0.9c-1.8,1-3.2,3.2-3.2,5v9.5c0,1.8,1.4,2.4,3.2,1.4L-7519.5-320.4z"/>
	<path class="st9" d="M-7616.4-352.1c-10-5.8-18.1-2.4-18.1,7.6s8.1,22.9,18.1,28.7s18.1,2.4,18.1-7.6S-7606.4-346.3-7616.4-352.1z
		 M-7616.4-322.8c-5.4-3.1-9.8-10.1-9.8-15.4s4.4-7.2,9.8-4.1s9.8,10.1,9.8,15.4C-7606.6-321.5-7611-319.7-7616.4-322.8z
		 M-7613.6-331c0,1.5-1.2,2.1-2.8,1.2s-2.8-2.9-2.8-4.4c0-1.5,1.2-2.1,2.8-1.2S-7613.6-332.5-7613.6-331z M-7595.9-300.7
		c0.9,1.4,0.3,2.5-1,1.8l-39-22.7c-1.2-0.7-1.9-2.6-1-3l5.6-2.3c0.2-0.1,0.5,0,0.8,0.1c3.7,5.6,8.7,10.6,14.1,13.8
		c5.4,3.2,10.4,3.9,14.1,2.7c0.3,0.2,0.6,0.5,0.8,0.8L-7595.9-300.7z"/>
	<path class="st7" d="M-7483.7-473.7l-7.9-4.6c-1.1-0.6-2.5-0.3-3.1,0.8l-4.6,7.9c-0.6,1.1-0.3,2.5,0.8,3.1l2,1.1l-2.8,4.9
		l-10.9,0.7l17.3-29.8l0.5,4.5c0.1,1.2,1.3,2.1,2.5,2c1.2-0.1,2.1-1.3,2-2.5l-1.3-11.3c0,0,0-0.1,0-0.1c-0.2-1.4-1.6-2.2-3-1.7
		c0,0-0.1,0-0.1,0l-10.5,4.5c-1.2,0.5-1.7,1.8-1.2,3c0.5,1.2,1.8,1.7,3,1.2l4.2-1.8l-21.9,37.7l-4.8-9.8l3-5.2
		c2.8,0.5,5.7-0.7,7.2-3.3c1.9-3.3,0.8-7.5-2.5-9.3c-3.3-1.9-7.5-0.8-9.3,2.5c-1.5,2.6-1.1,5.7,0.7,7.8l-3.6,6.3
		c-0.4,0.7-0.4,1.5-0.1,2.1l6.7,13.7l-4,6.8c-0.6,1.1-0.3,2.5,0.8,3.1c1.1,0.6,2.5,0.3,3.1-0.8l8.5-14.7l15.2-0.9
		c0.8,0,1.4-0.5,1.8-1.1l3.4-5.9l2,1.1c1.1,0.6,2.5,0.3,3.1-0.8l4.6-7.9C-7482.2-471.7-7482.6-473.1-7483.7-473.7z M-7518.2-477.9
		c1.1,0.6,1.5,2,0.8,3.1s-2,1.5-3.1,0.8s-1.5-2-0.8-3.1S-7519.3-478.5-7518.2-477.9z M-7490.3-467l-3.9-2.3l2.3-3.9l3.9,2.3
		L-7490.3-467z"/>
</g>
<g>
	<path class="st1" d="M-6657-405.2l109.4,63.1c1.2,0.7,2.6,0.7,3.8,0l109.4-63.1c1.3-0.7,1.3-2.5,0-3.3l-109.4-63.1
		c-1.2-0.7-2.6-0.7-3.8,0l-109.4,63.1C-6658.3-407.7-6658.3-405.9-6657-405.2z"/>
	<path class="st10" d="M-6532.3-478.4l109.4,63.1c1.2,0.7,2.6,0.7,3.8,0l64.6-113.7c1.3-0.7,1.3-2.5,0-3.3l-109.4-63.1
		c-1.2-0.7-2.6-0.7-3.8,0l-64.6,113.7C-6533.6-480.9-6533.6-479.1-6532.3-478.4z"/>
	<path class="st11" d="M-6664.5-263l109.6,63.4c1.3,0.7,2.8-0.2,2.8-1.6v-125.8c0-1.4-0.7-2.6-1.9-3.3l-109.6-63.2
		c-1.3-0.7-2.8,0.2-2.8,1.6v125.6C-6666.4-264.9-6665.7-263.7-6664.5-263z"/>
	<path class="st10" d="M-6426.8-263.2l-109.6,63.4c-1.3,0.7-2.8-0.2-2.8-1.6v-125.8c0-1.4,0.7-2.6,1.9-3.3l109.6-63.2
		c1.3-0.7,2.8,0.2,2.8,1.6v125.6C-6424.9-265.2-6425.6-263.9-6426.8-263.2z"/>
	<g>
		<defs>
			<path id="SVGID_3_" d="M-6657-405.2l109.4,63.1c1.2,0.7,2.6,0.7,3.8,0l109.4-63.1c1.3-0.7,1.3-2.5,0-3.3l-109.4-63.1
				c-1.2-0.7-2.6-0.7-3.8,0l-109.4,63.1C-6658.3-407.7-6658.3-405.9-6657-405.2z"/>
		</defs>
		<clipPath id="SVGID_4_">
			<use xlink:href="#SVGID_3_"  style="overflow:visible;"/>
		</clipPath>
		<rect x="-6684.8" y="-477.2" class="st13" width="139" height="142.2"/>
	</g>
	<path class="st5" d="M-6490.2-285.8v14.3c0,2.6-2.1,6-4.8,7.5l-2.4,1.4c0-8,0-15.9,0-23.9l2.4-1.4
		C-6492.3-289.4-6490.2-288.5-6490.2-285.8z M-6444.8-304.4c0-5.8-4.1-8.2-9.5-6.2v-7.6c0-14.5-11.8-19.5-26.3-11.2
		c-14.5,8.3-26.3,26.8-26.3,41.3v7.6c-5.4,4.2-9.5,11.4-9.5,17.2c0,7.4,7.2,7.6,14.3,3.5c0-11.1,0-20,0-31c0-11.8,9.6-27,21.5-33.8
		c11.8-6.8,21.5-2.7,21.5,9.2c0,4.3,0,25.7,0,28.6c0,3.9-3.2,9-7.2,11.3l-7.6,4.4c-1-2.2-3.6-2.7-6.7-0.9c-3.9,2.3-7.2,7.3-7.2,11.3
		s3.2,5.3,7.2,3.1c3.1-1.8,5.7-5.3,6.7-8.6l7.6-4.4c6-3.4,10.9-10.7,11.8-16.9C-6449.2-292.3-6444.8-298.7-6444.8-304.4z
		 M-6463.9-281.8c0-4.8,0-19,0-23.9l-2.4,1.4c-2.6,1.5-4.8,4.9-4.8,7.5v14.3c0,2.6,2.1,3.5,4.8,2L-6463.9-281.8z"/>
	<path class="st9" d="M-6609.3-329.4c-15-8.7-27.2-3.6-27.2,11.4c0,15,12.2,34.3,27.2,43s27.2,3.6,27.2-11.4
		C-6582.1-301.4-6594.3-320.7-6609.3-329.4z M-6609.3-285.5c-8.1-4.7-14.6-15.1-14.6-23.2c0-8.1,6.6-10.8,14.6-6.1
		s14.6,15.1,14.6,23.2C-6594.6-283.5-6601.2-280.8-6609.3-285.5z M-6605.1-297.7c0,2.3-1.9,3.1-4.2,1.7s-4.2-4.3-4.2-6.6
		s1.9-3.1,4.2-1.7S-6605.1-300-6605.1-297.7z M-6578.5-252.3c1.3,2.1,0.4,3.8-1.5,2.7l-58.6-34.1c-1.9-1.1-2.8-3.9-1.5-4.4l8.4-3.5
		c0.3-0.1,0.8-0.1,1.2,0.1c5.6,8.4,13,15.9,21.2,20.7c8.2,4.8,15.6,5.9,21.2,4c0.4,0.3,0.9,0.7,1.2,1.3L-6578.5-252.3z"/>
	<path class="st7" d="M-6410.3-511.8l-11.8-6.9c-1.6-0.9-3.7-0.4-4.7,1.2l-6.9,11.8c-0.9,1.6-0.4,3.7,1.2,4.7l3,1.7l-4.2,7.3
		l-16.4,1l26-44.7l0.8,6.8c0.2,1.9,1.9,3.2,3.8,3c1.9-0.2,3.2-1.9,3-3.8l-2-17c0-0.1-0.1-0.1-0.1-0.2c-0.4-2.1-2.4-3.3-4.5-2.6
		c-0.1,0-0.1,0-0.2,0l-15.7,6.7c-1.7,0.7-2.5,2.7-1.8,4.5c0.7,1.7,2.7,2.6,4.5,1.8l6.3-2.7l-32.8,56.6l-7.2-14.7l4.5-7.8
		c4.1,0.8,8.5-1,10.7-4.9c2.8-4.9,1.2-11.2-3.7-14c-4.9-2.8-11.2-1.2-14,3.7c-2.2,3.8-1.6,8.5,1.1,11.8l-5.5,9.4
		c-0.6,1-0.6,2.2-0.1,3.2l10.1,20.5l-5.9,10.2c-0.9,1.6-0.4,3.7,1.2,4.7c1.6,0.9,3.7,0.4,4.7-1.2l12.8-22.1l22.8-1.4
		c1.1-0.1,2.2-0.7,2.7-1.7l5.1-8.9l3,1.7c1.6,0.9,3.7,0.4,4.7-1.2l6.9-11.8C-6408.1-508.7-6408.6-510.8-6410.3-511.8z M-6462-518.1
		c1.6,0.9,2.2,3,1.2,4.7c-0.9,1.6-3,2.2-4.7,1.2c-1.6-0.9-2.2-3-1.2-4.7C-6465.7-518.5-6463.6-519-6462-518.1z M-6420.1-501.7
		l-5.9-3.4l3.4-5.9l5.9,3.4L-6420.1-501.7z"/>
</g>
<g>
	<path class="st4" d="M-5941.6-378.2c5.5,0,9.9-4.4,9.9-9.9c0-5.5-4.4-9.9-9.9-9.9c-5.5,0-9.9,4.4-9.9,9.9
		C-5951.5-382.7-5947.1-378.2-5941.6-378.2z"/>
	<path class="st4" d="M-5941.6-376.2c-10,0-18.1,8.1-18.1,18.1v15h36.1v-15C-5923.6-368.1-5931.7-376.2-5941.6-376.2z"/>
</g>
<circle class="st8" cx="-790" cy="-397.8" r="186.3"/>
<path class="st4" d="M-799.1-326.4H-916c-15.9,0-28.8-9.6-28.8-21.3V-450c0-11.8,12.9-21.3,28.8-21.3h116.9"/>
<path class="st4" d="M-780.3-471.3h116.9c15.9,0,28.8,9.6,28.8,21.3v102.3c0,11.7-12.9,21.3-28.8,21.3h-116.9"/>
<g>
	<path class="st8" d="M-709.5-408.8c7.9,0,14.3-6.4,14.3-14.2s-6.4-14.2-14.3-14.2c-7.9,0-14.2,6.4-14.2,14.2
		S-717.3-408.8-709.5-408.8z"/>
	<path class="st8" d="M-709.5-405.9c-14.3,0-26,11.7-26,26v21.6h52v-21.6C-683.5-394.2-695.1-405.9-709.5-405.9z"/>
</g>
<g>
	<circle class="st8" cx="-1310" cy="-397.8" r="186.3"/>
	<path class="st4" d="M-1184.4-461.7v127.9c0,14.7-12.9,26.6-28.8,26.6h-193.7c-15.9,0-28.8-12-28.8-26.6v-127.9
		c0-14.7,12.9-26.6,28.8-26.6h193.7C-1197.3-488.4-1184.4-476.4-1184.4-461.7z"/>
	<path class="st8" d="M-1202-399.1v60.7c0,7-6.1,12.7-13.7,12.7h-92c-7.5,0-13.7-5.7-13.7-12.7v-60.7c0-7,6.1-12.7,13.7-12.7h92
		C-1208.1-411.8-1202-406.1-1202-399.1z"/>
	<g>
		<path class="st4" d="M-1261.6-378.2c5.5,0,9.9-4.4,9.9-9.9c0-5.5-4.4-9.9-9.9-9.9c-5.5,0-9.9,4.4-9.9,9.9
			C-1271.5-382.7-1267.1-378.2-1261.6-378.2z"/>
		<path class="st4" d="M-1261.6-376.2c-10,0-18.1,8.1-18.1,18.1v15h36.1v-15C-1243.6-368.1-1251.7-376.2-1261.6-376.2z"/>
	</g>
</g>
<circle class="st1" cx="-5470" cy="-397.8" r="186.3"/>
<path class="st4" d="M-5344.4-461.7v127.9c0,14.7-12.9,26.6-28.8,26.6h-193.7c-15.9,0-28.8-12-28.8-26.6v-127.9
	c0-14.7,12.9-26.6,28.8-26.6h193.7C-5357.3-488.4-5344.4-476.4-5344.4-461.7z"/>
<path class="st1" d="M-5362-399.1v60.7c0,7-6.1,12.7-13.7,12.7h-92c-7.5,0-13.7-5.7-13.7-12.7v-60.7c0-7,6.1-12.7,13.7-12.7h92
	C-5368.1-411.8-5362-406.1-5362-399.1z"/>
<g>
	<path class="st4" d="M-5421.6-378.2c5.5,0,9.9-4.4,9.9-9.9c0-5.5-4.4-9.9-9.9-9.9c-5.5,0-9.9,4.4-9.9,9.9
		C-5431.5-382.7-5427.1-378.2-5421.6-378.2z"/>
	<path class="st4" d="M-5421.6-376.2c-10,0-18.1,8.1-18.1,18.1v15h36.1v-15C-5403.6-368.1-5411.7-376.2-5421.6-376.2z"/>
</g>
<g>
	<circle class="st14" cx="-3910" cy="-397.8" r="185.8"/>
	<g>
		<path class="st4" d="M-3912.3-295.2c-49.3,0-95.9-19-131.2-53.5c-13.1-12.8-24.3-27.4-33.1-43.4c8.9-16,20-30.6,33.1-43.4
			c35.3-34.5,81.9-53.5,131.2-53.5c49.3,0,95.9,19,131.2,53.5c13.1,12.8,24.3,27.4,33.1,43.4c-8.9,16-20,30.6-33.1,43.4
			C-3816.5-314.2-3863-295.2-3912.3-295.2z M-3912.3-461c-48.8,0-94.3,21.9-124.8,60.1l-6.9,8.7l6.9,8.7
			c30.5,38.2,76,60.1,124.8,60.1c48.8,0,94.3-21.9,124.8-60.1l6.9-8.7l-6.9-8.7C-3818-439-3863.5-461-3912.3-461z"/>
		<path class="st4" d="M-3912.3-435.1c-7.2,0-14,1.8-20,5c4.9,2,8.4,6.7,8.4,12.4c0,7.4-6,13.3-13.3,13.3c-5.8,0-10.6-3.7-12.5-8.8
			c-3.5,6.2-5.6,13.4-5.6,21.1c0,23.7,19.2,42.9,42.9,42.9c23.7,0,42.9-19.2,42.9-42.9C-3869.4-415.9-3888.6-435.1-3912.3-435.1z"/>
	</g>
</g>
<g>
	<circle class="st1" cx="-3390" cy="-392.1" r="185.8"/>
	<g>
		<path class="st4" d="M-3392.3-289.6c-49.3,0-95.9-19-131.2-53.5c-13.1-12.8-24.3-27.4-33.1-43.4c8.9-16,20-30.6,33.1-43.4
			c35.3-34.5,81.9-53.5,131.2-53.5c49.3,0,95.9,19,131.2,53.5c13.1,12.8,24.3,27.4,33.1,43.4c-8.9,16-20,30.6-33.1,43.4
			C-3296.5-308.6-3343-289.6-3392.3-289.6z M-3392.3-455.3c-48.8,0-94.3,21.9-124.8,60.1l-6.9,8.7l6.9,8.7
			c30.5,38.2,76,60.1,124.8,60.1c48.8,0,94.3-21.9,124.8-60.1l6.9-8.7l-6.9-8.7C-3298-433.4-3343.5-455.3-3392.3-455.3z"/>
		<path class="st4" d="M-3392.3-429.4c-7.2,0-14,1.8-20,5c4.9,2,8.4,6.7,8.4,12.4c0,7.4-6,13.3-13.3,13.3c-5.8,0-10.6-3.7-12.5-8.8
			c-3.5,6.2-5.6,13.4-5.6,21.1c0,23.7,19.2,42.9,42.9,42.9c23.7,0,42.9-19.2,42.9-42.9S-3368.6-429.4-3392.3-429.4z"/>
	</g>
</g>
<g>
	<circle class="st1" cx="-4422.9" cy="-398.2" r="185.8"/>
	<circle class="st4" cx="-4422.9" cy="-472.2" r="25.4"/>
	<circle class="st4" cx="-4422.9" cy="-398.2" r="25.4"/>
	<circle class="st4" cx="-4422.9" cy="-324.3" r="25.4"/>
</g>
<g>
	<circle class="st7" cx="-4946.3" cy="-398.2" r="185.8"/>
	<circle class="st4" cx="-4946.3" cy="-472.2" r="25.4"/>
	<circle class="st4" cx="-4946.3" cy="-398.2" r="25.4"/>
	<circle class="st4" cx="-4946.3" cy="-324.3" r="25.4"/>
</g>
<g>
	<circle class="st5" cx="-2870" cy="-398.2" r="185.8"/>
	<circle class="st4" cx="-2870" cy="-472.2" r="25.4"/>
	<circle class="st4" cx="-2870" cy="-398.2" r="25.4"/>
	<circle class="st4" cx="-2870" cy="-324.3" r="25.4"/>
</g>
<g>
	<circle class="st1" cx="-2360" cy="-392.1" r="185.8"/>
	<g>
		<path class="st4" d="M-2360-256.2c-67.3,0-122.1-54.8-122.1-122.1c0-51,32.1-97.1,80-114.6c5.9-2.1,12.4,0.9,14.5,6.7
			c2.2,5.9-0.9,12.4-6.7,14.5c-39,14.3-65.2,51.9-65.2,93.4c0,54.9,44.6,99.5,99.5,99.5s99.5-44.6,99.5-99.5
			c0-44.3-26.9-81-68.6-93.5c-6-1.8-9.4-8.1-7.6-14.1c1.8-6,8.1-9.4,14.1-7.6c51.4,15.4,84.7,60.6,84.7,115.1
			C-2237.9-310.9-2292.7-256.2-2360-256.2z"/>
		<path class="st4" d="M-2359.7-408.7L-2359.7-408.7c-7.2,0-13.1-5.9-13.1-13.1l-0.3-93.2c0-7.2,5.9-13.1,13.1-13.1l0,0
			c7.2,0,13.1,5.9,13.1,13.1l0.3,93.2C-2346.6-414.5-2352.5-408.7-2359.7-408.7z"/>
	</g>
</g>
<g>
	<circle class="st15" cx="-1830" cy="-392.1" r="185.8"/>
	<g>
		<path class="st4" d="M-1830-256.2c-67.3,0-122.1-54.8-122.1-122.1c0-51,32.1-97.1,80-114.6c5.9-2.1,12.4,0.9,14.5,6.7
			c2.2,5.9-0.9,12.4-6.7,14.5c-39,14.3-65.2,51.9-65.2,93.4c0,54.9,44.6,99.5,99.5,99.5s99.5-44.6,99.5-99.5
			c0-44.3-26.9-81-68.6-93.5c-6-1.8-9.4-8.1-7.6-14.1c1.8-6,8.1-9.4,14.1-7.6c51.4,15.4,84.7,60.6,84.7,115.1
			C-1707.9-310.9-1762.7-256.2-1830-256.2z"/>
		<path class="st4" d="M-1829.7-408.7L-1829.7-408.7c-7.2,0-13.1-5.9-13.1-13.1l-0.3-93.2c0-7.2,5.9-13.1,13.1-13.1l0,0
			c7.2,0,13.1,5.9,13.1,13.1l0.3,93.2C-1816.6-414.5-1822.5-408.7-1829.7-408.7z"/>
	</g>
</g>
<g>
	<circle class="st8" cx="-869.9" cy="-397.8" r="11.1"/>
	<path class="st8" d="M-838.5-425.1h-62.8c-5,0-9.1,4.1-9.1,9.1v36.4c0,5,4.1,9.1,9.1,9.1h62.8c5,0,9.1-4.1,9.1-9.1V-416
		C-829.4-421-833.5-425.1-838.5-425.1z M-869.9-380.7c-9.5,0-17.1-7.7-17.1-17.1c0-9.5,7.7-17.1,17.1-17.1s17.1,7.7,17.1,17.1
		C-852.8-388.3-860.4-380.7-869.9-380.7z"/>
</g>
<g>
	<path class="st1" d="M-402.3-403.2l109.4,63.1c1.2,0.7,2.6,0.7,3.8,0l109.4-63.1c1.3-0.7,1.3-2.5,0-3.3l-109.4-63.1
		c-1.2-0.7-2.6-0.7-3.8,0l-109.4,63.1C-403.5-405.7-403.5-403.9-402.3-403.2z"/>
	<path class="st10" d="M-277.6-476.4l109.4,63.1c1.2,0.7,2.6,0.7,3.8,0l64.6-113.7c1.3-0.7,1.3-2.5,0-3.3l-109.4-63.1
		c-1.2-0.7-2.6-0.7-3.8,0l-64.6,113.7C-278.8-478.9-278.8-477.1-277.6-476.4z"/>
	<path class="st11" d="M-409.8-261l109.6,63.4c1.3,0.7,2.8-0.2,2.8-1.6v-125.8c0-1.4-0.7-2.6-1.9-3.3l-109.6-63.2
		c-1.3-0.7-2.8,0.2-2.8,1.6v125.6C-411.7-262.9-410.9-261.7-409.8-261z"/>
	<path class="st10" d="M-172-261.2l-109.6,63.4c-1.3,0.7-2.8-0.2-2.8-1.6v-125.8c0-1.4,0.7-2.6,1.9-3.3l109.6-63.2
		c1.3-0.7,2.8,0.2,2.8,1.6v125.6C-170.2-263.2-170.9-261.9-172-261.2z"/>
	<g>
		<defs>
			<path id="SVGID_5_" d="M-402.3-403.2l109.4,63.1c1.2,0.7,2.6,0.7,3.8,0l109.4-63.1c1.3-0.7,1.3-2.5,0-3.3l-109.4-63.1
				c-1.2-0.7-2.6-0.7-3.8,0l-109.4,63.1C-403.5-405.7-403.5-403.9-402.3-403.2z"/>
		</defs>
		<clipPath id="SVGID_6_">
			<use xlink:href="#SVGID_5_"  style="overflow:visible;"/>
		</clipPath>
		<rect x="-430.1" y="-475.2" class="st16" width="139" height="142.2"/>
	</g>
	<path class="st5" d="M-235.4-283.8v14.3c0,2.6-2.1,6-4.8,7.5l-2.4,1.4c0-8,0-15.9,0-23.9l2.4-1.4
		C-237.6-287.4-235.4-286.5-235.4-283.8z M-190.1-302.4c0-5.8-4.1-8.2-9.5-6.2v-7.6c0-14.5-11.8-19.5-26.3-11.2
		c-14.5,8.3-26.3,26.8-26.3,41.3v7.6c-5.4,4.2-9.5,11.4-9.5,17.2c0,7.4,7.2,7.6,14.3,3.5c0-11.1,0-20,0-31c0-11.8,9.6-27,21.5-33.8
		c11.8-6.8,21.5-2.7,21.5,9.2c0,4.3,0,25.7,0,28.6c0,3.9-3.2,9-7.2,11.3l-7.6,4.4c-1-2.2-3.6-2.7-6.7-0.9c-3.9,2.3-7.2,7.3-7.2,11.3
		s3.2,5.3,7.2,3.1c3.1-1.8,5.7-5.3,6.7-8.6l7.6-4.4c6-3.4,10.9-10.7,11.8-16.9C-194.5-290.3-190.1-296.7-190.1-302.4z M-209.2-279.8
		c0-4.8,0-19,0-23.9l-2.4,1.4c-2.6,1.5-4.8,4.9-4.8,7.5v14.3c0,2.6,2.1,3.5,4.8,2L-209.2-279.8z"/>
	<path class="st9" d="M-354.5-327.4c-15-8.7-27.2-3.6-27.2,11.4c0,15,12.2,34.3,27.2,43c15,8.7,27.2,3.6,27.2-11.4
		C-327.3-299.4-339.5-318.7-354.5-327.4z M-354.5-283.5c-8.1-4.7-14.6-15.1-14.6-23.2c0-8.1,6.6-10.8,14.6-6.1
		c8.1,4.7,14.6,15.1,14.6,23.2C-339.9-281.5-346.4-278.8-354.5-283.5z M-350.3-295.7c0,2.3-1.9,3.1-4.2,1.7
		c-2.3-1.3-4.2-4.3-4.2-6.6s1.9-3.1,4.2-1.7C-352.2-300.9-350.3-298-350.3-295.7z M-323.8-250.3c1.3,2.1,0.4,3.8-1.5,2.7l-58.6-34.1
		c-1.9-1.1-2.8-3.9-1.5-4.4l8.4-3.5c0.3-0.1,0.7-0.1,1.2,0.1c5.6,8.4,13,15.9,21.2,20.7c8.2,4.8,15.6,5.9,21.2,4
		c0.4,0.3,0.9,0.7,1.2,1.3L-323.8-250.3z"/>
	<path class="st7" d="M-155.5-509.8l-11.8-6.9c-1.6-0.9-3.7-0.4-4.7,1.2l-6.9,11.8c-0.9,1.6-0.4,3.7,1.2,4.7l3,1.7l-4.2,7.3l-16.4,1
		l26-44.7l0.8,6.8c0.2,1.9,1.9,3.2,3.8,3c1.9-0.2,3.2-1.9,3-3.8l-2-17c0-0.1-0.1-0.1-0.1-0.2c-0.4-2.1-2.4-3.3-4.5-2.6
		c-0.1,0-0.1,0-0.2,0l-15.7,6.7c-1.7,0.7-2.5,2.7-1.8,4.5c0.7,1.7,2.7,2.6,4.5,1.8l6.3-2.7l-32.8,56.6l-7.2-14.7l4.5-7.8
		c4.1,0.8,8.5-1,10.7-4.9c2.8-4.9,1.2-11.2-3.7-14c-4.9-2.8-11.2-1.2-14,3.7c-2.2,3.8-1.6,8.5,1.1,11.8l-5.5,9.4
		c-0.6,1-0.6,2.2-0.1,3.2l10.1,20.5l-5.9,10.2c-0.9,1.6-0.4,3.7,1.2,4.7c1.6,0.9,3.7,0.4,4.7-1.2l12.8-22.1l22.8-1.4
		c1.1-0.1,2.2-0.7,2.7-1.7l5.1-8.9l3,1.7c1.6,0.9,3.7,0.4,4.7-1.2l6.9-11.8C-153.3-506.7-153.9-508.8-155.5-509.8z M-207.2-516.1
		c1.6,0.9,2.2,3,1.2,4.7c-0.9,1.6-3,2.2-4.7,1.2c-1.6-0.9-2.2-3-1.2-4.7C-210.9-516.5-208.8-517-207.2-516.1z M-165.3-499.7
		l-5.9-3.4l3.4-5.9l5.9,3.4L-165.3-499.7z"/>
</g>
<g>
	<path class="st1" d="M637.7-403.2L747.1-340c1.2,0.7,2.6,0.7,3.8,0l109.4-63.1c1.3-0.7,1.3-2.5,0-3.3l-109.4-63.1
		c-1.2-0.7-2.6-0.7-3.8,0l-109.4,63.1C636.5-405.7,636.5-403.9,637.7-403.2z"/>
	<path class="st10" d="M762.4-476.4l109.4,63.1c1.2,0.7,2.6,0.7,3.8,0l64.6-113.7c1.3-0.7,1.3-2.5,0-3.3l-109.4-63.1
		c-1.2-0.7-2.6-0.7-3.8,0l-64.6,113.7C761.2-478.9,761.2-477.1,762.4-476.4z"/>
	<path class="st11" d="M630.2-261l109.6,63.4c1.3,0.7,2.8-0.2,2.8-1.6v-125.8c0-1.4-0.7-2.6-1.9-3.3l-109.6-63.2
		c-1.3-0.7-2.8,0.2-2.8,1.6v125.6C628.3-262.9,629.1-261.7,630.2-261z"/>
	<path class="st10" d="M868-261.2l-109.6,63.4c-1.3,0.7-2.8-0.2-2.8-1.6v-125.8c0-1.4,0.7-2.6,1.9-3.3L867-391.8
		c1.3-0.7,2.8,0.2,2.8,1.6v125.6C869.8-263.2,869.1-261.9,868-261.2z"/>
	<g>
		<defs>
			<path id="SVGID_7_" d="M637.7-403.2L747.1-340c1.2,0.7,2.6,0.7,3.8,0l109.4-63.1c1.3-0.7,1.3-2.5,0-3.3l-109.4-63.1
				c-1.2-0.7-2.6-0.7-3.8,0l-109.4,63.1C636.5-405.7,636.5-403.9,637.7-403.2z"/>
		</defs>
		<clipPath id="SVGID_8_">
			<use xlink:href="#SVGID_7_"  style="overflow:visible;"/>
		</clipPath>
		<rect x="609.9" y="-475.2" class="st17" width="139" height="142.2"/>
	</g>
	<path class="st5" d="M804.6-283.8v14.3c0,2.6-2.1,6-4.8,7.5l-2.4,1.4c0-8,0-15.9,0-23.9l2.4-1.4
		C802.4-287.4,804.6-286.5,804.6-283.8z M849.9-302.4c0-5.8-4.1-8.2-9.5-6.2v-7.6c0-14.5-11.8-19.5-26.3-11.2
		c-14.5,8.3-26.3,26.8-26.3,41.3v7.6c-5.4,4.2-9.5,11.4-9.5,17.2c0,7.4,7.2,7.6,14.3,3.5c0-11.1,0-20,0-31c0-11.8,9.6-27,21.5-33.8
		c11.8-6.8,21.5-2.7,21.5,9.2c0,4.3,0,25.7,0,28.6c0,3.9-3.2,9-7.2,11.3l-7.6,4.4c-1-2.2-3.6-2.7-6.7-0.9c-3.9,2.3-7.2,7.3-7.2,11.3
		s3.2,5.3,7.2,3.1c3.1-1.8,5.7-5.3,6.7-8.6l7.6-4.4c6-3.4,10.9-10.7,11.8-16.9C845.5-290.3,849.9-296.7,849.9-302.4z M830.8-279.8
		c0-4.8,0-19,0-23.9l-2.4,1.4c-2.6,1.5-4.8,4.9-4.8,7.5v14.3c0,2.6,2.1,3.5,4.8,2L830.8-279.8z"/>
	<path class="st9" d="M685.5-327.4c-15-8.7-27.2-3.6-27.2,11.4c0,15,12.2,34.3,27.2,43c15,8.7,27.2,3.6,27.2-11.4
		C712.7-299.4,700.5-318.7,685.5-327.4z M685.5-283.5c-8.1-4.7-14.6-15.1-14.6-23.2c0-8.1,6.6-10.8,14.6-6.1s14.6,15.1,14.6,23.2
		C700.1-281.5,693.6-278.8,685.5-283.5z M689.7-295.7c0,2.3-1.9,3.1-4.2,1.7c-2.3-1.3-4.2-4.3-4.2-6.6s1.9-3.1,4.2-1.7
		C687.8-300.9,689.7-298,689.7-295.7z M716.2-250.3c1.3,2.1,0.4,3.8-1.5,2.7l-58.6-34.1c-1.9-1.1-2.8-3.9-1.5-4.4l8.4-3.5
		c0.3-0.1,0.7-0.1,1.2,0.1c5.6,8.4,13,15.9,21.2,20.7c8.2,4.8,15.6,5.9,21.2,4c0.4,0.3,0.9,0.7,1.2,1.3L716.2-250.3z"/>
	<path class="st7" d="M884.5-509.8l-11.8-6.9c-1.6-0.9-3.7-0.4-4.7,1.2l-6.9,11.8c-0.9,1.6-0.4,3.7,1.2,4.7l3,1.7l-4.2,7.3l-16.4,1
		l26-44.7l0.8,6.8c0.2,1.9,1.9,3.2,3.8,3c1.9-0.2,3.2-1.9,3-3.8l-2-17c0-0.1-0.1-0.1-0.1-0.2c-0.4-2.1-2.4-3.3-4.5-2.6
		c-0.1,0-0.1,0-0.2,0l-15.7,6.7c-1.7,0.7-2.5,2.7-1.8,4.5c0.7,1.7,2.7,2.6,4.5,1.8l6.3-2.7l-32.8,56.6l-7.2-14.7l4.5-7.8
		c4.1,0.8,8.5-1,10.7-4.9c2.8-4.9,1.2-11.2-3.7-14c-4.9-2.8-11.2-1.2-14,3.7c-2.2,3.8-1.6,8.5,1.1,11.8l-5.5,9.4
		c-0.6,1-0.6,2.2-0.1,3.2l10.1,20.5l-5.9,10.2c-0.9,1.6-0.4,3.7,1.2,4.7c1.6,0.9,3.7,0.4,4.7-1.2l12.8-22.1l22.8-1.4
		c1.1-0.1,2.2-0.7,2.7-1.7l5.1-8.9l3,1.7c1.6,0.9,3.7,0.4,4.7-1.2l6.9-11.8C886.7-506.7,886.1-508.8,884.5-509.8z M832.8-516.1
		c1.6,0.9,2.2,3,1.2,4.7c-0.9,1.6-3,2.2-4.7,1.2c-1.6-0.9-2.2-3-1.2-4.7C829.1-516.5,831.2-517,832.8-516.1z M874.7-499.7l-5.9-3.4
		l3.4-5.9l5.9,3.4L874.7-499.7z"/>
</g>
<g>
	<path class="st1" d="M1677.7-403.2l109.4,63.1c1.2,0.7,2.6,0.7,3.8,0l109.4-63.1c1.3-0.7,1.3-2.5,0-3.3l-109.4-63.1
		c-1.2-0.7-2.6-0.7-3.8,0l-109.4,63.1C1676.5-405.7,1676.5-403.9,1677.7-403.2z"/>
	<path class="st10" d="M1802.4-476.4l109.4,63.1c1.2,0.7,2.6,0.7,3.8,0l64.6-113.7c1.3-0.7,1.3-2.5,0-3.3l-109.4-63.1
		c-1.2-0.7-2.6-0.7-3.8,0l-64.6,113.7C1801.2-478.9,1801.2-477.1,1802.4-476.4z"/>
	<path class="st11" d="M1670.2-261l109.6,63.4c1.3,0.7,2.8-0.2,2.8-1.6v-125.8c0-1.4-0.7-2.6-1.9-3.3l-109.6-63.2
		c-1.3-0.7-2.8,0.2-2.8,1.6v125.6C1668.3-262.9,1669.1-261.7,1670.2-261z"/>
	<path class="st10" d="M1908-261.2l-109.6,63.4c-1.3,0.7-2.8-0.2-2.8-1.6v-125.8c0-1.4,0.7-2.6,1.9-3.3l109.6-63.2
		c1.3-0.7,2.8,0.2,2.8,1.6v125.6C1909.8-263.2,1909.1-261.9,1908-261.2z"/>
	<g>
		<defs>
			<path id="SVGID_9_" d="M1677.7-403.2l109.4,63.1c1.2,0.7,2.6,0.7,3.8,0l109.4-63.1c1.3-0.7,1.3-2.5,0-3.3l-109.4-63.1
				c-1.2-0.7-2.6-0.7-3.8,0l-109.4,63.1C1676.5-405.7,1676.5-403.9,1677.7-403.2z"/>
		</defs>
		<clipPath id="SVGID_10_">
			<use xlink:href="#SVGID_9_"  style="overflow:visible;"/>
		</clipPath>
		<rect x="1649.9" y="-475.2" class="st18" width="139" height="142.2"/>
	</g>
	<path class="st5" d="M1844.6-283.8v14.3c0,2.6-2.1,6-4.8,7.5l-2.4,1.4c0-8,0-15.9,0-23.9l2.4-1.4
		C1842.4-287.4,1844.6-286.5,1844.6-283.8z M1889.9-302.4c0-5.8-4.1-8.2-9.5-6.2v-7.6c0-14.5-11.8-19.5-26.3-11.2
		c-14.5,8.3-26.3,26.8-26.3,41.3v7.6c-5.4,4.2-9.5,11.4-9.5,17.2c0,7.4,7.2,7.6,14.3,3.5c0-11.1,0-20,0-31c0-11.8,9.6-27,21.5-33.8
		c11.8-6.8,21.5-2.7,21.5,9.2c0,4.3,0,25.7,0,28.6c0,3.9-3.2,9-7.2,11.3l-7.6,4.4c-1-2.2-3.6-2.7-6.7-0.9c-3.9,2.3-7.2,7.3-7.2,11.3
		s3.2,5.3,7.2,3.1c3.1-1.8,5.7-5.3,6.7-8.6l7.6-4.4c6-3.4,10.9-10.7,11.8-16.9C1885.5-290.3,1889.9-296.7,1889.9-302.4z
		 M1870.8-279.8c0-4.8,0-19,0-23.9l-2.4,1.4c-2.6,1.5-4.8,4.9-4.8,7.5v14.3c0,2.6,2.1,3.5,4.8,2L1870.8-279.8z"/>
	<path class="st9" d="M1725.5-327.4c-15-8.7-27.2-3.6-27.2,11.4c0,15,12.2,34.3,27.2,43c15,8.7,27.2,3.6,27.2-11.4
		C1752.7-299.4,1740.5-318.7,1725.5-327.4z M1725.5-283.5c-8.1-4.7-14.6-15.1-14.6-23.2c0-8.1,6.6-10.8,14.6-6.1
		s14.6,15.1,14.6,23.2C1740.1-281.5,1733.6-278.8,1725.5-283.5z M1729.7-295.7c0,2.3-1.9,3.1-4.2,1.7c-2.3-1.3-4.2-4.3-4.2-6.6
		s1.9-3.1,4.2-1.7C1727.8-300.9,1729.7-298,1729.7-295.7z M1756.2-250.3c1.3,2.1,0.4,3.8-1.5,2.7l-58.6-34.1
		c-1.9-1.1-2.8-3.9-1.5-4.4l8.4-3.5c0.3-0.1,0.7-0.1,1.2,0.1c5.6,8.4,13,15.9,21.2,20.7c8.2,4.8,15.6,5.9,21.2,4
		c0.4,0.3,0.9,0.7,1.2,1.3L1756.2-250.3z"/>
	<path class="st7" d="M1924.5-509.8l-11.8-6.9c-1.6-0.9-3.7-0.4-4.7,1.2l-6.9,11.8c-0.9,1.6-0.4,3.7,1.2,4.7l3,1.7l-4.2,7.3l-16.4,1
		l26-44.7l0.8,6.8c0.2,1.9,1.9,3.2,3.8,3c1.9-0.2,3.2-1.9,3-3.8l-2-17c0-0.1-0.1-0.1-0.1-0.2c-0.4-2.1-2.4-3.3-4.5-2.6
		c-0.1,0-0.1,0-0.2,0l-15.7,6.7c-1.7,0.7-2.5,2.7-1.8,4.5c0.7,1.7,2.7,2.6,4.5,1.8l6.3-2.7l-32.8,56.6l-7.2-14.7l4.5-7.8
		c4.1,0.8,8.5-1,10.7-4.9c2.8-4.9,1.2-11.2-3.7-14c-4.9-2.8-11.2-1.2-14,3.7c-2.2,3.8-1.6,8.5,1.1,11.8l-5.5,9.4
		c-0.6,1-0.6,2.2-0.1,3.2l10.1,20.5l-5.9,10.2c-0.9,1.6-0.4,3.7,1.2,4.7c1.6,0.9,3.7,0.4,4.7-1.2l12.8-22.1l22.8-1.4
		c1.1-0.1,2.2-0.7,2.7-1.7l5.1-8.9l3,1.7c1.6,0.9,3.7,0.4,4.7-1.2l6.9-11.8C1926.7-506.7,1926.1-508.8,1924.5-509.8z M1872.8-516.1
		c1.6,0.9,2.2,3,1.2,4.7c-0.9,1.6-3,2.2-4.7,1.2c-1.6-0.9-2.2-3-1.2-4.7C1869.1-516.5,1871.2-517,1872.8-516.1z M1914.7-499.7
		l-5.9-3.4l3.4-5.9l5.9,3.4L1914.7-499.7z"/>
</g>
<g>
	<path class="st1" d="M2717.7-403.2l109.4,63.1c1.2,0.7,2.6,0.7,3.8,0l109.4-63.1c1.3-0.7,1.3-2.5,0-3.3l-109.4-63.1
		c-1.2-0.7-2.6-0.7-3.8,0l-109.4,63.1C2716.5-405.7,2716.5-403.9,2717.7-403.2z"/>
	<path class="st10" d="M2842.4-476.4l109.4,63.1c1.2,0.7,2.6,0.7,3.8,0l64.6-113.7c1.3-0.7,1.3-2.5,0-3.3l-109.4-63.1
		c-1.2-0.7-2.6-0.7-3.8,0l-64.6,113.7C2841.2-478.9,2841.2-477.1,2842.4-476.4z"/>
	<path class="st11" d="M2710.2-261l109.6,63.4c1.3,0.7,2.8-0.2,2.8-1.6v-125.8c0-1.4-0.7-2.6-1.9-3.3l-109.6-63.2
		c-1.3-0.7-2.8,0.2-2.8,1.6v125.6C2708.3-262.9,2709.1-261.7,2710.2-261z"/>
	<path class="st10" d="M2948-261.2l-109.6,63.4c-1.3,0.7-2.8-0.2-2.8-1.6v-125.8c0-1.4,0.7-2.6,1.9-3.3l109.6-63.2
		c1.3-0.7,2.8,0.2,2.8,1.6v125.6C2949.8-263.2,2949.1-261.9,2948-261.2z"/>
	<g>
		<defs>
			<path id="SVGID_11_" d="M2717.7-403.2l109.4,63.1c1.2,0.7,2.6,0.7,3.8,0l109.4-63.1c1.3-0.7,1.3-2.5,0-3.3l-109.4-63.1
				c-1.2-0.7-2.6-0.7-3.8,0l-109.4,63.1C2716.5-405.7,2716.5-403.9,2717.7-403.2z"/>
		</defs>
		<clipPath id="SVGID_12_">
			<use xlink:href="#SVGID_11_"  style="overflow:visible;"/>
		</clipPath>
		<rect x="2689.9" y="-475.2" class="st19" width="139" height="142.2"/>
	</g>
	<path class="st5" d="M2884.6-283.8v14.3c0,2.6-2.1,6-4.8,7.5l-2.4,1.4c0-8,0-15.9,0-23.9l2.4-1.4
		C2882.4-287.4,2884.6-286.5,2884.6-283.8z M2929.9-302.4c0-5.8-4.1-8.2-9.5-6.2v-7.6c0-14.5-11.8-19.5-26.3-11.2
		c-14.5,8.3-26.3,26.8-26.3,41.3v7.6c-5.4,4.2-9.5,11.4-9.5,17.2c0,7.4,7.2,7.6,14.3,3.5c0-11.1,0-20,0-31c0-11.8,9.6-27,21.5-33.8
		c11.8-6.8,21.5-2.7,21.5,9.2c0,4.3,0,25.7,0,28.6c0,3.9-3.2,9-7.2,11.3l-7.6,4.4c-1-2.2-3.6-2.7-6.7-0.9c-3.9,2.3-7.2,7.3-7.2,11.3
		s3.2,5.3,7.2,3.1c3.1-1.8,5.7-5.3,6.7-8.6l7.6-4.4c6-3.4,10.9-10.7,11.8-16.9C2925.5-290.3,2929.9-296.7,2929.9-302.4z
		 M2910.8-279.8c0-4.8,0-19,0-23.9l-2.4,1.4c-2.6,1.5-4.8,4.9-4.8,7.5v14.3c0,2.6,2.1,3.5,4.8,2L2910.8-279.8z"/>
	<path class="st9" d="M2765.5-327.4c-15-8.7-27.2-3.6-27.2,11.4c0,15,12.2,34.3,27.2,43c15,8.7,27.2,3.6,27.2-11.4
		C2792.7-299.4,2780.5-318.7,2765.5-327.4z M2765.5-283.5c-8.1-4.7-14.6-15.1-14.6-23.2c0-8.1,6.6-10.8,14.6-6.1
		s14.6,15.1,14.6,23.2C2780.1-281.5,2773.6-278.8,2765.5-283.5z M2769.7-295.7c0,2.3-1.9,3.1-4.2,1.7s-4.2-4.3-4.2-6.6
		s1.9-3.1,4.2-1.7S2769.7-298,2769.7-295.7z M2796.2-250.3c1.3,2.1,0.4,3.8-1.5,2.7l-58.6-34.1c-1.9-1.1-2.8-3.9-1.5-4.4l8.4-3.5
		c0.3-0.1,0.7-0.1,1.2,0.1c5.6,8.4,13,15.9,21.2,20.7c8.2,4.8,15.6,5.9,21.2,4c0.4,0.3,0.9,0.7,1.2,1.3L2796.2-250.3z"/>
	<path class="st7" d="M2964.5-509.8l-11.8-6.9c-1.6-0.9-3.7-0.4-4.7,1.2l-6.9,11.8c-0.9,1.6-0.4,3.7,1.2,4.7l3,1.7l-4.2,7.3l-16.4,1
		l26-44.7l0.8,6.8c0.2,1.9,1.9,3.2,3.8,3c1.9-0.2,3.2-1.9,3-3.8l-2-17c0-0.1-0.1-0.1-0.1-0.2c-0.4-2.1-2.4-3.3-4.5-2.6
		c-0.1,0-0.1,0-0.2,0l-15.7,6.7c-1.7,0.7-2.5,2.7-1.8,4.5c0.7,1.7,2.7,2.6,4.5,1.8l6.3-2.7l-32.8,56.6l-7.2-14.7l4.5-7.8
		c4.1,0.8,8.5-1,10.7-4.9c2.8-4.9,1.2-11.2-3.7-14c-4.9-2.8-11.2-1.2-14,3.7c-2.2,3.8-1.6,8.5,1.1,11.8l-5.5,9.4
		c-0.6,1-0.6,2.2-0.1,3.2l10.1,20.5l-5.9,10.2c-0.9,1.6-0.4,3.7,1.2,4.7c1.6,0.9,3.7,0.4,4.7-1.2l12.8-22.1l22.8-1.4
		c1.1-0.1,2.2-0.7,2.7-1.7l5.1-8.9l3,1.7c1.6,0.9,3.7,0.4,4.7-1.2l6.9-11.8C2966.7-506.7,2966.1-508.8,2964.5-509.8z M2912.8-516.1
		c1.6,0.9,2.2,3,1.2,4.7c-0.9,1.6-3,2.2-4.7,1.2c-1.6-0.9-2.2-3-1.2-4.7C2909.1-516.5,2911.2-517,2912.8-516.1z M2954.7-499.7
		l-5.9-3.4l3.4-5.9l5.9,3.4L2954.7-499.7z"/>
</g>
<g>
	<path class="st1" d="M-339.8-485.6c-22.9,0-41.5-18.6-41.5-41.5c0-17.3,10.9-33,27.2-38.9c2-0.7,4.2,0.3,4.9,2.3
		c0.7,2-0.3,4.2-2.3,4.9c-13.2,4.9-22.1,17.6-22.1,31.7c0,18.6,15.2,33.8,33.8,33.8c18.6,0,33.8-15.2,33.8-33.8
		c0-15.1-9.1-27.5-23.3-31.8c-2-0.6-3.2-2.7-2.6-4.8c0.6-2,2.7-3.2,4.8-2.6c17.5,5.2,28.8,20.6,28.8,39.1
		C-298.4-504.2-317-485.6-339.8-485.6z"/>
	<path class="st1" d="M-339.8-537.4L-339.8-537.4c-2.5,0-4.4-2-4.4-4.4l-0.1-31.7c0-2.5,2-4.4,4.4-4.4l0,0c2.5,0,4.4,2,4.4,4.4
		l0.1,31.7C-335.3-539.4-337.3-537.4-339.8-537.4z"/>
</g>
<g>
	<path class="st1" d="M134.4-403.2L243.8-340c1.2,0.7,2.6,0.7,3.8,0l109.4-63.1c1.3-0.7,1.3-2.5,0-3.3l-109.4-63.1
		c-1.2-0.7-2.6-0.7-3.8,0l-109.4,63.1C133.1-405.7,133.1-403.9,134.4-403.2z"/>
	<path class="st10" d="M259.1-476.4l109.4,63.1c1.2,0.7,2.6,0.7,3.8,0l64.6-113.7c1.3-0.7,1.3-2.5,0-3.3l-109.4-63.1
		c-1.2-0.7-2.6-0.7-3.8,0l-64.6,113.7C257.8-478.9,257.8-477.1,259.1-476.4z"/>
	<path class="st11" d="M126.9-261l109.6,63.4c1.3,0.7,2.8-0.2,2.8-1.6v-125.8c0-1.4-0.7-2.6-1.9-3.3l-109.6-63.2
		c-1.3-0.7-2.8,0.2-2.8,1.6v125.6C125-262.9,125.7-261.7,126.9-261z"/>
	<path class="st10" d="M364.6-261.2L255-197.9c-1.3,0.7-2.8-0.2-2.8-1.6v-125.8c0-1.4,0.7-2.6,1.9-3.3l109.6-63.2
		c1.3-0.7,2.8,0.2,2.8,1.6v125.6C366.5-263.2,365.8-261.9,364.6-261.2z"/>
	<g>
		<defs>
			<path id="SVGID_13_" d="M134.4-403.2L243.8-340c1.2,0.7,2.6,0.7,3.8,0l109.4-63.1c1.3-0.7,1.3-2.5,0-3.3l-109.4-63.1
				c-1.2-0.7-2.6-0.7-3.8,0l-109.4,63.1C133.1-405.7,133.1-403.9,134.4-403.2z"/>
		</defs>
		<clipPath id="SVGID_14_">
			<use xlink:href="#SVGID_13_"  style="overflow:visible;"/>
		</clipPath>
		<rect x="106.6" y="-475.2" class="st20" width="139" height="142.2"/>
	</g>
	<path class="st5" d="M301.2-283.8v14.3c0,2.6-2.1,6-4.8,7.5l-2.4,1.4c0-8,0-15.9,0-23.9l2.4-1.4
		C299.1-287.4,301.2-286.5,301.2-283.8z M346.6-302.4c0-5.8-4.1-8.2-9.5-6.2v-7.6c0-14.5-11.8-19.5-26.3-11.2
		c-14.5,8.3-26.3,26.8-26.3,41.3v7.6c-5.4,4.2-9.5,11.4-9.5,17.2c0,7.4,7.2,7.6,14.3,3.5c0-11.1,0-20,0-31c0-11.8,9.6-27,21.5-33.8
		c11.8-6.8,21.5-2.7,21.5,9.2c0,4.3,0,25.7,0,28.6c0,3.9-3.2,9-7.2,11.3l-7.6,4.4c-1-2.2-3.6-2.7-6.7-0.9c-3.9,2.3-7.2,7.3-7.2,11.3
		s3.2,5.3,7.2,3.1c3.1-1.8,5.7-5.3,6.7-8.6l7.6-4.4c6-3.4,10.9-10.7,11.8-16.9C342.2-290.3,346.6-296.7,346.6-302.4z M327.5-279.8
		c0-4.8,0-19,0-23.9l-2.4,1.4c-2.6,1.5-4.8,4.9-4.8,7.5v14.3c0,2.6,2.1,3.5,4.8,2L327.5-279.8z"/>
	<path class="st9" d="M182.2-327.4c-15-8.7-27.2-3.6-27.2,11.4c0,15,12.2,34.3,27.2,43c15,8.7,27.2,3.6,27.2-11.4
		C209.3-299.4,197.1-318.7,182.2-327.4z M182.2-283.5c-8.1-4.7-14.6-15.1-14.6-23.2c0-8.1,6.6-10.8,14.6-6.1
		c8.1,4.7,14.6,15.1,14.6,23.2C196.8-281.5,190.2-278.8,182.2-283.5z M186.3-295.7c0,2.3-1.9,3.1-4.2,1.7c-2.3-1.3-4.2-4.3-4.2-6.6
		s1.9-3.1,4.2-1.7C184.5-300.9,186.3-298,186.3-295.7z M212.9-250.3c1.3,2.1,0.4,3.8-1.5,2.7l-58.6-34.1c-1.9-1.1-2.8-3.9-1.5-4.4
		l8.4-3.5c0.3-0.1,0.7-0.1,1.2,0.1c5.6,8.4,13,15.9,21.2,20.7c8.2,4.8,15.6,5.9,21.2,4c0.4,0.3,0.9,0.7,1.2,1.3L212.9-250.3z"/>
	<path class="st7" d="M381.1-509.8l-11.8-6.9c-1.6-0.9-3.7-0.4-4.7,1.2l-6.9,11.8c-0.9,1.6-0.4,3.7,1.2,4.7l3,1.7l-4.2,7.3l-16.4,1
		l26-44.7l0.8,6.8c0.2,1.9,1.9,3.2,3.8,3c1.9-0.2,3.2-1.9,3-3.8l-2-17c0-0.1-0.1-0.1-0.1-0.2c-0.4-2.1-2.4-3.3-4.5-2.6
		c-0.1,0-0.1,0-0.2,0l-15.7,6.7c-1.7,0.7-2.5,2.7-1.8,4.5c0.7,1.7,2.7,2.6,4.5,1.8l6.3-2.7l-32.8,56.6l-7.2-14.7l4.5-7.8
		c4.1,0.8,8.5-1,10.7-4.9c2.8-4.9,1.2-11.2-3.7-14c-4.9-2.8-11.2-1.2-14,3.7c-2.2,3.8-1.6,8.5,1.1,11.8l-5.5,9.4
		c-0.6,1-0.6,2.2-0.1,3.2l10.1,20.5l-5.9,10.2c-0.9,1.6-0.4,3.7,1.2,4.7c1.6,0.9,3.7,0.4,4.7-1.2l12.8-22.1l22.8-1.4
		c1.1-0.1,2.2-0.7,2.7-1.7l5.1-8.9l3,1.7c1.6,0.9,3.7,0.4,4.7-1.2l6.9-11.8C383.3-506.7,382.8-508.8,381.1-509.8z M329.5-516.1
		c1.6,0.9,2.2,3,1.2,4.7c-0.9,1.6-3,2.2-4.7,1.2c-1.6-0.9-2.2-3-1.2-4.7C325.7-516.5,327.8-517,329.5-516.1z M371.3-499.7l-5.9-3.4
		l3.4-5.9l5.9,3.4L371.3-499.7z"/>
</g>
<g>
	<path class="st0" d="M196.8-485.6c-22.9,0-41.5-18.6-41.5-41.5c0-17.3,10.9-33,27.2-38.9c2-0.7,4.2,0.3,4.9,2.3
		c0.7,2-0.3,4.2-2.3,4.9c-13.2,4.9-22.1,17.6-22.1,31.7c0,18.6,15.2,33.8,33.8,33.8s33.8-15.2,33.8-33.8c0-15.1-9.1-27.5-23.3-31.8
		c-2-0.6-3.2-2.7-2.6-4.8c0.6-2,2.7-3.2,4.8-2.6c17.5,5.2,28.8,20.6,28.8,39.1C238.3-504.2,219.7-485.6,196.8-485.6z"/>
	<path class="st0" d="M196.9-537.4L196.9-537.4c-2.5,0-4.4-2-4.4-4.4l-0.1-31.7c0-2.5,2-4.4,4.4-4.4l0,0c2.5,0,4.4,2,4.4,4.4
		l0.1,31.7C201.4-539.4,199.4-537.4,196.9-537.4z"/>
</g>
<g>
	<g>
		<circle class="st1" cx="703.9" cy="-548.7" r="9.5"/>
		<path class="st1" d="M730.8-572h-53.7c-4.3,0-7.8,3.5-7.8,7.8v31.1c0,4.3,3.5,7.8,7.8,7.8h53.7c4.3,0,7.8-3.5,7.8-7.8v-31.1
			C738.6-568.6,735.1-572,730.8-572z M703.9-534.1c-8.1,0-14.7-6.6-14.7-14.7c0-8.1,6.6-14.7,14.7-14.7s14.7,6.6,14.7,14.7
			C718.6-540.6,712-534.1,703.9-534.1z"/>
	</g>
	<path class="st1" d="M753.4-530.6c-2.3-1.8-4.6-2.7-6.1-3.3s-2.3-0.9-2.3-0.9s0.7,0.4,2.1,1.3c1.3,0.9,3.2,2.2,5,4.3
		c0.9,1,1.6,2.2,2,3.5c0.3,1.3,0.2,2.7-0.5,3.8c-1.4,2.5-4.7,4.3-8.2,5.7c-7.2,2.7-15.7,3.7-23.1,4.2c-2.9,0.2-5.7,0.2-8.1,0.2v11.4
		c2.9-0.3,6.1-0.9,9.5-1.5c7.9-1.7,16.8-4.3,24.5-8.9c1.9-1.2,3.7-2.5,5.3-4c1.6-1.5,3-3.3,3.7-5.6c0.7-2.1,0.5-4.6-0.4-6.3
		C755.9-528.6,754.6-529.7,753.4-530.6z"/>
	<path class="st1" d="M660.4-510.8c7.7,4.6,16.6,7.2,24.5,8.9c2.6,0.5,5.1,1,7.5,1.3v6.8l13.9-12l-13.9-12v5.9c-1.9,0-4-0.1-6.1-0.2
		c-7.4-0.4-15.9-1.4-23.1-4.1c-3.5-1.3-6.8-3.2-8.3-5.6c-0.7-1.2-1-2.5-0.5-3.8c0.3-1.3,1.1-2.6,1.9-3.5c1.7-2,3.6-3.3,5-4.3
		c1.3-0.9,2.1-1.3,2.1-1.3s-0.9,0.2-2.3,0.9s-3.6,1.5-6.1,3.3c-1.2,1-2.5,2.1-3.3,3.8s-1.1,4.2-0.3,6.3c0.7,2.1,2.2,4,3.8,5.6
		C656.7-513.3,658.5-512,660.4-510.8z"/>
</g>
<g>
	<path class="st1" d="M1157.7-403.2l109.4,63.1c1.2,0.7,2.6,0.7,3.8,0l109.4-63.1c1.3-0.7,1.3-2.5,0-3.3l-109.4-63.1
		c-1.2-0.7-2.6-0.7-3.8,0l-109.4,63.1C1156.5-405.7,1156.5-403.9,1157.7-403.2z"/>
	<path class="st10" d="M1282.4-476.4l109.4,63.1c1.2,0.7,2.6,0.7,3.8,0l64.6-113.7c1.3-0.7,1.3-2.5,0-3.3l-109.4-63.1
		c-1.2-0.7-2.6-0.7-3.8,0l-64.6,113.7C1281.2-478.9,1281.2-477.1,1282.4-476.4z"/>
	<path class="st11" d="M1150.2-261l109.6,63.4c1.3,0.7,2.8-0.2,2.8-1.6v-125.8c0-1.4-0.7-2.6-1.9-3.3l-109.6-63.2
		c-1.3-0.7-2.8,0.2-2.8,1.6v125.6C1148.3-262.9,1149.1-261.7,1150.2-261z"/>
	<path class="st10" d="M1388-261.2l-109.6,63.4c-1.3,0.7-2.8-0.2-2.8-1.6v-125.8c0-1.4,0.7-2.6,1.9-3.3l109.6-63.2
		c1.3-0.7,2.8,0.2,2.8,1.6v125.6C1389.8-263.2,1389.1-261.9,1388-261.2z"/>
	<g>
		<defs>
			<path id="SVGID_15_" d="M1157.7-403.2l109.4,63.1c1.2,0.7,2.6,0.7,3.8,0l109.4-63.1c1.3-0.7,1.3-2.5,0-3.3l-109.4-63.1
				c-1.2-0.7-2.6-0.7-3.8,0l-109.4,63.1C1156.5-405.7,1156.5-403.9,1157.7-403.2z"/>
		</defs>
		<clipPath id="SVGID_16_">
			<use xlink:href="#SVGID_15_"  style="overflow:visible;"/>
		</clipPath>
		<rect x="1129.9" y="-475.2" class="st21" width="139" height="142.2"/>
	</g>
	<path class="st5" d="M1324.6-283.8v14.3c0,2.6-2.1,6-4.8,7.5l-2.4,1.4c0-8,0-15.9,0-23.9l2.4-1.4
		C1322.4-287.4,1324.6-286.5,1324.6-283.8z M1369.9-302.4c0-5.8-4.1-8.2-9.5-6.2v-7.6c0-14.5-11.8-19.5-26.3-11.2
		c-14.5,8.3-26.3,26.8-26.3,41.3v7.6c-5.4,4.2-9.5,11.4-9.5,17.2c0,7.4,7.2,7.6,14.3,3.5c0-11.1,0-20,0-31c0-11.8,9.6-27,21.5-33.8
		c11.8-6.8,21.5-2.7,21.5,9.2c0,4.3,0,25.7,0,28.6c0,3.9-3.2,9-7.2,11.3l-7.6,4.4c-1-2.2-3.6-2.7-6.7-0.9c-3.9,2.3-7.2,7.3-7.2,11.3
		s3.2,5.3,7.2,3.1c3.1-1.8,5.7-5.3,6.7-8.6l7.6-4.4c6-3.4,10.9-10.7,11.8-16.9C1365.5-290.3,1369.9-296.7,1369.9-302.4z
		 M1350.8-279.8c0-4.8,0-19,0-23.9l-2.4,1.4c-2.6,1.5-4.8,4.9-4.8,7.5v14.3c0,2.6,2.1,3.5,4.8,2L1350.8-279.8z"/>
	<path class="st9" d="M1205.5-327.4c-15-8.7-27.2-3.6-27.2,11.4c0,15,12.2,34.3,27.2,43c15,8.7,27.2,3.6,27.2-11.4
		C1232.7-299.4,1220.5-318.7,1205.5-327.4z M1205.5-283.5c-8.1-4.7-14.6-15.1-14.6-23.2c0-8.1,6.6-10.8,14.6-6.1
		s14.6,15.1,14.6,23.2C1220.1-281.5,1213.6-278.8,1205.5-283.5z M1209.7-295.7c0,2.3-1.9,3.1-4.2,1.7c-2.3-1.3-4.2-4.3-4.2-6.6
		s1.9-3.1,4.2-1.7C1207.8-300.9,1209.7-298,1209.7-295.7z M1236.2-250.3c1.3,2.1,0.4,3.8-1.5,2.7l-58.6-34.1
		c-1.9-1.1-2.8-3.9-1.5-4.4l8.4-3.5c0.3-0.1,0.7-0.1,1.2,0.1c5.6,8.4,13,15.9,21.2,20.7c8.2,4.8,15.6,5.9,21.2,4
		c0.4,0.3,0.9,0.7,1.2,1.3L1236.2-250.3z"/>
	<path class="st7" d="M1404.5-509.8l-11.8-6.9c-1.6-0.9-3.7-0.4-4.7,1.2l-6.9,11.8c-0.9,1.6-0.4,3.7,1.2,4.7l3,1.7l-4.2,7.3l-16.4,1
		l26-44.7l0.8,6.8c0.2,1.9,1.9,3.2,3.8,3c1.9-0.2,3.2-1.9,3-3.8l-2-17c0-0.1-0.1-0.1-0.1-0.2c-0.4-2.1-2.4-3.3-4.5-2.6
		c-0.1,0-0.1,0-0.2,0l-15.7,6.7c-1.7,0.7-2.5,2.7-1.8,4.5c0.7,1.7,2.7,2.6,4.5,1.8l6.3-2.7l-32.8,56.6l-7.2-14.7l4.5-7.8
		c4.1,0.8,8.5-1,10.7-4.9c2.8-4.9,1.2-11.2-3.7-14c-4.9-2.8-11.2-1.2-14,3.7c-2.2,3.8-1.6,8.5,1.1,11.8l-5.5,9.4
		c-0.6,1-0.6,2.2-0.1,3.2l10.1,20.5l-5.9,10.2c-0.9,1.6-0.4,3.7,1.2,4.7c1.6,0.9,3.7,0.4,4.7-1.2l12.8-22.1l22.8-1.4
		c1.1-0.1,2.2-0.7,2.7-1.7l5.1-8.9l3,1.7c1.6,0.9,3.7,0.4,4.7-1.2l6.9-11.8C1406.7-506.7,1406.1-508.8,1404.5-509.8z M1352.8-516.1
		c1.6,0.9,2.2,3,1.2,4.7c-0.9,1.6-3,2.2-4.7,1.2c-1.6-0.9-2.2-3-1.2-4.7C1349.1-516.5,1351.2-517,1352.8-516.1z M1394.7-499.7
		l-5.9-3.4l3.4-5.9l5.9,3.4L1394.7-499.7z"/>
</g>
<g>
	<g>
		<g>
			<circle class="st5" cx="1223.9" cy="-548.7" r="9.5"/>
			<path class="st5" d="M1250.8-572h-53.7c-4.3,0-7.8,3.5-7.8,7.8v31.1c0,4.3,3.5,7.8,7.8,7.8h53.7c4.3,0,7.8-3.5,7.8-7.8v-31.1
				C1258.6-568.6,1255.1-572,1250.8-572z M1223.9-534.1c-8.1,0-14.7-6.6-14.7-14.7c0-8.1,6.6-14.7,14.7-14.7s14.7,6.6,14.7,14.7
				C1238.6-540.6,1232-534.1,1223.9-534.1z"/>
		</g>
		<path class="st5" d="M1273.4-530.6c-2.3-1.8-4.6-2.7-6.1-3.3c-1.5-0.6-2.3-0.9-2.3-0.9s0.7,0.4,2.1,1.3c1.3,0.9,3.2,2.2,5,4.3
			c0.9,1,1.6,2.2,2,3.5c0.3,1.3,0.2,2.7-0.5,3.8c-1.4,2.5-4.7,4.3-8.2,5.7c-7.2,2.7-15.7,3.7-23.1,4.2c-2.9,0.2-5.7,0.2-8.1,0.2
			v11.4c2.9-0.3,6.1-0.9,9.5-1.5c7.9-1.7,16.8-4.3,24.5-8.9c1.9-1.2,3.7-2.5,5.3-4s3-3.3,3.7-5.6c0.7-2.1,0.5-4.6-0.4-6.3
			C1275.9-528.6,1274.6-529.7,1273.4-530.6z"/>
		<path class="st5" d="M1180.4-510.8c7.7,4.6,16.6,7.2,24.5,8.9c2.6,0.5,5.1,1,7.5,1.3v6.8l13.9-12l-13.9-12v5.9
			c-1.9,0-4-0.1-6.1-0.2c-7.4-0.4-15.9-1.4-23.1-4.1c-3.5-1.3-6.8-3.2-8.3-5.6c-0.7-1.2-1-2.5-0.5-3.8c0.3-1.3,1.1-2.6,1.9-3.5
			c1.7-2,3.6-3.3,5-4.3c1.3-0.9,2.1-1.3,2.1-1.3s-0.9,0.2-2.3,0.9c-1.5,0.6-3.6,1.5-6.1,3.3c-1.2,1-2.5,2.1-3.3,3.8
			s-1.1,4.2-0.3,6.3c0.7,2.1,2.2,4,3.8,5.6C1176.7-513.3,1178.5-512,1180.4-510.8z"/>
	</g>
</g>
<path class="st1" d="M1741.4-573c-0.3-0.2-0.8-0.1-1.1,0.1l-24,20h-23.9c-0.6,0-1,0.5-1,1v32.3c0,0.6,0.5,1,1,1h23.9l24,20
	c0.2,0.2,0.4,0.2,0.6,0.2c0.1,0,0.3,0,0.4-0.1c0.4-0.2,0.6-0.5,0.6-0.9v-72.8C1742-572.4,1741.7-572.8,1741.4-573z"/>
<path class="st22" d="M1759.8-548.1c-0.4,0.4-0.4,1,0,1.4c2.9,2.9,4.4,6.7,4.4,10.7s-1.6,7.9-4.4,10.7c-0.4,0.4-0.4,1,0,1.4
	c0.2,0.2,0.5,0.3,0.7,0.3s0.5-0.1,0.7-0.3c3.2-3.2,5-7.6,5-12.2s-1.8-8.9-5-12.2C1760.8-548.5,1760.2-548.5,1759.8-548.1z"/>
<path class="st22" d="M1769.8-556.7c-0.4-0.4-1-0.4-1.4,0c-0.4,0.4-0.4,1,0,1.4c10.6,10.6,10.6,28,0,38.6c-0.4,0.4-0.4,1,0,1.4
	c0.2,0.2,0.5,0.3,0.7,0.3s0.5-0.1,0.7-0.3c5.5-5.5,8.6-12.9,8.6-20.7S1775.3-551.1,1769.8-556.7z"/>
<path class="st22" d="M1778.3-565.3c-0.4-0.4-1-0.4-1.4,0c-0.4,0.4-0.4,1,0,1.4c15.4,15.4,15.4,40.4,0,55.8c-0.4,0.4-0.4,1,0,1.4
	c0.2,0.2,0.5,0.3,0.7,0.3s0.5-0.1,0.7-0.3C1794.5-522.8,1794.5-549.1,1778.3-565.3z"/>
<g>
	<path class="st1" d="M2197.7-403.2l109.4,63.1c1.2,0.7,2.6,0.7,3.8,0l109.4-63.1c1.3-0.7,1.3-2.5,0-3.3l-109.4-63.1
		c-1.2-0.7-2.6-0.7-3.8,0l-109.4,63.1C2196.5-405.7,2196.5-403.9,2197.7-403.2z"/>
	<path class="st10" d="M2322.4-476.4l109.4,63.1c1.2,0.7,2.6,0.7,3.8,0l64.6-113.7c1.3-0.7,1.3-2.5,0-3.3l-109.4-63.1
		c-1.2-0.7-2.6-0.7-3.8,0l-64.6,113.7C2321.2-478.9,2321.2-477.1,2322.4-476.4z"/>
	<path class="st11" d="M2190.2-261l109.6,63.4c1.3,0.7,2.8-0.2,2.8-1.6v-125.8c0-1.4-0.7-2.6-1.9-3.3l-109.6-63.2
		c-1.3-0.7-2.8,0.2-2.8,1.6v125.6C2188.3-262.9,2189.1-261.7,2190.2-261z"/>
	<path class="st10" d="M2428-261.2l-109.6,63.4c-1.3,0.7-2.8-0.2-2.8-1.6v-125.8c0-1.4,0.7-2.6,1.9-3.3l109.6-63.2
		c1.3-0.7,2.8,0.2,2.8,1.6v125.6C2429.8-263.2,2429.1-261.9,2428-261.2z"/>
	<g>
		<defs>
			<path id="SVGID_17_" d="M2197.7-403.2l109.4,63.1c1.2,0.7,2.6,0.7,3.8,0l109.4-63.1c1.3-0.7,1.3-2.5,0-3.3l-109.4-63.1
				c-1.2-0.7-2.6-0.7-3.8,0l-109.4,63.1C2196.5-405.7,2196.5-403.9,2197.7-403.2z"/>
		</defs>
		<clipPath id="SVGID_18_">
			<use xlink:href="#SVGID_17_"  style="overflow:visible;"/>
		</clipPath>
		<rect x="2169.9" y="-475.2" class="st23" width="139" height="142.2"/>
	</g>
	<path class="st5" d="M2364.6-283.8v14.3c0,2.6-2.1,6-4.8,7.5l-2.4,1.4c0-8,0-15.9,0-23.9l2.4-1.4
		C2362.4-287.4,2364.6-286.5,2364.6-283.8z M2409.9-302.4c0-5.8-4.1-8.2-9.5-6.2v-7.6c0-14.5-11.8-19.5-26.3-11.2
		c-14.5,8.3-26.3,26.8-26.3,41.3v7.6c-5.4,4.2-9.5,11.4-9.5,17.2c0,7.4,7.2,7.6,14.3,3.5c0-11.1,0-20,0-31c0-11.8,9.6-27,21.5-33.8
		c11.8-6.8,21.5-2.7,21.5,9.2c0,4.3,0,25.7,0,28.6c0,3.9-3.2,9-7.2,11.3l-7.6,4.4c-1-2.2-3.6-2.7-6.7-0.9c-3.9,2.3-7.2,7.3-7.2,11.3
		s3.2,5.3,7.2,3.1c3.1-1.8,5.7-5.3,6.7-8.6l7.6-4.4c6-3.4,10.9-10.7,11.8-16.9C2405.5-290.3,2409.9-296.7,2409.9-302.4z
		 M2390.8-279.8c0-4.8,0-19,0-23.9l-2.4,1.4c-2.6,1.5-4.8,4.9-4.8,7.5v14.3c0,2.6,2.1,3.5,4.8,2L2390.8-279.8z"/>
	<path class="st9" d="M2245.5-327.4c-15-8.7-27.2-3.6-27.2,11.4c0,15,12.2,34.3,27.2,43c15,8.7,27.2,3.6,27.2-11.4
		C2272.7-299.4,2260.5-318.7,2245.5-327.4z M2245.5-283.5c-8.1-4.7-14.6-15.1-14.6-23.2c0-8.1,6.6-10.8,14.6-6.1
		s14.6,15.1,14.6,23.2C2260.1-281.5,2253.6-278.8,2245.5-283.5z M2249.7-295.7c0,2.3-1.9,3.1-4.2,1.7s-4.2-4.3-4.2-6.6
		s1.9-3.1,4.2-1.7S2249.7-298,2249.7-295.7z M2276.2-250.3c1.3,2.1,0.4,3.8-1.5,2.7l-58.6-34.1c-1.9-1.1-2.8-3.9-1.5-4.4l8.4-3.5
		c0.3-0.1,0.7-0.1,1.2,0.1c5.6,8.4,13,15.9,21.2,20.7c8.2,4.8,15.6,5.9,21.2,4c0.4,0.3,0.9,0.7,1.2,1.3L2276.2-250.3z"/>
	<path class="st7" d="M2444.5-509.8l-11.8-6.9c-1.6-0.9-3.7-0.4-4.7,1.2l-6.9,11.8c-0.9,1.6-0.4,3.7,1.2,4.7l3,1.7l-4.2,7.3l-16.4,1
		l26-44.7l0.8,6.8c0.2,1.9,1.9,3.2,3.8,3c1.9-0.2,3.2-1.9,3-3.8l-2-17c0-0.1-0.1-0.1-0.1-0.2c-0.4-2.1-2.4-3.3-4.5-2.6
		c-0.1,0-0.1,0-0.2,0l-15.7,6.7c-1.7,0.7-2.5,2.7-1.8,4.5c0.7,1.7,2.7,2.6,4.5,1.8l6.3-2.7l-32.8,56.6l-7.2-14.7l4.5-7.8
		c4.1,0.8,8.5-1,10.7-4.9c2.8-4.9,1.2-11.2-3.7-14c-4.9-2.8-11.2-1.2-14,3.7c-2.2,3.8-1.6,8.5,1.1,11.8l-5.5,9.4
		c-0.6,1-0.6,2.2-0.1,3.2l10.1,20.5l-5.9,10.2c-0.9,1.6-0.4,3.7,1.2,4.7c1.6,0.9,3.7,0.4,4.7-1.2l12.8-22.1l22.8-1.4
		c1.1-0.1,2.2-0.7,2.7-1.7l5.1-8.9l3,1.7c1.6,0.9,3.7,0.4,4.7-1.2l6.9-11.8C2446.7-506.7,2446.1-508.8,2444.5-509.8z M2392.8-516.1
		c1.6,0.9,2.2,3,1.2,4.7c-0.9,1.6-3,2.2-4.7,1.2c-1.6-0.9-2.2-3-1.2-4.7C2389.1-516.5,2391.2-517,2392.8-516.1z M2434.7-499.7
		l-5.9-3.4l3.4-5.9l5.9,3.4L2434.7-499.7z"/>
</g>
<path class="st0" d="M2261.4-573c-0.3-0.2-0.8-0.1-1.1,0.1l-24,20h-23.9c-0.6,0-1,0.5-1,1v32.3c0,0.6,0.5,1,1,1h23.9l24,20
	c0.2,0.2,0.4,0.2,0.6,0.2c0.1,0,0.3,0,0.4-0.1c0.4-0.2,0.6-0.5,0.6-0.9v-72.8C2262-572.4,2261.7-572.8,2261.4-573z"/>
<path class="st24" d="M2279.8-548.1c-0.4,0.4-0.4,1,0,1.4c2.9,2.9,4.4,6.7,4.4,10.7s-1.6,7.9-4.4,10.7c-0.4,0.4-0.4,1,0,1.4
	c0.2,0.2,0.5,0.3,0.7,0.3s0.5-0.1,0.7-0.3c3.2-3.2,5-7.6,5-12.2s-1.8-8.9-5-12.2C2280.8-548.5,2280.2-548.5,2279.8-548.1z"/>
<path class="st24" d="M2289.8-556.7c-0.4-0.4-1-0.4-1.4,0c-0.4,0.4-0.4,1,0,1.4c10.6,10.6,10.6,28,0,38.6c-0.4,0.4-0.4,1,0,1.4
	c0.2,0.2,0.5,0.3,0.7,0.3s0.5-0.1,0.7-0.3c5.5-5.5,8.6-12.9,8.6-20.7S2295.3-551.1,2289.8-556.7z"/>
<path class="st24" d="M2298.3-565.3c-0.4-0.4-1-0.4-1.4,0c-0.4,0.4-0.4,1,0,1.4c15.4,15.4,15.4,40.4,0,55.8c-0.4,0.4-0.4,1,0,1.4
	c0.2,0.2,0.5,0.3,0.7,0.3s0.5-0.1,0.7-0.3C2314.5-522.8,2314.5-549.1,2298.3-565.3z"/>
<g>
	<g>
		<path class="st1" d="M2745.2-501.2c2.9,0,5.2-2.3,5.2-5.2c0-2.9-2.3-5.2-5.2-5.2c-2.9,0-5.2,2.3-5.2,5.2
			C2740-503.5,2742.4-501.2,2745.2-501.2z"/>
		<path class="st1" d="M2745.2-500.1c-5.2,0-9.5,4.2-9.5,9.5v7.8h18.9v-7.8C2754.7-495.9,2750.4-500.1,2745.2-500.1z"/>
	</g>
	<g>
		<path class="st1" d="M2769.8-501.2c2.9,0,5.2-2.3,5.2-5.2c0-2.9-2.3-5.2-5.2-5.2c-2.9,0-5.2,2.3-5.2,5.2
			C2764.6-503.5,2766.9-501.2,2769.8-501.2z"/>
		<path class="st1" d="M2769.8-500.1c-5.2,0-9.5,4.2-9.5,9.5v7.8h18.9v-7.8C2779.2-495.9,2775-500.1,2769.8-500.1z"/>
	</g>
	<g>
		<path class="st1" d="M2794.3-501.2c2.9,0,5.2-2.3,5.2-5.2c0-2.9-2.3-5.2-5.2-5.2c-2.9,0-5.2,2.3-5.2,5.2
			C2789.1-503.5,2791.5-501.2,2794.3-501.2z"/>
		<path class="st1" d="M2794.3-500.1c-5.2,0-9.5,4.2-9.5,9.5v7.8h18.9v-7.8C2803.8-495.9,2799.5-500.1,2794.3-500.1z"/>
	</g>
	<path class="st1" d="M2806.4-568.2v37.8c0,4.3-3.8,7.9-8.5,7.9h-57.3c-4.7,0-8.5-3.5-8.5-7.9v-37.8c0-4.3,3.8-7.9,8.5-7.9h57.3
		C2802.6-576.1,2806.4-572.6,2806.4-568.2z"/>
</g>
<g>
	<path class="st1" d="M3237.7-403.2l109.4,63.1c1.2,0.7,2.6,0.7,3.8,0l109.4-63.1c1.3-0.7,1.3-2.5,0-3.3l-109.4-63.1
		c-1.2-0.7-2.6-0.7-3.8,0l-109.4,63.1C3236.5-405.7,3236.5-403.9,3237.7-403.2z"/>
	<path class="st10" d="M3362.4-476.4l109.4,63.1c1.2,0.7,2.6,0.7,3.8,0l64.6-113.7c1.3-0.7,1.3-2.5,0-3.3l-109.4-63.1
		c-1.2-0.7-2.6-0.7-3.8,0l-64.6,113.7C3361.2-478.9,3361.2-477.1,3362.4-476.4z"/>
	<path class="st11" d="M3230.2-261l109.6,63.4c1.3,0.7,2.8-0.2,2.8-1.6v-125.8c0-1.4-0.7-2.6-1.9-3.3l-109.6-63.2
		c-1.3-0.7-2.8,0.2-2.8,1.6v125.6C3228.3-262.9,3229.1-261.7,3230.2-261z"/>
	<path class="st10" d="M3468-261.2l-109.6,63.4c-1.3,0.7-2.8-0.2-2.8-1.6v-125.8c0-1.4,0.7-2.6,1.9-3.3l109.6-63.2
		c1.3-0.7,2.8,0.2,2.8,1.6v125.6C3469.8-263.2,3469.1-261.9,3468-261.2z"/>
	<g>
		<defs>
			<path id="SVGID_19_" d="M3237.7-403.2l109.4,63.1c1.2,0.7,2.6,0.7,3.8,0l109.4-63.1c1.3-0.7,1.3-2.5,0-3.3l-109.4-63.1
				c-1.2-0.7-2.6-0.7-3.8,0l-109.4,63.1C3236.5-405.7,3236.5-403.9,3237.7-403.2z"/>
		</defs>
		<clipPath id="SVGID_20_">
			<use xlink:href="#SVGID_19_"  style="overflow:visible;"/>
		</clipPath>
		<rect x="3209.9" y="-475.2" class="st25" width="139" height="142.2"/>
	</g>
	<path class="st5" d="M3404.6-283.8v14.3c0,2.6-2.1,6-4.8,7.5l-2.4,1.4c0-8,0-15.9,0-23.9l2.4-1.4
		C3402.4-287.4,3404.6-286.5,3404.6-283.8z M3449.9-302.4c0-5.8-4.1-8.2-9.5-6.2v-7.6c0-14.5-11.8-19.5-26.3-11.2
		c-14.5,8.3-26.3,26.8-26.3,41.3v7.6c-5.4,4.2-9.5,11.4-9.5,17.2c0,7.4,7.2,7.6,14.3,3.5c0-11.1,0-20,0-31c0-11.8,9.6-27,21.5-33.8
		c11.8-6.8,21.5-2.7,21.5,9.2c0,4.3,0,25.7,0,28.6c0,3.9-3.2,9-7.2,11.3l-7.6,4.4c-1-2.2-3.6-2.7-6.7-0.9c-3.9,2.3-7.2,7.3-7.2,11.3
		s3.2,5.3,7.2,3.1c3.1-1.8,5.7-5.3,6.7-8.6l7.6-4.4c6-3.4,10.9-10.7,11.8-16.9C3445.5-290.3,3449.9-296.7,3449.9-302.4z
		 M3430.8-279.8c0-4.8,0-19,0-23.9l-2.4,1.4c-2.6,1.5-4.8,4.9-4.8,7.5v14.3c0,2.6,2.1,3.5,4.8,2L3430.8-279.8z"/>
	<path class="st9" d="M3285.5-327.4c-15-8.7-27.2-3.6-27.2,11.4c0,15,12.2,34.3,27.2,43c15,8.7,27.2,3.6,27.2-11.4
		C3312.7-299.4,3300.5-318.7,3285.5-327.4z M3285.5-283.5c-8.1-4.7-14.6-15.1-14.6-23.2c0-8.1,6.6-10.8,14.6-6.1
		s14.6,15.1,14.6,23.2C3300.1-281.5,3293.6-278.8,3285.5-283.5z M3289.7-295.7c0,2.3-1.9,3.1-4.2,1.7s-4.2-4.3-4.2-6.6
		s1.9-3.1,4.2-1.7S3289.7-298,3289.7-295.7z M3316.2-250.3c1.3,2.1,0.4,3.8-1.5,2.7l-58.6-34.1c-1.9-1.1-2.8-3.9-1.5-4.4l8.4-3.5
		c0.3-0.1,0.7-0.1,1.2,0.1c5.6,8.4,13,15.9,21.2,20.7c8.2,4.8,15.6,5.9,21.2,4c0.4,0.3,0.9,0.7,1.2,1.3L3316.2-250.3z"/>
	<path class="st7" d="M3484.5-509.8l-11.8-6.9c-1.6-0.9-3.7-0.4-4.7,1.2l-6.9,11.8c-0.9,1.6-0.4,3.7,1.2,4.7l3,1.7l-4.2,7.3l-16.4,1
		l26-44.7l0.8,6.8c0.2,1.9,1.9,3.2,3.8,3c1.9-0.2,3.2-1.9,3-3.8l-2-17c0-0.1-0.1-0.1-0.1-0.2c-0.4-2.1-2.4-3.3-4.5-2.6
		c-0.1,0-0.1,0-0.2,0l-15.7,6.7c-1.7,0.7-2.5,2.7-1.8,4.5c0.7,1.7,2.7,2.6,4.5,1.8l6.3-2.7l-32.8,56.6l-7.2-14.7l4.5-7.8
		c4.1,0.8,8.5-1,10.7-4.9c2.8-4.9,1.2-11.2-3.7-14c-4.9-2.8-11.2-1.2-14,3.7c-2.2,3.8-1.6,8.5,1.1,11.8l-5.5,9.4
		c-0.6,1-0.6,2.2-0.1,3.2l10.1,20.5l-5.9,10.2c-0.9,1.6-0.4,3.7,1.2,4.7c1.6,0.9,3.7,0.4,4.7-1.2l12.8-22.1l22.8-1.4
		c1.1-0.1,2.2-0.7,2.7-1.7l5.1-8.9l3,1.7c1.6,0.9,3.7,0.4,4.7-1.2l6.9-11.8C3486.7-506.7,3486.1-508.8,3484.5-509.8z M3432.8-516.1
		c1.6,0.9,2.2,3,1.2,4.7c-0.9,1.6-3,2.2-4.7,1.2c-1.6-0.9-2.2-3-1.2-4.7C3429.1-516.5,3431.2-517,3432.8-516.1z M3474.7-499.7
		l-5.9-3.4l3.4-5.9l5.9,3.4L3474.7-499.7z"/>
</g>
<g>
	<g>
		<g>
			<path class="st7" d="M3265.2-501.2c2.9,0,5.2-2.3,5.2-5.2c0-2.9-2.3-5.2-5.2-5.2c-2.9,0-5.2,2.3-5.2,5.2
				C3260-503.5,3262.4-501.2,3265.2-501.2z"/>
			<g>
				<path class="st7" d="M3265.2-500.1c-5.2,0-9.5,4.2-9.5,9.5v7.8h18.9v-7.8C3274.7-495.9,3270.4-500.1,3265.2-500.1z"/>
			</g>
		</g>
		<g>
			<path class="st7" d="M3289.8-501.2c2.9,0,5.2-2.3,5.2-5.2c0-2.9-2.3-5.2-5.2-5.2c-2.9,0-5.2,2.3-5.2,5.2
				C3284.6-503.5,3286.9-501.2,3289.8-501.2z"/>
			<g>
				<path class="st7" d="M3289.8-500.1c-5.2,0-9.5,4.2-9.5,9.5v7.8h18.9v-7.8C3299.2-495.9,3295-500.1,3289.8-500.1z"/>
			</g>
		</g>
		<g>
			<path class="st7" d="M3314.3-501.2c2.9,0,5.2-2.3,5.2-5.2c0-2.9-2.3-5.2-5.2-5.2c-2.9,0-5.2,2.3-5.2,5.2
				C3309.1-503.5,3311.5-501.2,3314.3-501.2z"/>
			<g>
				<path class="st7" d="M3314.3-500.1c-5.2,0-9.5,4.2-9.5,9.5v7.8h18.9v-7.8C3323.8-495.9,3319.5-500.1,3314.3-500.1z"/>
			</g>
		</g>
		<path class="st7" d="M3326.4-568.2v37.8c0,4.3-3.8,7.9-8.5,7.9h-57.3c-4.7,0-8.5-3.5-8.5-7.9v-37.8c0-4.3,3.8-7.9,8.5-7.9h57.3
			C3322.6-576.1,3326.4-572.6,3326.4-568.2z"/>
	</g>
</g>
<g>
	<path class="st1" d="M-11842.3,244.9l109.4,63.1c1.2,0.7,2.6,0.7,3.8,0l109.4-63.1c1.3-0.7,1.3-2.5,0-3.3l-109.4-63.1
		c-1.2-0.7-2.6-0.7-3.8,0l-109.4,63.1C-11843.5,242.4-11843.5,244.2-11842.3,244.9z"/>
	<path class="st10" d="M-11717.6,171.7l109.4,63.1c1.2,0.7,2.6,0.7,3.8,0l64.6-113.7c1.3-0.7,1.3-2.5,0-3.3l-109.4-63.1
		c-1.2-0.7-2.6-0.7-3.8,0l-64.6,113.7C-11718.8,169.2-11718.8,171-11717.6,171.7z"/>
	<path class="st11" d="M-11849.8,387.1l109.6,63.4c1.3,0.7,2.8-0.2,2.8-1.6V323c0-1.4-0.7-2.6-1.9-3.3l-109.6-63.2
		c-1.3-0.7-2.8,0.2-2.8,1.6v125.6C-11851.7,385.2-11850.9,386.4-11849.8,387.1z"/>
	<path class="st10" d="M-11612,386.8l-109.6,63.4c-1.3,0.7-2.8-0.2-2.8-1.6V322.7c0-1.4,0.7-2.6,1.9-3.3l109.6-63.2
		c1.3-0.7,2.8,0.2,2.8,1.6v125.6C-11610.2,384.9-11610.9,386.2-11612,386.8z"/>
	<g>
		<defs>
			<path id="SVGID_21_" d="M-11842.3,244.9l109.4,63.1c1.2,0.7,2.6,0.7,3.8,0l109.4-63.1c1.3-0.7,1.3-2.5,0-3.3l-109.4-63.1
				c-1.2-0.7-2.6-0.7-3.8,0l-109.4,63.1C-11843.5,242.4-11843.5,244.2-11842.3,244.9z"/>
		</defs>
		<clipPath id="SVGID_22_">
			<use xlink:href="#SVGID_21_"  style="overflow:visible;"/>
		</clipPath>
		<rect x="-11870.1" y="172.9" class="st26" width="139" height="142.2"/>
	</g>
	<path class="st5" d="M-11675.4,364.2v14.3c0,2.6-2.1,6-4.8,7.5l-2.4,1.4c0-8,0-15.9,0-23.9l2.4-1.4
		C-11677.6,360.7-11675.4,361.6-11675.4,364.2z M-11630.1,345.6c0-5.8-4.1-8.2-9.5-6.2v-7.6c0-14.5-11.8-19.5-26.3-11.2
		c-14.5,8.3-26.3,26.8-26.3,41.3v7.6c-5.4,4.2-9.5,11.4-9.5,17.2c0,7.4,7.2,7.6,14.3,3.5c0-11.1,0-20,0-31c0-11.8,9.6-27,21.5-33.8
		c11.8-6.8,21.5-2.7,21.5,9.2c0,4.3,0,25.7,0,28.6c0,3.9-3.2,9-7.2,11.3l-7.6,4.4c-1-2.2-3.6-2.7-6.7-0.9c-3.9,2.3-7.2,7.3-7.2,11.3
		c0,3.9,3.2,5.3,7.2,3.1c3.1-1.8,5.7-5.3,6.7-8.6l7.6-4.4c6-3.4,10.9-10.7,11.8-16.9C-11634.5,357.8-11630.1,351.4-11630.1,345.6z
		 M-11649.2,368.3c0-4.8,0-19,0-23.9l-2.4,1.4c-2.6,1.5-4.8,4.9-4.8,7.5v14.3c0,2.6,2.1,3.5,4.8,2L-11649.2,368.3z"/>
	<path class="st9" d="M-11794.5,320.7c-15-8.7-27.2-3.6-27.2,11.4s12.2,34.3,27.2,43c15,8.7,27.2,3.6,27.2-11.4
		C-11767.3,348.7-11779.5,329.4-11794.5,320.7z M-11794.5,364.6c-8.1-4.7-14.6-15.1-14.6-23.2s6.6-10.8,14.6-6.1
		s14.6,15.1,14.6,23.2C-11779.9,366.6-11786.4,369.3-11794.5,364.6z M-11790.3,352.4c0,2.3-1.9,3.1-4.2,1.7
		c-2.3-1.3-4.2-4.3-4.2-6.6c0-2.3,1.9-3.1,4.2-1.7C-11792.2,347.1-11790.3,350.1-11790.3,352.4z M-11763.8,397.8
		c1.3,2.1,0.4,3.8-1.5,2.7l-58.6-34.1c-1.9-1.1-2.8-3.9-1.5-4.4l8.4-3.5c0.3-0.1,0.8-0.1,1.2,0.1c5.6,8.4,13,15.9,21.2,20.7
		c8.2,4.8,15.6,5.9,21.2,4c0.4,0.3,0.9,0.7,1.2,1.3L-11763.8,397.8z"/>
	<path class="st7" d="M-11595.5,138.3l-11.8-6.9c-1.6-0.9-3.7-0.4-4.7,1.2l-6.9,11.8c-0.9,1.6-0.4,3.7,1.2,4.7l3,1.7l-4.2,7.3
		l-16.4,1l26-44.7l0.8,6.8c0.2,1.9,1.9,3.2,3.8,3c1.9-0.2,3.2-1.9,3-3.8l-2-17c0-0.1-0.1-0.1-0.1-0.2c-0.4-2.1-2.4-3.3-4.5-2.6
		c-0.1,0-0.1,0-0.2,0l-15.7,6.7c-1.7,0.7-2.5,2.7-1.8,4.5c0.7,1.7,2.7,2.6,4.5,1.8l6.3-2.7l-32.8,56.6l-7.2-14.7l4.5-7.8
		c4.1,0.8,8.5-1,10.7-4.9c2.8-4.9,1.2-11.2-3.7-14c-4.9-2.8-11.2-1.2-14,3.7c-2.2,3.8-1.6,8.5,1.1,11.8l-5.5,9.4
		c-0.6,1-0.6,2.2-0.1,3.2l10.1,20.5l-5.9,10.2c-0.9,1.6-0.4,3.7,1.2,4.7c1.6,0.9,3.7,0.4,4.7-1.2l12.8-22.1l22.8-1.4
		c1.1-0.1,2.2-0.7,2.7-1.7l5.1-8.9l3,1.7c1.6,0.9,3.7,0.4,4.7-1.2l6.9-11.8C-11593.3,141.3-11593.9,139.2-11595.5,138.3z
		 M-11647.2,132c1.6,0.9,2.2,3,1.2,4.7c-0.9,1.6-3,2.2-4.7,1.2c-1.6-0.9-2.2-3-1.2-4.7C-11650.9,131.6-11648.8,131.1-11647.2,132z
		 M-11605.3,148.4l-5.9-3.4l3.4-5.9l5.9,3.4L-11605.3,148.4z"/>
</g>
<g>
	<circle class="st1" cx="-11810.2" cy="86.1" r="9.1"/>
	<path class="st1" d="M-11784.7,63.9h-51.1c-4.1,0-7.4,3.3-7.4,7.4v29.6c0,4.1,3.3,7.4,7.4,7.4h51.1c4.1,0,7.4-3.3,7.4-7.4V71.3
		C-11777.3,67.3-11780.6,63.9-11784.7,63.9z M-11810.2,100.1c-7.7,0-14-6.2-14-14s6.2-14,14-14c7.7,0,14,6.2,14,14
		S-11802.5,100.1-11810.2,100.1z"/>
</g>
<g>
	<circle class="st1" cx="-11778.7" cy="147" r="9.1"/>
	<path class="st1" d="M-11753.2,124.8h-51.1c-4.1,0-7.4,3.3-7.4,7.4v29.6c0,4.1,3.3,7.4,7.4,7.4h51.1c4.1,0,7.4-3.3,7.4-7.4v-29.6
		C-11745.8,128.1-11749.1,124.8-11753.2,124.8z M-11778.7,161c-7.7,0-14-6.2-14-14c0-7.7,6.2-14,14-14c7.7,0,14,6.2,14,14
		C-11764.8,154.7-11771,161-11778.7,161z"/>
</g>
<g>
	<path class="st1" d="M-11336.9,244.9l109.4,63.1c1.2,0.7,2.6,0.7,3.8,0l109.4-63.1c1.3-0.7,1.3-2.5,0-3.3l-109.4-63.1
		c-1.2-0.7-2.6-0.7-3.8,0l-109.4,63.1C-11338.2,242.4-11338.2,244.2-11336.9,244.9z"/>
	<path class="st10" d="M-11212.2,171.7l109.4,63.1c1.2,0.7,2.6,0.7,3.8,0l64.6-113.7c1.3-0.7,1.3-2.5,0-3.3l-109.4-63.1
		c-1.2-0.7-2.6-0.7-3.8,0l-64.6,113.7C-11213.5,169.2-11213.5,171-11212.2,171.7z"/>
	<path class="st11" d="M-11344.4,387.1l109.6,63.4c1.3,0.7,2.8-0.2,2.8-1.6V323c0-1.4-0.7-2.6-1.9-3.3l-109.6-63.2
		c-1.3-0.7-2.8,0.2-2.8,1.6v125.6C-11346.3,385.2-11345.6,386.4-11344.4,387.1z"/>
	<path class="st10" d="M-11106.7,386.8l-109.6,63.4c-1.3,0.7-2.8-0.2-2.8-1.6V322.7c0-1.4,0.7-2.6,1.9-3.3l109.6-63.2
		c1.3-0.7,2.8,0.2,2.8,1.6v125.6C-11104.8,384.9-11105.5,386.2-11106.7,386.8z"/>
	<g>
		<defs>
			<path id="SVGID_23_" d="M-11336.9,244.9l109.4,63.1c1.2,0.7,2.6,0.7,3.8,0l109.4-63.1c1.3-0.7,1.3-2.5,0-3.3l-109.4-63.1
				c-1.2-0.7-2.6-0.7-3.8,0l-109.4,63.1C-11338.2,242.4-11338.2,244.2-11336.9,244.9z"/>
		</defs>
		<clipPath id="SVGID_24_">
			<use xlink:href="#SVGID_23_"  style="overflow:visible;"/>
		</clipPath>
		<rect x="-11364.7" y="172.9" class="st27" width="139" height="142.2"/>
	</g>
	<path class="st5" d="M-11170.1,364.2v14.3c0,2.6-2.1,6-4.8,7.5l-2.4,1.4c0-8,0-15.9,0-23.9l2.4-1.4
		C-11172.2,360.7-11170.1,361.6-11170.1,364.2z M-11124.7,345.6c0-5.8-4.1-8.2-9.5-6.2v-7.6c0-14.5-11.8-19.5-26.3-11.2
		c-14.5,8.3-26.3,26.8-26.3,41.3v7.6c-5.4,4.2-9.5,11.4-9.5,17.2c0,7.4,7.2,7.6,14.3,3.5c0-11.1,0-20,0-31c0-11.8,9.6-27,21.5-33.8
		c11.8-6.8,21.5-2.7,21.5,9.2c0,4.3,0,25.7,0,28.6c0,3.9-3.2,9-7.2,11.3l-7.6,4.4c-1-2.2-3.6-2.7-6.7-0.9c-3.9,2.3-7.2,7.3-7.2,11.3
		c0,3.9,3.2,5.3,7.2,3.1c3.1-1.8,5.7-5.3,6.7-8.6l7.6-4.4c6-3.4,10.9-10.7,11.8-16.9C-11129.1,357.8-11124.7,351.4-11124.7,345.6z
		 M-11143.8,368.3c0-4.8,0-19,0-23.9l-2.4,1.4c-2.6,1.5-4.8,4.9-4.8,7.5v14.3c0,2.6,2.1,3.5,4.8,2L-11143.8,368.3z"/>
	<path class="st9" d="M-11289.1,320.7c-15-8.7-27.2-3.6-27.2,11.4s12.2,34.3,27.2,43c15,8.7,27.2,3.6,27.2-11.4
		C-11262,348.7-11274.1,329.4-11289.1,320.7z M-11289.1,364.6c-8.1-4.7-14.6-15.1-14.6-23.2s6.6-10.8,14.6-6.1s14.6,15.1,14.6,23.2
		C-11274.5,366.6-11281.1,369.3-11289.1,364.6z M-11285,352.4c0,2.3-1.9,3.1-4.2,1.7c-2.3-1.3-4.2-4.3-4.2-6.6
		c0-2.3,1.9-3.1,4.2-1.7C-11286.8,347.1-11285,350.1-11285,352.4z M-11258.4,397.8c1.3,2.1,0.4,3.8-1.5,2.7l-58.6-34.1
		c-1.9-1.1-2.8-3.9-1.5-4.4l8.4-3.5c0.3-0.1,0.8-0.1,1.2,0.1c5.6,8.4,13,15.9,21.2,20.7c8.2,4.8,15.6,5.9,21.2,4
		c0.4,0.3,0.9,0.7,1.2,1.3L-11258.4,397.8z"/>
	<path class="st7" d="M-11090.1,138.3l-11.8-6.9c-1.6-0.9-3.7-0.4-4.7,1.2l-6.9,11.8c-0.9,1.6-0.4,3.7,1.2,4.7l3,1.7l-4.2,7.3
		l-16.4,1l26-44.7l0.8,6.8c0.2,1.9,1.9,3.2,3.8,3c1.9-0.2,3.2-1.9,3-3.8l-2-17c0-0.1-0.1-0.1-0.1-0.2c-0.4-2.1-2.4-3.3-4.5-2.6
		c-0.1,0-0.1,0-0.2,0l-15.7,6.7c-1.7,0.7-2.5,2.7-1.8,4.5c0.7,1.7,2.7,2.6,4.5,1.8l6.3-2.7l-32.8,56.6l-7.2-14.7l4.5-7.8
		c4.1,0.8,8.5-1,10.7-4.9c2.8-4.9,1.2-11.2-3.7-14c-4.9-2.8-11.2-1.2-14,3.7c-2.2,3.8-1.6,8.5,1.1,11.8l-5.5,9.4
		c-0.6,1-0.6,2.2-0.1,3.2l10.1,20.5l-5.9,10.2c-0.9,1.6-0.4,3.7,1.2,4.7c1.6,0.9,3.7,0.4,4.7-1.2l12.8-22.1l22.8-1.4
		c1.1-0.1,2.2-0.7,2.7-1.7l5.1-8.9l3,1.7c1.6,0.9,3.7,0.4,4.7-1.2l6.9-11.8C-11088,141.3-11088.5,139.2-11090.1,138.3z
		 M-11141.8,132c1.6,0.9,2.2,3,1.2,4.7c-0.9,1.6-3,2.2-4.7,1.2c-1.6-0.9-2.2-3-1.2-4.7C-11145.6,131.6-11143.5,131.1-11141.8,132z
		 M-11100,148.4l-5.9-3.4l3.4-5.9l5.9,3.4L-11100,148.4z"/>
</g>
<g>
	<circle class="st8" cx="-11304.9" cy="86.1" r="9.1"/>
	<path class="st8" d="M-11279.3,63.9h-51.1c-4.1,0-7.4,3.3-7.4,7.4v29.6c0,4.1,3.3,7.4,7.4,7.4h51.1c4.1,0,7.4-3.3,7.4-7.4V71.3
		C-11271.9,67.3-11275.2,63.9-11279.3,63.9z M-11304.9,100.1c-7.7,0-14-6.2-14-14s6.2-14,14-14c7.7,0,14,6.2,14,14
		S-11297.2,100.1-11304.9,100.1z"/>
</g>
<g>
	<circle class="st8" cx="-11273.4" cy="147" r="9.1"/>
	<path class="st8" d="M-11247.8,124.8h-51.1c-4.1,0-7.4,3.3-7.4,7.4v29.6c0,4.1,3.3,7.4,7.4,7.4h51.1c4.1,0,7.4-3.3,7.4-7.4v-29.6
		C-11240.4,128.1-11243.7,124.8-11247.8,124.8z M-11273.4,161c-7.7,0-14-6.2-14-14c0-7.7,6.2-14,14-14c7.7,0,14,6.2,14,14
		C-11259.4,154.7-11265.7,161-11273.4,161z"/>
</g>
<g>
	<path class="st4" d="M-2384.1,297.8c-32,0-58.1,25-60,56.5h120C-2326,322.8-2352.1,297.8-2384.1,297.8z"/>
	<path class="st4" d="M-2384.1,284.2c15.1,0,27.3-12.2,27.3-27.3s-12.2-27.3-27.3-27.3c-15.1,0-27.3,12.2-27.3,27.3
		S-2399.2,284.2-2384.1,284.2z"/>
	<path class="st4" d="M-2247.2,145.7h-98.6c-6.5,0-11.8,5.3-11.8,11.8v60.3c0,6.5,5.3,11.8,11.8,11.8h4.3v24.5l24.5-24.5h69.8
		c6.5,0,11.8-5.3,11.8-11.8v-60.3C-2235.4,151-2240.7,145.7-2247.2,145.7z"/>
</g>
<circle class="st28" cx="-1830" cy="250" r="186.3"/>
<g>
	<path class="st4" d="M-1867.1,297.8c-32,0-58.1,25-60,56.5h120C-1809,322.8-1835.1,297.8-1867.1,297.8z"/>
	<path class="st4" d="M-1867.1,284.2c15.1,0,27.3-12.2,27.3-27.3s-12.2-27.3-27.3-27.3c-15.1,0-27.3,12.2-27.3,27.3
		S-1882.2,284.2-1867.1,284.2z"/>
	<path class="st4" d="M-1730.2,145.7h-98.6c-6.5,0-11.8,5.3-11.8,11.8v60.3c0,6.5,5.3,11.8,11.8,11.8h4.3v24.5l24.5-24.5h69.8
		c6.5,0,11.8-5.3,11.8-11.8v-60.3C-1718.4,151-1723.7,145.7-1730.2,145.7z"/>
</g>
<path class="st4" d="M-3326.8,287.6c0-1.8,0.9-3.4,2.4-4.4c8.6-5.5,11.2-16.7,6-25.4l-11.1-18.5c-2.6-4.3-3.9-9.5-3.9-15.3
	c0-49-39.7-88.7-88.6-88.7c-45.8,0-82.1,36.6-87.7,75.5c-2.9,20.2,0.9,40.1,11,57.4c13.1,22.6,19.8,45.4,19.8,67.8v16.3
	c0,6.9,5.6,12.5,12.5,12.5h78.6c6.9,0,12.5-5.6,12.5-12.5c0-6.7,5.4-12.1,12.1-12.1h10.9c14.1,0,25.6-11.5,25.6-25.6v-3V287.6z
	 M-3410.5,149.7c36,5.6,63.6,36.6,63.6,74.1c0,8.3,2,16,5.8,22.4l11.1,18.5c1.5,2.4,0.7,5.6-1.7,7.1c-5.4,3.5-8.6,9.4-8.6,15.8v9.8
	V311v3.6c0,6.7-5.4,12.1-12.1,12.1h-10.9c-13.8,0-25,10.9-25.6,24.6h-76.6V336c0-24.8-7.3-49.9-21.6-74.6
	c-8.6-14.7-11.8-31.6-9.3-48.7c3.9-27.1,23.2-49.9,48.3-59.3C-3448,153.4-3436.1,146.6-3410.5,149.7z"/>
<g>
	<polygon class="st4" points="-5424.5,136.8 -5424.5,179.7 -5381.6,179.7 	"/>
	<path class="st4" d="M-5429.2,189.1c-2.6,0-4.7-2.1-4.7-4.7v-50.3h-112.1c-2.6,0-4.7,2.1-4.7,4.7v222.5c0,2.6,2.1,4.7,4.7,4.7
		h162.4c2.7,0,4.7-2.1,4.7-4.7V189.1H-5429.2z M-5388.2,356.6h-153V143.4h98v41c0,7.8,6.3,14.1,14.1,14.1h41V356.6z"/>
	<path class="st4" d="M-5508.8,297.8c0-2.7-2.2-4.8-4.8-4.8c-2.7,0-4.8,2.2-4.8,4.8v27.5c0,2.7,2.2,4.8,4.8,4.8h97.8
		c2.7,0,4.8-2.2,4.8-4.8v-27.5c0-2.7-2.2-4.8-4.8-4.8c-2.7,0-4.8,2.2-4.8,4.8v22.7h-88.2V297.8z"/>
	<path class="st4" d="M-5487.8,259.3h7.1v44.3c0,2.7,2.2,4.8,4.8,4.8h22.2c2.7,0,4.8-2.2,4.8-4.8v-44.3h7.1c5.1,0,8.3-5.6,5.6-10
		l-23.1-37.6c-2.6-4.2-8.7-4.2-11.2,0l-23.1,37.6C-5496.1,253.6-5492.9,259.3-5487.8,259.3z"/>
</g>
<g>
	<polygon class="st4" points="-4906,136.8 -4906,179.7 -4863.1,179.7 	"/>
	<path class="st4" d="M-4910.7,189.1c-2.6,0-4.7-2.1-4.7-4.7v-50.3h-112.1c-2.6,0-4.7,2.1-4.7,4.7v222.5c0,2.6,2.1,4.7,4.7,4.7
		h162.4c2.7,0,4.7-2.1,4.7-4.7V189.1H-4910.7z M-4869.7,356.6h-153V143.4h98v41c0,7.8,6.3,14.1,14.1,14.1h41V356.6z"/>
	<path class="st4" d="M-4990.3,297.8c0-2.7-2.2-4.8-4.8-4.8c-2.7,0-4.8,2.2-4.8,4.8v27.5c0,2.7,2.2,4.8,4.8,4.8h97.8
		c2.7,0,4.8-2.2,4.8-4.8v-27.5c0-2.7-2.2-4.8-4.8-4.8c-2.7,0-4.8,2.2-4.8,4.8v22.7h-88.2V297.8z"/>
	<path class="st4" d="M-4969.3,259.3h7.1v44.3c0,2.7,2.2,4.8,4.8,4.8h22.2c2.7,0,4.8-2.2,4.8-4.8v-44.3h7.1c5.1,0,8.3-5.6,5.6-10
		l-23.1-37.6c-2.6-4.2-8.7-4.2-11.2,0l-23.1,37.6C-4977.6,253.6-4974.5,259.3-4969.3,259.3z"/>
</g>
<text transform="matrix(1 0 0 1 -10770.5098 288.7532)" class="st1" style="font-family:'ArgentumSans-Bold'; font-size:85.4056px;">REC</text>
<polygon class="st4" points="-10024.3,207.4 -10056.1,235.9 -10056.1,196.9 -10275.7,196.9 -10275.7,319.3 -10056.1,319.3 
	-10056.1,279.9 -10024.3,308.2 "/>
<text transform="matrix(1 0 0 1 -10252.3008 288.7532)" class="st5" style="font-family:'ArgentumSans-Bold'; font-size:85.4056px;">REC</text>
<g>
	<text transform="matrix(1 0 0 1 -9664.123 273.3508)" class="st4" style="font-family:'ArgentumSans-Bold'; font-size:70.5453px;">REC</text>
	<polygon class="st4" points="-9749.7,208.2 -9749.7,194.3 -9778.3,194.3 -9778.3,202.6 -9778.3,208.2 -9778.3,286.7 -9778.3,295.8 
		-9778.3,300.6 -9749.7,300.6 -9749.7,286.7 -9764.5,286.7 -9764.5,208.2 	"/>
	<polygon class="st4" points="-9509,286.7 -9509,300.6 -9480.4,300.6 -9480.4,292.3 -9480.4,286.7 -9480.4,208.2 -9480.4,199.1 
		-9480.4,194.3 -9509,194.3 -9509,208.2 -9494.2,208.2 -9494.2,286.7 	"/>
	<circle class="st4" cx="-9715.5" cy="247.1" r="32.4"/>
</g>
<circle class="st4" cx="-8590" cy="250" r="116.5"/>
<g>
	
		<text transform="matrix(1 0 0 1 -9144.7227 273.3508)" class="st4" style="font-family:'ArgentumSans-Bold'; font-size:70.5453px;">REC</text>
	<polygon class="st4" points="-9230.3,208.2 -9230.3,194.3 -9258.9,194.3 -9258.9,202.6 -9258.9,208.2 -9258.9,286.7 -9258.9,295.8 
		-9258.9,300.6 -9230.3,300.6 -9230.3,286.7 -9245.1,286.7 -9245.1,208.2 	"/>
	<polygon class="st4" points="-8989.6,286.7 -8989.6,300.6 -8961,300.6 -8961,292.3 -8961,286.7 -8961,208.2 -8961,199.1 
		-8961,194.3 -8989.6,194.3 -8989.6,208.2 -8974.8,208.2 -8974.8,286.7 	"/>
	<circle class="st4" cx="-9196.1" cy="247.1" r="32.4"/>
</g>
<text transform="matrix(1 0 0 1 -8681.749 279.4266)" class="st1" style="font-family:'ArgentumSans-Bold'; font-size:85.4056px;">REC</text>
<circle class="st4" cx="-8070" cy="250" r="116.5"/>
<text transform="matrix(1 0 0 1 -8161.749 279.4266)" class="st5" style="font-family:'ArgentumSans-Bold'; font-size:85.4056px;">REC</text>
<g>
	<path class="st29" d="M-4329.3,261.2c-0.6-0.6-1.6-0.6-2.2,0c-0.6,0.6-0.6,1.6,0,2.2c7.9,7.9,12.3,18.4,12.3,29.6
		c0,11.2-4.4,21.7-12.3,29.6c-0.6,0.6-0.6,1.6,0,2.2c0.3,0.3,0.7,0.5,1.1,0.5s0.8-0.2,1.1-0.5c8.5-8.5,13.2-19.8,13.2-31.8
		C-4316.1,281-4320.8,269.7-4329.3,261.2z"/>
	<path class="st29" d="M-4316.1,248c-0.6-0.6-1.6-0.6-2.2,0s-0.6,1.6,0,2.2c23.6,23.6,23.6,61.9,0,85.5c-0.6,0.6-0.6,1.6,0,2.2
		c0.3,0.3,0.7,0.5,1.1,0.5s0.8-0.2,1.1-0.5C-4291.4,313.2-4291.4,272.8-4316.1,248z"/>
	<path class="st29" d="M-4344.7,274.4c-0.6,0.6-0.6,1.6,0,2.2c4.4,4.4,6.8,10.2,6.8,16.4c0,6.2-2.4,12-6.8,16.4
		c-0.6,0.6-0.6,1.6,0,2.2c0.3,0.3,0.7,0.5,1.1,0.5s0.8-0.2,1.1-0.5c5-5,7.7-11.6,7.7-18.6c0-7-2.7-13.7-7.7-18.6
		C-4343.1,273.8-4344.1,273.8-4344.7,274.4z"/>
</g>
<g>
	<circle class="st4" cx="-7638.4" cy="253.9" r="32.5"/>
	<circle class="st4" cx="-7473.5" cy="184.1" r="32.5"/>
	<circle class="st4" cx="-7473.5" cy="322.4" r="32.5"/>
	<polyline class="st30" points="-7473.5,184.1 -7638.4,253.9 -7473.5,322.4 	"/>
</g>
<g>
	<circle class="st4" cx="-7118.4" cy="253.9" r="32.5"/>
	<circle class="st4" cx="-6953.6" cy="184.1" r="32.5"/>
	<circle class="st4" cx="-6953.6" cy="322.4" r="32.5"/>
	<polyline class="st30" points="-6953.6,184.1 -7118.4,253.9 -6953.6,322.4 	"/>
</g>
<circle class="st1" cx="-6510" cy="250" r="186.3"/>
<g>
	<path class="st4" d="M-6454.1,150.6v28.2c0,0-112.1,19.5-125.4,123.2c0,0,19-79.9,125.4-85v32.5l82.6-49.5L-6454.1,150.6z"/>
	<path class="st31" d="M-6557,190.7h-50.4c0,0-16.8,2.7-16.8,16.8c0,14.1,0,113.4,0,113.4s1.6,16.2,23,16.2s107.2,0,107.2,0
		s17.5-2.7,17.5-17.5c0-14.8,0-47,0-47"/>
</g>
<circle class="st2" cx="-5990" cy="250" r="186.3"/>
<g>
	<path class="st4" d="M-5934.1,150.6v28.2c0,0-112.1,19.5-125.4,123.2c0,0,19-79.9,125.4-85v32.5l82.6-49.5L-5934.1,150.6z"/>
	<path class="st31" d="M-6037,190.7h-50.4c0,0-16.8,2.7-16.8,16.8c0,14.1,0,113.4,0,113.4s1.6,16.2,23,16.2s107.2,0,107.2,0
		s17.5-2.7,17.5-17.5c0-14.8,0-47,0-47"/>
</g>
<path class="st4" d="M-4454.1,140.5c39.2,6.1,69.4,40,69.4,80.9c0,9.1,2.2,17.5,6.3,24.4l12.1,20.2c1.6,2.7,0.8,6.1-1.8,7.8
	c-5.9,3.8-9.4,10.2-9.4,17.2v10.7v14.8v3.9c0,7.3-5.9,13.2-13.2,13.2h-11.9c-15,0-27.3,11.9-27.9,26.8h-83.5v-16.7
	c0-27.1-7.9-54.5-23.6-81.4c-9.3-16-12.8-34.4-10.1-53.2c4.3-29.5,25.3-54.4,52.7-64.7C-4494.9,144.5-4481.9,137.1-4454.1,140.5z"/>
<g>
	<path class="st29" d="M-3809.7,261.2c-0.6-0.6-1.6-0.6-2.2,0c-0.6,0.6-0.6,1.6,0,2.2c7.9,7.9,12.3,18.4,12.3,29.6
		c0,11.2-4.4,21.7-12.3,29.6c-0.6,0.6-0.6,1.6,0,2.2c0.3,0.3,0.7,0.5,1.1,0.5s0.8-0.2,1.1-0.5c8.5-8.5,13.2-19.8,13.2-31.8
		C-3796.5,281-3801.2,269.7-3809.7,261.2z"/>
	<path class="st29" d="M-3796.6,248c-0.6-0.6-1.6-0.6-2.2,0c-0.6,0.6-0.6,1.6,0,2.2c23.6,23.6,23.6,61.9,0,85.5
		c-0.6,0.6-0.6,1.6,0,2.2c0.3,0.3,0.7,0.5,1.1,0.5s0.8-0.2,1.1-0.5C-3771.8,313.2-3771.8,272.8-3796.6,248z"/>
	<path class="st29" d="M-3825.1,274.4c-0.6,0.6-0.6,1.6,0,2.2c4.4,4.4,6.8,10.2,6.8,16.4c0,6.2-2.4,12-6.8,16.4
		c-0.6,0.6-0.6,1.6,0,2.2c0.3,0.3,0.7,0.5,1.1,0.5s0.8-0.2,1.1-0.5c5-5,7.7-11.6,7.7-18.6c0-7-2.7-13.7-7.7-18.6
		C-3823.5,273.8-3824.5,273.8-3825.1,274.4z"/>
</g>
<g>
	<path class="st29" d="M-3282.2,261.2c-0.6-0.6-1.6-0.6-2.2,0s-0.6,1.6,0,2.2c7.9,7.9,12.3,18.4,12.3,29.6
		c0,11.2-4.4,21.7-12.3,29.6c-0.6,0.6-0.6,1.6,0,2.2c0.3,0.3,0.7,0.5,1.1,0.5s0.8-0.2,1.1-0.5c8.5-8.5,13.2-19.8,13.2-31.8
		C-3269.1,281-3273.7,269.7-3282.2,261.2z"/>
	<path class="st29" d="M-3269.1,248c-0.6-0.6-1.6-0.6-2.2,0s-0.6,1.6,0,2.2c23.6,23.6,23.6,61.9,0,85.5c-0.6,0.6-0.6,1.6,0,2.2
		c0.3,0.3,0.7,0.5,1.1,0.5s0.8-0.2,1.1-0.5C-3244.3,313.2-3244.3,272.8-3269.1,248z"/>
	<path class="st29" d="M-3297.6,274.4c-0.6,0.6-0.6,1.6,0,2.2c4.4,4.4,6.8,10.2,6.8,16.4c0,6.2-2.4,12-6.8,16.4
		c-0.6,0.6-0.6,1.6,0,2.2c0.3,0.3,0.7,0.5,1.1,0.5s0.8-0.2,1.1-0.5c5-5,7.7-11.6,7.7-18.6c0-7-2.7-13.7-7.7-18.6
		C-3296,273.8-3297,273.8-3297.6,274.4z"/>
</g>
<circle class="st32" cx="-2870" cy="250" r="186.3"/>
<path class="st4" d="M-2806.8,287.6c0-1.8,0.9-3.4,2.4-4.4c8.6-5.5,11.2-16.7,6-25.4l-11.1-18.5c-2.6-4.3-3.9-9.5-3.9-15.3
	c0-49-39.7-88.7-88.6-88.7c-45.8,0-82.1,36.6-87.7,75.5c-2.9,20.2,0.9,40.1,11,57.4c13.1,22.6,19.8,45.4,19.8,67.8v16.3
	c0,6.9,5.6,12.5,12.5,12.5h78.6c6.9,0,12.5-5.6,12.5-12.5c0-6.7,5.4-12.1,12.1-12.1h10.9c14.1,0,25.6-11.5,25.6-25.6v-3V287.6z
	 M-2890.5,149.7c36,5.6,63.6,36.6,63.6,74.1c0,8.3,2,16,5.8,22.4l11.1,18.5c1.5,2.4,0.7,5.6-1.7,7.1c-5.4,3.5-8.6,9.4-8.6,15.8v9.8
	V311v3.6c0,6.7-5.4,12.1-12.1,12.1h-10.9c-13.8,0-25,10.9-25.6,24.6h-76.6V336c0-24.8-7.3-49.9-21.6-74.6
	c-8.6-14.7-11.8-31.6-9.3-48.7c3.9-27.1,23.2-49.9,48.3-59.3C-2928,153.4-2916.1,146.6-2890.5,149.7z"/>
<g>
	<path class="st29" d="M-2762.2,261.2c-0.6-0.6-1.6-0.6-2.2,0s-0.6,1.6,0,2.2c7.9,7.9,12.3,18.4,12.3,29.6
		c0,11.2-4.4,21.7-12.3,29.6c-0.6,0.6-0.6,1.6,0,2.2c0.3,0.3,0.7,0.5,1.1,0.5s0.8-0.2,1.1-0.5c8.5-8.5,13.2-19.8,13.2-31.8
		C-2749.1,281-2753.7,269.7-2762.2,261.2z"/>
	<path class="st29" d="M-2749.1,248c-0.6-0.6-1.6-0.6-2.2,0s-0.6,1.6,0,2.2c23.6,23.6,23.6,61.9,0,85.5c-0.6,0.6-0.6,1.6,0,2.2
		c0.3,0.3,0.7,0.5,1.1,0.5s0.8-0.2,1.1-0.5C-2724.3,313.2-2724.3,272.8-2749.1,248z"/>
	<path class="st29" d="M-2777.6,274.4c-0.6,0.6-0.6,1.6,0,2.2c4.4,4.4,6.8,10.2,6.8,16.4c0,6.2-2.4,12-6.8,16.4
		c-0.6,0.6-0.6,1.6,0,2.2c0.3,0.3,0.7,0.5,1.1,0.5s0.8-0.2,1.1-0.5c5-5,7.7-11.6,7.7-18.6c0-7-2.7-13.7-7.7-18.6
		C-2776,273.8-2777,273.8-2777.6,274.4z"/>
</g>
<path class="st4" d="M-3934.5,140.5c39.2,6.1,69.4,40,69.4,80.9c0,9.1,2.2,17.5,6.3,24.4l12.1,20.2c1.6,2.7,0.8,6.1-1.8,7.8
	c-5.9,3.8-9.4,10.2-9.4,17.2v10.7v14.8v3.9c0,7.3-5.9,13.2-13.2,13.2h-11.9c-15,0-27.3,11.9-27.9,26.8h-83.5v-16.7
	c0-27.1-7.9-54.5-23.6-81.4c-9.3-16-12.8-34.4-10.1-53.2c4.3-29.5,25.3-54.4,52.7-64.7C-3975.3,144.5-3962.3,137.1-3934.5,140.5z"/>
<g>
	<circle class="st1" cx="-261.7" cy="258.8" r="186.3"/>
	<g id="Share">
		<path class="st4" d="M-209,292.5c-11.6,0-21.9,5-29.2,12.9l-62.8-30.2c1.5-4.2,2.4-8.7,2.4-13.4c0-4.7-0.9-9.2-2.4-13.4l62.8-30.2
			c7.2,7.9,17.6,12.9,29.2,12.9c21.8,0,39.6-17.7,39.6-39.6c0-21.9-17.7-39.6-39.6-39.6c-21.9,0-39.6,17.7-39.6,39.6
			c0,2.1,0.2,4.1,0.5,6.1l-66.9,32.2c-6.5-4.8-14.6-7.6-23.3-7.6c-21.8,0-39.6,17.7-39.6,39.5c0,21.9,17.7,39.6,39.6,39.6
			c8.7,0,16.8-2.9,23.3-7.6l66.9,32.2c-0.3,2-0.5,4-0.5,6.1c0,21.9,17.7,39.6,39.6,39.6c21.8,0,39.6-17.7,39.6-39.6
			C-169.4,310.2-187.1,292.5-209,292.5z"/>
	</g>
</g>
<g>
	<circle class="st3" cx="252.2" cy="258.8" r="186.3"/>
	<g id="Share_2_">
		<path class="st4" d="M304.9,292.5c-11.6,0-21.9,5-29.2,12.9l-62.8-30.2c1.5-4.2,2.4-8.7,2.4-13.4c0-4.7-0.9-9.2-2.4-13.4
			l62.8-30.2c7.2,7.9,17.6,12.9,29.2,12.9c21.8,0,39.6-17.7,39.6-39.6c0-21.9-17.7-39.6-39.6-39.6c-21.9,0-39.6,17.7-39.6,39.6
			c0,2.1,0.2,4.1,0.5,6.1L199,229.9c-6.5-4.8-14.6-7.6-23.3-7.6c-21.8,0-39.6,17.7-39.6,39.5c0,21.9,17.7,39.6,39.6,39.6
			c8.7,0,16.8-2.9,23.3-7.6l66.9,32.2c-0.3,2-0.5,4-0.5,6.1c0,21.9,17.7,39.6,39.6,39.6c21.8,0,39.6-17.7,39.6-39.6
			C344.5,310.2,326.8,292.5,304.9,292.5z"/>
	</g>
</g>
<g>
	<circle class="st1" cx="-1322.2" cy="256.5" r="185.8"/>
	<g id="Close">
		<path class="st4" d="M-1322.2,236.5c12.2,0,22-9.9,22-22v-65.6c0-12.1-9.8-22-22-22s-22,9.9-22,22v65.6
			C-1344.2,226.7-1334.4,236.5-1322.2,236.5z"/>
		<path class="st4" d="M-1282.2,160.8v40.6c21.5,13.4,35.8,37.2,35.8,64.4c0,41.9-34.1,75.9-75.9,75.9c-41.9,0-75.9-34.1-75.9-75.9
			c0-27.1,14.4-50.9,35.8-64.4v-40.6c-42.2,16.2-72.3,57.1-72.3,104.9c0,61.9,50.4,112.3,112.3,112.3c61.9,0,112.3-50.4,112.3-112.3
			C-1209.9,217.9-1240,177-1282.2,160.8z"/>
	</g>
</g>
<g>
	<circle class="st15" cx="-780.3" cy="256.5" r="185.8"/>
	<g id="Close_2_">
		<path class="st4" d="M-780.3,236.5c12.2,0,22-9.9,22-22v-65.6c0-12.1-9.8-22-22-22c-12.2,0-22,9.9-22,22v65.6
			C-802.3,226.7-792.4,236.5-780.3,236.5z"/>
		<path class="st4" d="M-740.2,160.8v40.6c21.5,13.4,35.8,37.2,35.8,64.4c0,41.9-34.1,75.9-75.9,75.9c-41.9,0-75.9-34.1-75.9-75.9
			c0-27.1,14.4-50.9,35.8-64.4v-40.6c-42.2,16.2-72.3,57.1-72.3,104.9c0,61.9,50.4,112.3,112.3,112.3c61.9,0,112.3-50.4,112.3-112.3
			C-668,217.9-698,177-740.2,160.8z"/>
	</g>
</g>
</svg>
