<?xml version="1.0" encoding="utf-8"?>
<!-- Generator: Adobe Illustrator 22.0.1, SVG Export Plug-In . SVG Version: 6.00 Build 0)  -->
<svg version="1.1" id="Capa_1" xmlns="http://www.w3.org/2000/svg" xmlns:xlink="http://www.w3.org/1999/xlink" x="0px" y="0px"
	 viewBox="0 0 500 500" style="enable-background:new 0 0 500 500;" xml:space="preserve">
<style type="text/css">
	.st0{fill:#C6C6C6;}
	.st1{fill:#FFFFFF;}
	.st2{fill:#FFFFFF;stroke:#FFFFFF;stroke-width:5.5495;stroke-miterlimit:10;}
	.st3{fill:#DC3336;}
	.st4{fill:#F4C312;}
	.st5{fill:#E71D73;}
	.st6{fill:#4EB056;}
	.st7{fill:#547DBE;}
	.st8{fill:#EDEDED;}
	.st9{fill:#DADADA;}
	.st10{clip-path:url(#SVGID_2_);fill:#DADADA;}
	.st11{clip-path:url(#SVGID_4_);fill:#DADADA;}
	.st12{fill:#8085C0;}
</style>
<g>
	<circle class="st0" cx="250" cy="255.9" r="185.8"/>
	<g>
		<path class="st1" d="M247.7,358.5c-49.3,0-95.9-19-131.2-53.5c-13.1-12.8-24.3-27.4-33.1-43.4c8.9-16,20-30.6,33.1-43.4
			c35.3-34.5,81.9-53.5,131.2-53.5c49.3,0,95.9,19,131.2,53.5c13.1,12.8,24.3,27.4,33.1,43.4c-8.9,16-20,30.6-33.1,43.4
			C343.5,339.5,297,358.5,247.7,358.5z M247.7,192.8c-48.8,0-94.3,21.9-124.8,60.1l-6.9,8.7l6.9,8.7c30.5,38.2,76,60.1,124.8,60.1
			c48.8,0,94.3-21.9,124.8-60.1l6.9-8.7l-6.9-8.7C342,214.7,296.5,192.8,247.7,192.8z"/>
		<path class="st1" d="M247.7,218.7c-7.2,0-14,1.8-20,5c4.9,2,8.4,6.7,8.4,12.4c0,7.4-6,13.3-13.3,13.3c-5.8,0-10.6-3.7-12.5-8.8
			c-3.5,6.2-5.5,13.4-5.5,21.1c0,23.7,19.2,42.9,42.9,42.9c23.7,0,42.9-19.2,42.9-42.9C290.6,237.9,271.4,218.7,247.7,218.7z"/>
	</g>
</g>
</svg>
