<?xml version="1.0" encoding="utf-8"?>
<!-- Generator: Adobe Illustrator 22.0.1, SVG Export Plug-In . SVG Version: 6.00 Build 0)  -->
<svg version="1.1" id="Capa_1" xmlns="http://www.w3.org/2000/svg" xmlns:xlink="http://www.w3.org/1999/xlink" x="0px" y="0px"
	 viewBox="0 0 500 500" style="enable-background:new 0 0 500 500;" xml:space="preserve">
<style type="text/css">
	.st0{fill:#C6C6C6;}
	.st1{fill:#FFFFFF;}
	.st2{fill:#FFFFFF;stroke:#FFFFFF;stroke-width:5.5495;stroke-miterlimit:10;}
	.st3{fill:#DC3336;}
	.st4{fill:#F4C312;}
	.st5{fill:#E71D73;}
	.st6{fill:#4EB056;}
	.st7{fill:#547DBE;}
	.st8{fill:#EDEDED;}
	.st9{fill:#DADADA;}
	.st10{clip-path:url(#SVGID_2_);fill:#DADADA;}
	.st11{clip-path:url(#SVGID_4_);fill:#DADADA;}
	.st12{fill:#8085C0;}
	.st13{fill:#BE1622;}
</style>
<circle class="st13" cx="250" cy="255.9" r="185.8"/>
<g>
	<path class="st1" d="M250,391.9c-67.3,0-122.1-54.8-122.1-122.1c0-51,32.1-97.1,80-114.6c5.9-2.1,12.4,0.9,14.5,6.7
		c2.2,5.9-0.9,12.4-6.7,14.5c-39,14.3-65.2,51.9-65.2,93.4c0,54.9,44.6,99.5,99.5,99.5s99.5-44.6,99.5-99.5
		c0-44.3-26.9-81-68.6-93.5c-6-1.8-9.4-8.1-7.6-14.1c1.8-6,8.1-9.4,14.1-7.6c51.4,15.4,84.7,60.6,84.7,115.1
		C372.1,337.1,317.3,391.9,250,391.9z"/>
	<path class="st1" d="M250.3,239.4L250.3,239.4c-7.2,0-13.1-5.9-13.1-13.1l-0.3-93.2c0-7.2,5.9-13.1,13.1-13.1l0,0
		c7.2,0,13.1,5.9,13.1,13.1l0.3,93.2C263.4,233.5,257.5,239.4,250.3,239.4z"/>
</g>
</svg>
