<svg xmlns="http://www.w3.org/2000/svg" viewBox="0 0 252.89 652.25"><defs><style>.cls-1{fill:#5278b3;}.cls-2,.cls-27{fill:#cf3737;}.cls-28,.cls-3{fill:#e9bc25;}.cls-4{fill:#4fa855;}.cls-10,.cls-16,.cls-34,.cls-5{isolation:isolate;}.cls-5{font-size:6.21px;}.cls-19,.cls-24,.cls-34,.cls-48,.cls-5,.cls-55,.cls-56,.cls-6{fill:#fff;}.cls-19,.cls-34,.cls-5{font-family:ArgentumSans-Bold, ArgentumSans Bold;}.cls-19,.cls-34,.cls-36,.cls-5{font-weight:700;}.cls-7{font-size:15.1px;}.cls-10,.cls-16,.cls-37,.cls-49,.cls-7{fill:#878787;font-family:AntartidaRounded-Light, Antartida Rounded;font-weight:300;}.cls-8{letter-spacing:-0.02em;}.cls-9{letter-spacing:0em;}.cls-10,.cls-55{font-size:13.94px;}.cls-11{letter-spacing:-0.03em;}.cls-12{letter-spacing:0em;}.cls-13{fill:#009fe3;}.cls-14,.cls-15,.cls-29,.cls-30{fill:none;}.cls-14,.cls-15,.cls-24{stroke:#fff;}.cls-14,.cls-24,.cls-29,.cls-30,.cls-48{stroke-miterlimit:10;}.cls-14,.cls-15{stroke-width:2.87px;}.cls-15{stroke-linecap:round;stroke-linejoin:round;}.cls-16,.cls-37{font-size:12.5px;}.cls-17{letter-spacing:-0.03em;}.cls-18,.cls-42,.cls-43{fill:#dc3336;}.cls-19{font-size:7.61px;}.cls-20{letter-spacing:-0.02em;}.cls-21{letter-spacing:-0.02em;}.cls-22,.cls-27{letter-spacing:0em;}.cls-23,.cls-45,.cls-46,.cls-47{fill:#4eb056;}.cls-24{stroke-width:0.82px;}.cls-25,.cls-41{fill:#547dbe;}.cls-26{letter-spacing:-0.02em;}.cls-28,.cls-38,.cls-40{letter-spacing:0em;}.cls-29,.cls-30{stroke:#c6c6c6;stroke-width:1.28px;}.cls-30{stroke-dasharray:8.29 8.29;}.cls-31{fill:#8085c0;}.cls-32,.cls-44{fill:#f4c312;}.cls-33{fill:#be1622;}.cls-34{font-size:18.44px;}.cls-35,.cls-36{fill:#e30613;}.cls-36{font-size:18.47px;font-family:AntartidaRounded-Bold, Antartida Rounded;}.cls-39{letter-spacing:-0.01em;}.cls-40,.cls-41,.cls-42,.cls-43,.cls-44,.cls-45,.cls-46,.cls-47,.cls-55,.cls-56{font-family:AntartidaRounded-Medium, Antartida Rounded;font-weight:500;}.cls-43{letter-spacing:-0.05em;}.cls-44{letter-spacing:0em;}.cls-46{letter-spacing:-0.02em;}.cls-47{letter-spacing:0em;}.cls-48{stroke:#b2b2b2;stroke-width:1.46px;}.cls-49{font-size:11.62px;}.cls-50{letter-spacing:-0.03em;}.cls-51{letter-spacing:-0.03em;}.cls-52{letter-spacing:-0.03em;}.cls-53{letter-spacing:0em;}.cls-54{letter-spacing:-0.03em;}.cls-56{font-size:14.58px;}.cls-57{letter-spacing:-0.03em;}.cls-58{letter-spacing:0em;}.cls-59{letter-spacing:-0.02em;}</style></defs><g id="Layer_2" data-name="Layer 2"><g id="Capa_1" data-name="Capa 1"><path class="cls-1" d="M79.11,36.52c-6.46,0-10.48-3.73-10.48-9.94v-8c0-6.21,4-9.93,10.48-9.93,6.66,0,10.39,3.67,10.39,8.54a1.11,1.11,0,0,1-1.15,1.19H85.92a1.06,1.06,0,0,1-1.14-1.14c0-2.58-1.89-4.57-5.62-4.57s-5.71,2.24-5.71,6.51V26c0,4.28,2.08,6.51,5.71,6.51,3.88,0,5.62-2.08,5.62-4.52a1,1,0,0,1,1.14-1.14H88.3A1.14,1.14,0,0,1,89.5,28C89.5,32.64,85.77,36.52,79.11,36.52Z"/><path class="cls-2" d="M96.35,36a1.18,1.18,0,0,1-1.19-1.19V13l-1.49-.15a1.21,1.21,0,0,1-1.14-1.24v-1.3a1.13,1.13,0,0,1,1.19-1.14h5a1.18,1.18,0,0,1,1.19,1.19v24.5A1.18,1.18,0,0,1,98.74,36ZM97.4,5.71c-1.74,0-2.84-.79-2.84-2.78S95.66,0,97.4,0a2.6,2.6,0,0,1,2.93,2.93C100.33,4.87,99.18,5.71,97.4,5.71Z"/><path class="cls-3" d="M106.54,27.43V13H104.9a1.22,1.22,0,0,1-1.24-1.19V10.33a1.22,1.22,0,0,1,1.24-1.19h1.74l.44-5.51a1.3,1.3,0,0,1,1.3-1.2h1.73a1.18,1.18,0,0,1,1.2,1.2V9.14h6.56a1.22,1.22,0,0,1,1.24,1.19v1.45A1.22,1.22,0,0,1,117.87,13h-6.56V27.13c0,3.77,1.54,5.56,4.92,5.56a14.6,14.6,0,0,0,2.48-.2.93.93,0,0,1,1.14.95v1.44a1.53,1.53,0,0,1-1.24,1.39,15.07,15.07,0,0,1-2.88.35C109.62,36.67,106.54,33.64,106.54,27.43Z"/><path class="cls-4" d="M125,36a1.17,1.17,0,0,1-1.19-1.19V1.19A1.17,1.17,0,0,1,125,0h2.34a1.18,1.18,0,0,1,1.19,1.19V11.68a10.18,10.18,0,0,1,7-3c6.16,0,8.95,3.42,8.95,9.63v8.65c0,6.21-2.79,9.64-8.95,9.64a10.26,10.26,0,0,1-7.25-3.23l-.15,1.54a1.44,1.44,0,0,1-1.39,1.19H125Zm3.58-20V29.16a8.75,8.75,0,0,0,6.21,3.28c3.67,0,5-2.08,5-6.11v-7.5c0-4-1.35-6.11-5-6.11A8.75,8.75,0,0,0,128.55,16Z"/><circle class="cls-2" cx="167.49" cy="20.13" r="16.39"/><text class="cls-5" transform="translate(164.42 22.18)">REC</text><polygon class="cls-6" points="156.89 16.45 156.89 15.22 154.38 15.22 154.38 15.95 154.38 16.45 154.38 23.35 154.38 24.16 154.38 24.58 156.89 24.58 156.89 23.35 155.6 23.35 155.6 16.45 156.89 16.45"/><polygon class="cls-6" points="178.08 23.35 178.08 24.58 180.6 24.58 180.6 23.85 180.6 23.35 180.6 16.45 180.6 15.65 180.6 15.22 178.08 15.22 178.08 16.45 179.38 16.45 179.38 23.35 178.08 23.35"/><circle class="cls-6" cx="159.91" cy="19.87" r="2.85"/><text class="cls-7" transform="translate(55.64 71.36)">Elige <tspan class="cls-8" x="35.58" y="0">f</tspan><tspan class="cls-9" x="40.76" y="0">uente de video</tspan></text><text class="cls-10" transform="translate(0 158.16)">G<tspan class="cls-11" x="8.21" y="0">r</tspan><tspan class="cls-12" x="12.23" y="0">abar pestaña</tspan></text><circle class="cls-13" cx="47.31" cy="114.04" r="25.35"/><rect class="cls-14" x="31.57" y="101.55" width="31.09" height="26.33" rx="3.83"/><circle class="cls-6" cx="35.01" cy="104.39" r="0.8"/><circle class="cls-6" cx="37.62" cy="104.39" r="0.8"/><circle class="cls-6" cx="40.23" cy="104.39" r="0.8"/><line class="cls-14" x1="31.31" y1="107.32" x2="62.66" y2="107.32"/><text class="cls-10" transform="translate(150.78 158.75)">G<tspan class="cls-11" x="8.21" y="0">r</tspan><tspan x="12.23" y="0">abar escritorio</tspan></text><circle class="cls-13" cx="201.84" cy="114.63" r="25.35"/><rect class="cls-14" x="186.06" y="102.43" width="31.61" height="21.54" rx="1.81"/><line class="cls-14" x1="186.01" y1="119.07" x2="217.62" y2="119.07"/><polygon class="cls-15" points="197.43 123.97 193.97 131.9 209.75 131.9 206.22 123.97 197.43 123.97"/><text class="cls-16" transform="translate(181.33 409.64)">G<tspan class="cls-17" x="7.36" y="0">r</tspan><tspan x="10.96" y="0">abaciones</tspan></text><circle class="cls-18" cx="215.73" cy="366.91" r="25.41"/><path class="cls-6" d="M207,358.59v5.28a1.14,1.14,0,0,1-1.19,1.1h-8a1.14,1.14,0,0,1-1.18-1.1v-5.28a1.14,1.14,0,0,1,1.18-1.1h8A1.14,1.14,0,0,1,207,358.59Z"/><path class="cls-6" d="M220.92,358.59v5.28a1.14,1.14,0,0,1-1.19,1.1h-8a1.15,1.15,0,0,1-1.19-1.1v-5.28a1.15,1.15,0,0,1,1.19-1.1h8A1.14,1.14,0,0,1,220.92,358.59Z"/><path class="cls-6" d="M234.83,358.59v5.28a1.15,1.15,0,0,1-1.19,1.1h-8a1.14,1.14,0,0,1-1.19-1.1v-5.28a1.14,1.14,0,0,1,1.19-1.1h8A1.15,1.15,0,0,1,234.83,358.59Z"/><text class="cls-19" transform="translate(200.61 373.89)">RE<tspan class="cls-20" x="7.84" y="0">C</tspan><tspan x="12.09" y="0">ORDS</tspan></text><text class="cls-16" transform="translate(1.38 409.82)">Comandos<tspan x="11.71" y="11.62">de </tspan><tspan class="cls-21" x="29.27" y="11.62">vo</tspan><tspan class="cls-22" x="41.76" y="11.62">z</tspan></text><circle class="cls-23" cx="31.32" cy="367.08" r="25.41"/><path class="cls-24" d="M45.06,368.61a.21.21,0,1,0-.3.3,5.72,5.72,0,0,1,0,8.08.22.22,0,0,0,0,.3.22.22,0,0,0,.3,0,6.13,6.13,0,0,0,0-8.68Z"/><path class="cls-24" d="M46.85,366.82a.19.19,0,0,0-.29,0,.2.2,0,0,0,0,.3,8.27,8.27,0,0,1,0,11.67.2.2,0,0,0,0,.3.2.2,0,0,0,.15.06.24.24,0,0,0,.15-.06A8.68,8.68,0,0,0,46.85,366.82Z"/><path class="cls-24" d="M43,370.41a.22.22,0,0,0,0,.3,3.14,3.14,0,0,1,0,4.48.22.22,0,0,0,0,.3.21.21,0,0,0,.15.07.18.18,0,0,0,.15-.07,3.57,3.57,0,0,0,0-5.08A.2.2,0,0,0,43,370.41Z"/><path class="cls-6" d="M28,352.14a11.19,11.19,0,0,1,9.46,11,6.46,6.46,0,0,0,.87,3.33L40,369.27a.78.78,0,0,1-.25,1.05,2.8,2.8,0,0,0-1.28,2.35v4a1.81,1.81,0,0,1-1.8,1.8H35.06a3.82,3.82,0,0,0-3.8,3.66H19.86v-2.28a22,22,0,0,0-3.21-11.1,11.15,11.15,0,0,1-1.38-7.26,11.27,11.27,0,0,1,7.19-8.82S24.24,351.68,28,352.14Z"/><circle class="cls-25" cx="123.35" cy="366.91" r="25.24"/><path class="cls-6" d="M110,365.42l9.94,5.75a.36.36,0,0,0,.35,0l9.94-5.75a.17.17,0,0,0,0-.3l-9.94-5.74a.36.36,0,0,0-.35,0L110,365.12A.17.17,0,0,0,110,365.42Z"/><path class="cls-6" d="M137.55,353.87l-10-5.75a.34.34,0,0,0-.34,0l-5.88,10.35a.16.16,0,0,0,0,.29l9.94,5.75a.36.36,0,0,0,.35,0l5.88-10.34A.18.18,0,0,0,137.55,353.87Zm-4.91,2.33c-.19.34-.38.68-.58,1a.4.4,0,0,1-.61.17c-.15-.08-.16-.09-.24.06l-.32.54a.42.42,0,0,1-.38.24l-1.09.07c-.26,0-.53,0-.79,0a.23.23,0,0,0-.17.11c-.34.59-.68,1.18-1,1.77a.47.47,0,0,1-.07.12.38.38,0,0,1-.66-.38c.12-.24.26-.47.39-.7l0-.07a.27.27,0,0,0,0-.31c-.26-.51-.5-1-.76-1.54a.56.56,0,0,1,0-.63c.11-.16.2-.33.3-.5a.3.3,0,0,0,0-.34,1,1,0,1,1,.91.56.25.25,0,0,0-.24.14,3,3,0,0,1-.22.39.15.15,0,0,0,0,.16c.17.34.34.69.52,1,0,0,0,0,0,0s2.71-4.57,2.75-4.73a.4.4,0,0,0-.18.07.69.69,0,0,1-.29.07.37.37,0,0,1-.35-.24.39.39,0,0,1,.14-.46l.11-.06,1.34-.56a.42.42,0,0,1,.27-.05.38.38,0,0,1,.32.36c0,.31.07.62.11.92l.06.46c0,.06,0,.13,0,.19a.38.38,0,0,1-.75.11,1.52,1.52,0,0,1,0-.21c0-.06,0-.13,0-.22L129,357.55c.29-.05.55,0,.8-.06l.37,0a.2.2,0,0,0,.2-.12l.2-.34c.05-.08,0-.13,0-.17l-.09-.06a.38.38,0,0,1-.15-.53c.16-.29.33-.57.5-.86,0-.06.07-.13.11-.2a.39.39,0,0,1,.55-.15l1.07.62A.37.37,0,0,1,132.64,356.2Z"/><path class="cls-6" d="M131.73,356.11l-.29-.18s-.08,0-.1,0-.1.18-.16.27a.07.07,0,0,0,0,.1l.28.16s.06,0,.08,0,.14-.22.19-.32A.06.06,0,0,0,131.73,356.11Z"/><path class="cls-6" d="M127.62,355.66a.23.23,0,0,0,.22-.24.25.25,0,0,0-.23-.24.24.24,0,0,0,0,.48Z"/><path class="cls-6" d="M130.89,366.46l-10,5.74a.36.36,0,0,0-.17.3v11.44a.17.17,0,0,0,.26.15l10-5.76a.35.35,0,0,0,.18-.3V366.61A.17.17,0,0,0,130.89,366.46Zm-6,11.85c-.1.07-.22.12-.36.2s0-.11,0-.15c0-.68,0-1.36,0-2a.22.22,0,0,1,.14-.24l.2-.11c.26-.09.46,0,.47.31,0,.1,0,.21,0,.32v.88A.93.93,0,0,1,124.85,378.31Zm4.19-2.72a3.8,3.8,0,0,1-.43.47.34.34,0,0,0-.1.16,2.4,2.4,0,0,1-1.27,1.59l-.08,0a1,1,0,0,0-.54.51,1.17,1.17,0,0,1-.49.52.7.7,0,0,1-.4.12.41.41,0,0,1-.37-.36,1.35,1.35,0,0,1,.89-1.28.41.41,0,0,1,.4.07.14.14,0,0,0,.17,0l.52-.3a1.28,1.28,0,0,0,.57-.72.8.8,0,0,0,0-.26c0-.87,0-1.75,0-2.62a1.23,1.23,0,0,0,0-.33.88.88,0,0,0-1.06-.68,2.46,2.46,0,0,0-1.15.55,4.26,4.26,0,0,0-1.39,2,2.64,2.64,0,0,0-.12.78v1.26c0,.46,0,.92,0,1.38a.25.25,0,0,1-.17.27,1.82,1.82,0,0,1-.56.17.58.58,0,0,1-.72-.61,1.57,1.57,0,0,1,.15-.68,2.43,2.43,0,0,1,.6-.85.26.26,0,0,0,.1-.24,6.58,6.58,0,0,1,.06-1,4.25,4.25,0,0,1,.45-1.28,5.57,5.57,0,0,1,1.2-1.53,3.57,3.57,0,0,1,1.58-.87,1.51,1.51,0,0,1,.89.06,1.22,1.22,0,0,1,.74,1,4.29,4.29,0,0,1,0,.8c0,.15,0,.14.15.12a.62.62,0,0,1,.71.57A1.72,1.72,0,0,1,129,375.59Zm-2.18-.14a1,1,0,0,1,.58-1l.19-.1h0a.62.62,0,0,1,0,.13v2a.21.21,0,0,1-.12.23.93.93,0,0,1-.36.14.28.28,0,0,1-.3-.23.85.85,0,0,1,0-.23Z"/><path class="cls-6" d="M114,376a1.91,1.91,0,0,0,.9.47.58.58,0,0,0,.65-.37.93.93,0,0,0,0-.33,1.25,1.25,0,0,0-.07-.47,2.87,2.87,0,0,0-1-1.37,1.64,1.64,0,0,0-.77-.38.57.57,0,0,0-.66.35,1,1,0,0,0-.05.48A2.81,2.81,0,0,0,114,376Zm-.11-1.25c0-.16.12-.26.33-.25a.63.63,0,0,1,.33.19.91.91,0,0,1,.25.46.29.29,0,0,1-.39.35A.83.83,0,0,1,113.93,374.7Z"/><path class="cls-6" d="M119.41,372.23l-10-5.75a.17.17,0,0,0-.26.15v11.43a.34.34,0,0,0,.17.29l10,5.77a.18.18,0,0,0,.26-.15V372.52A.34.34,0,0,0,119.41,372.23Zm-7.44.35a1.23,1.23,0,0,1,1.1-.75,2.33,2.33,0,0,1,1.26.35,5.32,5.32,0,0,1,2,2.1,4.41,4.41,0,0,1,.52,1.42,2.73,2.73,0,0,1,.06.5,1.88,1.88,0,0,1-.19.84,1.16,1.16,0,0,1-1,.66,2.1,2.1,0,0,1-1-.21,4.45,4.45,0,0,1-1.2-.81,5.9,5.9,0,0,1-1.22-1.63,3.87,3.87,0,0,1-.44-1.41A2,2,0,0,1,112,372.58Zm5.28,7a.17.17,0,0,1-.21,0l-.36-.2-2.3-1.34-2.66-1.55a.55.55,0,0,1-.26-.3.2.2,0,0,1,.1-.26l.75-.32h.06a.21.21,0,0,1,.19.11,5.7,5.7,0,0,0,.52.67,4.74,4.74,0,0,0,2,1.44,1.86,1.86,0,0,0,1.12.06.14.14,0,0,1,.18.06,1.71,1.71,0,0,1,.11.14c.22.36.45.72.68,1.08a.84.84,0,0,1,.09.19A.2.2,0,0,1,117.25,379.61Z"/><text class="cls-16" transform="translate(93.4 409.82)">Dispositi<tspan class="cls-26" x="47.17" y="0">v</tspan><tspan x="52.91" y="0">o</tspan><tspan class="cls-25"><tspan x="19.37" y="11.62">c</tspan><tspan class="cls-27" x="26.3" y="11.62">i</tspan><tspan class="cls-28" x="29.07" y="11.62">t</tspan><tspan class="cls-4" x="33.53" y="11.62">b</tspan></tspan></text><line class="cls-29" x1="1.38" y1="177.77" x2="5.54" y2="177.77"/><line class="cls-30" x1="13.83" y1="177.77" x2="241.82" y2="177.77"/><line class="cls-29" x1="245.96" y1="177.77" x2="250.13" y2="177.77"/><line class="cls-29" x1="1.38" y1="322.53" x2="5.54" y2="322.53"/><line class="cls-30" x1="13.83" y1="322.53" x2="241.82" y2="322.53"/><line class="cls-29" x1="245.96" y1="322.53" x2="250.13" y2="322.53"/><line class="cls-29" x1="1.38" y1="442.98" x2="5.54" y2="442.98"/><line class="cls-30" x1="13.83" y1="442.98" x2="241.82" y2="442.98"/><line class="cls-29" x1="245.96" y1="442.98" x2="250.13" y2="442.98"/><line class="cls-29" x1="1.38" y1="532.29" x2="5.54" y2="532.29"/><line class="cls-30" x1="13.83" y1="532.29" x2="241.82" y2="532.29"/><line class="cls-29" x1="245.96" y1="532.29" x2="250.13" y2="532.29"/><circle class="cls-31" cx="230.75" cy="489.37" r="19.38"/><path class="cls-6" d="M230.51,500.06A19.56,19.56,0,0,1,213.38,490a19.55,19.55,0,0,1,30.8-4.53,19.8,19.8,0,0,1,3.46,4.53,19.8,19.8,0,0,1-3.46,4.53A19.47,19.47,0,0,1,230.51,500.06Zm0-17.28a16.58,16.58,0,0,0-13,6.27l-.73.91.73.9a16.63,16.63,0,0,0,26,0l.72-.9-.72-.91A16.58,16.58,0,0,0,230.51,482.78Z"/><path class="cls-6" d="M230.51,485.48a4.46,4.46,0,0,0-2.09.52,1.37,1.37,0,0,1,.88,1.29,1.39,1.39,0,0,1-2.69.47A4.43,4.43,0,0,0,226,490a4.48,4.48,0,1,0,4.48-4.48Z"/><circle class="cls-32" cx="160.75" cy="489.37" r="19.38"/><circle class="cls-6" cx="160.75" cy="481.66" r="2.64"/><circle class="cls-6" cx="160.75" cy="489.37" r="2.64"/><circle class="cls-6" cx="160.75" cy="497.08" r="2.64"/><circle class="cls-18" cx="90.75" cy="489.37" r="19.38"/><circle class="cls-6" cx="90.75" cy="481.66" r="2.64"/><circle class="cls-6" cx="90.75" cy="489.37" r="2.64"/><circle class="cls-6" cx="90.75" cy="497.08" r="2.64"/><circle class="cls-33" cx="20.75" cy="489.37" r="19.38"/><path class="cls-6" d="M20.75,503.55a12.74,12.74,0,0,1-4.39-24.69,1.18,1.18,0,1,1,.82,2.22,10.37,10.37,0,1,0,14,9.74A9.93,9.93,0,0,0,24,481.07a1.18,1.18,0,0,1,.67-2.26,12.25,12.25,0,0,1,8.83,12A12.74,12.74,0,0,1,20.75,503.55Z"/><path class="cls-6" d="M20.78,487.64h0a1.36,1.36,0,0,1-1.36-1.36l0-9.72a1.36,1.36,0,0,1,1.36-1.37h0a1.37,1.37,0,0,1,1.37,1.37l0,9.72A1.37,1.37,0,0,1,20.78,487.64Z"/><rect class="cls-2" x="15.26" y="561.14" width="221.98" height="32.39" rx="11.81"/><text class="cls-34" transform="translate(117.94 583.88)">REC</text><circle class="cls-6" cx="104.54" cy="577.03" r="8.47"/><circle class="cls-35" cx="26.42" cy="634.93" r="17.32"/><path class="cls-6" d="M23.57,626.63l-6.9,12a3.29,3.29,0,0,0,2.85,4.93H33.31a3.29,3.29,0,0,0,2.85-4.93l-6.9-12A3.29,3.29,0,0,0,23.57,626.63Z"/><text class="cls-36" transform="translate(23.96 641.05)">!</text><text class="cls-37" transform="translate(54.31 630.43)">El audio g<tspan class="cls-17" x="53.06" y="0">r</tspan><tspan class="cls-38" x="56.66" y="0">abado puede tener eco,</tspan><tspan x="0" y="16.67">si no u</tspan><tspan class="cls-39" x="37.25" y="16.67">s</tspan><tspan x="43.58" y="16.67">as</tspan><tspan class="cls-40" x="56.91" y="16.67"> </tspan><tspan class="cls-41" x="60.43" y="16.67">Class</tspan><tspan class="cls-42" x="90.9" y="16.67">I</tspan><tspan class="cls-43" x="93.73" y="16.67">n</tspan><tspan class="cls-44" x="100.12" y="16.67">The</tspan><tspan class="cls-45" x="120.43" y="16.67">B</tspan><tspan class="cls-46" x="127.85" y="16.67">o</tspan><tspan class="cls-47" x="134.61" y="16.67">x</tspan></text><rect class="cls-48" x="67.5" y="200.46" width="182.62" height="22.74"/><text class="cls-49" transform="translate(78.03 215.68)">P<tspan class="cls-50" x="6.78" y="0">r</tspan><tspan x="10.18" y="0">edeterminado - iMac</tspan></text><text class="cls-49" transform="translate(15.5 241.87)">On<tspan class="cls-51" x="13.6" y="0">/</tspan><tspan x="18.78" y="0">Off</tspan></text><text class="cls-49" transform="translate(78.03 241.87)">Seleccionar mic<tspan class="cls-52" x="83.16" y="0">r</tspan><tspan class="cls-53" x="86.51" y="0">ó</tspan><tspan class="cls-54" x="93.01" y="0">f</tspan><tspan class="cls-53" x="96.86" y="0">ono</tspan></text><rect class="cls-25" x="16.55" y="196.87" width="30.86" height="30.86" rx="15.43"/><text class="cls-55" transform="translate(23.75 216.58)">On</text><rect class="cls-25" x="37.56" y="266.06" width="180.32" height="32.39" rx="11.81"/><path class="cls-6" d="M62.12,274.1a1.11,1.11,0,0,0-1.17.12L57.41,277a2,2,0,0,0-.6-.09H53.17A2.15,2.15,0,0,0,51,279.07v6.29a2.15,2.15,0,0,0,2.15,2.15h3.64a2.24,2.24,0,0,0,.52-.06L61,290.29a1.14,1.14,0,0,0,.69.23,1.16,1.16,0,0,0,.48-.11,1.11,1.11,0,0,0,.62-1V275.09A1.1,1.1,0,0,0,62.12,274.1Z"/><path class="cls-6" d="M69.25,283H65.8a.7.7,0,0,1-.7-.71.7.7,0,0,1,.7-.7h3.45a.7.7,0,0,1,.71.7A.71.71,0,0,1,69.25,283Z"/><path class="cls-6" d="M69.24,276.34l-3,1.72a.7.7,0,0,1-1-.25.72.72,0,0,1,.26-1l3-1.72a.69.69,0,0,1,1,.26A.71.71,0,0,1,69.24,276.34Z"/><path class="cls-6" d="M69.34,288.22l-3-1.73a.71.71,0,1,0-.71,1.22l3,1.73a.71.71,0,0,0,.71-1.22Z"/><text class="cls-56" transform="translate(79.9 286.4)">Cont<tspan class="cls-57" x="30.23" y="0">r</tspan><tspan class="cls-58" x="34.71" y="0">ol de </tspan><tspan class="cls-59" x="70.91" y="0">v</tspan><tspan x="77.81" y="0">olumen</tspan></text></g></g></svg>