<?xml version="1.0" encoding="utf-8"?>
<!-- Generator: Adobe Illustrator 22.0.1, SVG Export Plug-In . SVG Version: 6.00 Build 0)  -->
<svg version="1.1" id="Capa_1" xmlns="http://www.w3.org/2000/svg" xmlns:xlink="http://www.w3.org/1999/xlink" x="0px" y="0px"
	 viewBox="0 0 841.9 595.3" style="enable-background:new 0 0 841.9 595.3;" xml:space="preserve">
<style type="text/css">
	.st0{fill:#FFFFFF;stroke:#C6C6C6;stroke-width:0.8487;stroke-miterlimit:10;}
	.st1{fill:#C6C6C6;}
	.st2{fill:#FFFFFF;}
	.st3{fill:none;stroke:#FFFFFF;stroke-width:2.8338;stroke-linecap:round;stroke-linejoin:round;stroke-miterlimit:10;}
	.st4{fill:#FFFFFF;stroke:#FFFFFF;stroke-width:0.7584;stroke-miterlimit:10;}
	.st5{fill:#547DBE;}
	.st6{fill:#DC3336;}
	.st7{fill:#F4C312;}
	.st8{fill:#4EB056;}
	.st9{fill:#EDEDED;}
	.st10{fill:#DADADA;}
	.st11{clip-path:url(#SVGID_2_);fill:#DADADA;}
	.st12{fill:#020203;}
	.st13{fill:#009FE3;}
	.st14{fill:none;stroke:#FFFFFF;stroke-width:2.1644;stroke-linecap:round;stroke-linejoin:round;stroke-miterlimit:10;}
	.st15{fill:#FFFFFF;stroke:#FFFFFF;stroke-width:0.5793;stroke-miterlimit:10;}
	.st16{fill:#E94E1B;}
	.st17{fill:url(#SVGID_3_);}
	.st18{fill:url(#SVGID_4_);}
	.st19{fill:url(#SVGID_5_);}
	.st20{fill:#9D9D9C;}
	.st21{fill:url(#SVGID_6_);}
</style>
<linearGradient id="SVGID_2_" gradientUnits="userSpaceOnUse" x1="3577.2571" y1="849.2979" x2="3240.623" y2="849.2979" gradientTransform="matrix(1 0 0 1 -3028.5703 -693.6511)">
	<stop  offset="0" style="stop-color:#F6F6F6"/>
	<stop  offset="0.6964" style="stop-color:#C8C8C8"/>
	<stop  offset="1" style="stop-color:#B2B2B2"/>
</linearGradient>
<path style="fill:url(#SVGID_2_);" d="M537,167.3H223.7c-6.4,0-11.6-5.2-11.6-11.6l0,0c0-6.4,5.2-11.6,11.6-11.6H537
	c6.4,0,11.6,5.2,11.6,11.6l0,0C548.7,162.1,543.5,167.3,537,167.3z"/>
<linearGradient id="SVGID_3_" gradientUnits="userSpaceOnUse" x1="3577.2571" y1="940.4807" x2="3240.623" y2="940.4807" gradientTransform="matrix(1 0 0 1 -3028.5703 -693.6511)">
	<stop  offset="0" style="stop-color:#F6F6F6"/>
	<stop  offset="0.6964" style="stop-color:#C8C8C8"/>
	<stop  offset="1" style="stop-color:#B2B2B2"/>
</linearGradient>
<path class="st17" d="M537,258.5H223.7c-6.4,0-11.6-5.2-11.6-11.6l0,0c0-6.4,5.2-11.6,11.6-11.6H537c6.4,0,11.6,5.2,11.6,11.6l0,0
	C548.7,253.3,543.5,258.5,537,258.5z"/>
<path class="st5" d="M223.7,144h156.7c6.4,0,11.6,5.2,11.6,11.6l0,0c0,6.4-5.2,11.6-11.6,11.6H223.7c-6.4,0-11.6-5.2-11.6-11.6l0,0
	C212.1,149.2,217.3,144,223.7,144z"/>
<path class="st5" d="M223.7,335.3h156.7c6.4,0,11.6,5.2,11.6,11.6l0,0c0,6.4-5.2,11.6-11.6,11.6H223.7c-6.4,0-11.6-5.2-11.6-11.6
	l0,0C212.1,340.5,217.3,335.3,223.7,335.3z"/>
</svg>
