<svg xmlns="http://www.w3.org/2000/svg" viewBox="0 0 158.69 13.44"><defs><style>.cls-1{fill:#666;}</style></defs><title>nombre_grabacion</title><g id="Layer_2" data-name="Layer 2"><g id="Capa_1" data-name="Capa 1"><path class="cls-1" d="M.3,11.08a.3.3,0,0,1-.3-.3V1A.29.29,0,0,1,.3.74h.79A.52.52,0,0,1,1.54,1L6.19,9.54,6.16,1a.29.29,0,0,1,.3-.29H7a.3.3,0,0,1,.3.29v9.75a.31.31,0,0,1-.3.3H6.14a.53.53,0,0,1-.44-.27L1.08,2.29l0,8.49a.31.31,0,0,1-.3.3Z"/><path class="cls-1" d="M9.25,8.21V5.67a2.84,2.84,0,0,1,3.12-3,2.83,2.83,0,0,1,3.11,3V8.21a2.84,2.84,0,0,1-3.11,3A2.84,2.84,0,0,1,9.25,8.21ZM10.3,5.85V8c0,1.47.74,2.24,2.07,2.24S14.43,9.51,14.43,8V5.85c0-1.48-.73-2.25-2.06-2.25S10.3,4.37,10.3,5.85Z"/><path class="cls-1" d="M17.91,11.08a.31.31,0,0,1-.3-.3V3.1a.3.3,0,0,1,.3-.29h.34a.32.32,0,0,1,.32.29l.05.61a2.91,2.91,0,0,1,2.14-1A2.24,2.24,0,0,1,23,3.9a3.06,3.06,0,0,1,2.32-1.24c1.84,0,2.57.91,2.57,2.79v5.33a.31.31,0,0,1-.3.3h-.46a.3.3,0,0,1-.29-.3V5.64c0-1.42-.27-2-1.6-2a2.63,2.63,0,0,0-2,1.16,7.21,7.21,0,0,1,.06.84v5.18a.3.3,0,0,1-.3.3h-.45a.3.3,0,0,1-.3-.3v-5c0-1.42-.27-2.19-1.6-2.19a2.65,2.65,0,0,0-2,1.19v6a.3.3,0,0,1-.29.3Z"/><path class="cls-1" d="M30.39,11.08a.3.3,0,0,1-.29-.3V.29A.29.29,0,0,1,30.39,0h.46a.3.3,0,0,1,.3.29V3.68a3.3,3.3,0,0,1,2.3-1c1.85,0,2.81,1.06,2.81,2.94V8.29c0,1.87-1,2.94-2.81,2.94a3.43,3.43,0,0,1-2.35-1.05l0,.6a.34.34,0,0,1-.33.3Zm.76-6.29V9.1a3.05,3.05,0,0,0,2.23,1.18c1.33,0,1.83-.77,1.83-2.19V5.79c0-1.42-.5-2.19-1.83-2.19A3,3,0,0,0,31.15,4.79Z"/><path class="cls-1" d="M41.71,2.92v.46a.23.23,0,0,1-.25.25,2.69,2.69,0,0,0-2,1.29v5.86a.31.31,0,0,1-.3.3h-.46a.3.3,0,0,1-.29-.3V3.1a.29.29,0,0,1,.29-.29H39a.32.32,0,0,1,.32.29l.06.74a2.93,2.93,0,0,1,2-1.17A.27.27,0,0,1,41.71,2.92Z"/><path class="cls-1" d="M45.73,11.23a2.84,2.84,0,0,1-3.12-3V5.67a2.84,2.84,0,0,1,3.12-3,2.84,2.84,0,0,1,3.12,3V6.88a.3.3,0,0,1-.3.3H43.66V8c0,1.47.74,2.24,2.07,2.24,1.51,0,2-.95,2-1.57a.25.25,0,0,1,.28-.26h.47a.26.26,0,0,1,.28.28A2.8,2.8,0,0,1,45.73,11.23ZM43.66,5.85v.4H47.8v-.4c0-1.48-.74-2.25-2.07-2.25S43.66,4.37,43.66,5.85Z"/><path class="cls-1" d="M61,0a.29.29,0,0,1,.29.29V10.78a.3.3,0,0,1-.29.3h-.34a.34.34,0,0,1-.33-.3l0-.6a3.43,3.43,0,0,1-2.35,1.05c-1.85,0-2.81-1.07-2.81-2.94V5.6c0-1.88,1-2.94,2.81-2.94a3.27,3.27,0,0,1,2.3,1V.29a.3.3,0,0,1,.3-.29ZM56.13,5.79v2.3c0,1.42.5,2.19,1.83,2.19A3.05,3.05,0,0,0,60.19,9.1V4.79A3.12,3.12,0,0,0,58,3.6C56.63,3.6,56.13,4.37,56.13,5.79Z"/><path class="cls-1" d="M66.49,11.23a2.84,2.84,0,0,1-3.12-3V5.67a3.12,3.12,0,0,1,6.23,0V6.88a.29.29,0,0,1-.29.3H64.42V8c0,1.47.74,2.24,2.07,2.24,1.51,0,2-.95,2-1.57a.25.25,0,0,1,.28-.26h.47a.26.26,0,0,1,.28.28A2.8,2.8,0,0,1,66.49,11.23ZM64.42,5.85v.4h4.14v-.4c0-1.48-.74-2.25-2.07-2.25S64.42,4.37,64.42,5.85Z"/><path class="cls-1" d="M77,11.08c-.74,0-1.11-.34-1.11-1.17V.29a.29.29,0,0,1,.3-.29h.45a.29.29,0,0,1,.3.29V9.53c0,.51.09.68.68.68.16,0,.23.08.23.22v.28C77.89,11.05,77.39,11.08,77,11.08Z"/><path class="cls-1" d="M79.11,8.29V5.6c0-1.88,1-2.94,2.8-2.94a3.44,3.44,0,0,1,2.35,1l0-.61a.32.32,0,0,1,.32-.29H85a.3.3,0,0,1,.3.29v7.68a.31.31,0,0,1-.3.3h-.34a.33.33,0,0,1-.32-.3l0-.6a3.39,3.39,0,0,1-2.35,1.05C80.07,11.23,79.11,10.16,79.11,8.29Zm1-2.5v2.3c0,1.42.5,2.19,1.83,2.19A3.09,3.09,0,0,0,84.22,9.1V4.79A3.14,3.14,0,0,0,82,3.6C80.66,3.6,80.16,4.37,80.16,5.79Z"/><path class="cls-1" d="M91.74,11.46a.26.26,0,0,1,.28-.28h.49a.25.25,0,0,1,.28.27c0,.59.59,1.05,1.9,1.05s2-.52,2-1.94V9.62a3.24,3.24,0,0,1-2.3,1,2.53,2.53,0,0,1-2.81-2.87V5.6c0-1.88,1-2.94,2.81-2.94a3.38,3.38,0,0,1,2.35,1l0-.61a.33.33,0,0,1,.33-.29h.34a.29.29,0,0,1,.29.29v7.64c0,1.81-1.25,2.7-3,2.7C92.73,13.44,91.74,12.63,91.74,11.46Zm.93-5.67V7.52c0,1.42.5,2.11,1.83,2.11a3,3,0,0,0,2.23-1.12V4.79A3,3,0,0,0,94.5,3.6C93.17,3.6,92.67,4.37,92.67,5.79Z"/><path class="cls-1" d="M103.32,2.92v.46a.23.23,0,0,1-.25.25,2.71,2.71,0,0,0-2,1.29v5.86a.3.3,0,0,1-.3.3h-.46a.3.3,0,0,1-.29-.3V3.1a.29.29,0,0,1,.29-.29h.33a.32.32,0,0,1,.32.29l.06.74a3,3,0,0,1,2-1.17A.27.27,0,0,1,103.32,2.92Z"/><path class="cls-1" d="M104.61,8.29V5.6c0-1.88,1-2.94,2.81-2.94a3.44,3.44,0,0,1,2.34,1l0-.61a.32.32,0,0,1,.32-.29h.34a.29.29,0,0,1,.3.29v7.68a.3.3,0,0,1-.3.3h-.34a.33.33,0,0,1-.32-.3l0-.6a3.38,3.38,0,0,1-2.34,1.05C105.57,11.23,104.61,10.16,104.61,8.29Zm1-2.5v2.3c0,1.42.5,2.19,1.83,2.19a3.07,3.07,0,0,0,2.23-1.18V4.79a3.12,3.12,0,0,0-2.23-1.19C106.16,3.6,105.66,4.37,105.66,5.79Z"/><path class="cls-1" d="M113.28,11.08a.3.3,0,0,1-.29-.3V.29a.29.29,0,0,1,.29-.29h.46a.3.3,0,0,1,.3.29V3.68a3.3,3.3,0,0,1,2.3-1c1.85,0,2.81,1.06,2.81,2.94V8.29c0,1.87-1,2.94-2.81,2.94A3.43,3.43,0,0,1,114,10.18l0,.6a.35.35,0,0,1-.33.3ZM114,4.79V9.1a3.05,3.05,0,0,0,2.23,1.18c1.32,0,1.83-.77,1.83-2.19V5.79c0-1.42-.51-2.19-1.83-2.19A3,3,0,0,0,114,4.79Z"/><path class="cls-1" d="M121.19,8.29V5.6c0-1.88,1-2.94,2.8-2.94a3.44,3.44,0,0,1,2.35,1l0-.61a.32.32,0,0,1,.32-.29h.34a.3.3,0,0,1,.3.29v7.68a.31.31,0,0,1-.3.3h-.34a.33.33,0,0,1-.32-.3l0-.6A3.39,3.39,0,0,1,124,11.23C122.15,11.23,121.19,10.16,121.19,8.29Zm1-2.5v2.3c0,1.42.5,2.19,1.83,2.19A3.09,3.09,0,0,0,126.3,9.1V4.79a3.14,3.14,0,0,0-2.23-1.19C122.74,3.6,122.24,4.37,122.24,5.79Z"/><path class="cls-1" d="M132.59,11.23a2.84,2.84,0,0,1-3.11-3V5.67a2.83,2.83,0,0,1,3.11-3c2,0,3.08,1.11,3.08,2.51a.25.25,0,0,1-.27.28h-.49a.25.25,0,0,1-.28-.27c0-.88-.69-1.58-2-1.58s-2.07.77-2.07,2.25V8c0,1.47.74,2.24,2.07,2.24s2-.74,2-1.57a.25.25,0,0,1,.28-.26h.47a.27.27,0,0,1,.29.28C135.67,10,134.56,11.23,132.59,11.23Z"/><path class="cls-1" d="M138.06,11.08a.31.31,0,0,1-.3-.3v-7l-.63-.06a.34.34,0,0,1-.3-.33V3.1a.3.3,0,0,1,.3-.29h1.39a.29.29,0,0,1,.29.29v7.68a.3.3,0,0,1-.29.3Zm.19-9.53c-.4,0-.66-.24-.66-.75s.26-.8.66-.8.71.25.71.8A.66.66,0,0,1,138.25,1.55Z"/><path class="cls-1" d="M140.94,8.21V5.67a3.12,3.12,0,0,1,6.23,0V8.21a3.12,3.12,0,0,1-6.23,0ZM142,5.85V8c0,1.47.74,2.24,2.07,2.24s2.07-.77,2.07-2.24V5.85c0-1.48-.74-2.25-2.07-2.25S142,4.37,142,5.85ZM143.84,2a.16.16,0,0,1-.14-.25l.82-1.3A.57.57,0,0,1,145,.18h.67a.14.14,0,0,1,.12.23l-1,1.33a.61.61,0,0,1-.47.24Z"/><path class="cls-1" d="M149.6,11.08a.31.31,0,0,1-.3-.3V3.1a.3.3,0,0,1,.3-.29h.34a.32.32,0,0,1,.32.29l.05.61a3.23,3.23,0,0,1,2.29-1c1.85,0,2.75.91,2.75,2.79v5.33a.31.31,0,0,1-.3.3h-.46a.3.3,0,0,1-.29-.3V5.64c0-1.42-.45-2-1.77-2a2.94,2.94,0,0,0-2.18,1.19v6a.3.3,0,0,1-.29.3Z"/><path class="cls-1" d="M158,4.21c-.4,0-.67-.24-.67-.75s.27-.8.67-.8.71.25.71.8A.66.66,0,0,1,158,4.21Zm0,7c-.4,0-.67-.24-.67-.76s.27-.8.67-.8.71.26.71.8A.66.66,0,0,1,158,11.23Z"/></g></g></svg>