<svg xmlns="http://www.w3.org/2000/svg" viewBox="0 0 262.65 410.65"><defs><style>.cls-1,.cls-16,.cls-6,.cls-7{fill:#fff;}.cls-1{stroke:gray;stroke-width:1.25px;}.cls-1,.cls-16,.cls-7{stroke-miterlimit:10;}.cls-2{fill:#495e9f;}.cls-3{fill:#d61b20;}.cls-4{fill:#e3b519;}.cls-5{fill:#4ba243;}.cls-16,.cls-7{stroke:#999;}.cls-7{stroke-width:1.43px;}.cls-8{fill:#666;}.cls-9{fill:#4b63ac;}.cls-10{fill:#fc2c20;}.cls-11{fill:#ffb012;}.cls-12{fill:#38a43b;}.cls-13{fill:#2e479e;}.cls-14{fill:#236a23;}.cls-15{fill:#4d64ac;}.cls-16{stroke-width:1.5px;}</style></defs><title>pagina_detalles</title><g id="Layer_2" data-name="Layer 2"><g id="Layer_1-2" data-name="Layer 1"><g id="Layer_2-2" data-name="Layer 2"><g id="Capa_1" data-name="Capa 1"><path class="cls-1" d="M24.52.62H238.13A23.9,23.9,0,0,1,262,24.52V386.13A23.88,23.88,0,0,1,238.13,410H24.52A23.9,23.9,0,0,1,.62,386.13V24.52A23.91,23.91,0,0,1,24.52.62Z"/><path class="cls-2" d="M85.22,57.23c-6.3,0-10.2-3.6-10.2-9.71V39.73c0-6.1,3.91-9.71,10.2-9.71,6.5,0,10.2,3.6,10.2,8.41a1.12,1.12,0,0,1-1,1.2h-2.5a1,1,0,0,1-1.1-.9v-.3c0-2.5-1.8-4.5-5.5-4.5s-5.6,2.2-5.6,6.4V47c0,4.21,2,6.41,5.6,6.41,3.8,0,5.5-2,5.5-4.41a1,1,0,0,1,.9-1.09h2.61a1.17,1.17,0,0,1,1.19,1V49C95.43,53.43,91.72,57.23,85.22,57.23Z"/><path class="cls-3" d="M102.12,56.73a1.19,1.19,0,0,1-1.19-1.1h0V34.23L99.43,34a1.19,1.19,0,0,1-1.1-1.2v-1.2a1.11,1.11,0,0,1,1.1-1.1h5a1.2,1.2,0,0,1,1.19,1.1h0v24a1.2,1.2,0,0,1-1.1,1.2h0Zm1-29.6c-1.69,0-2.8-.8-2.8-2.71a2.61,2.61,0,0,1,2.8-2.9,2.52,2.52,0,0,1,2.9,2.11v.79c0,1.9-1.19,2.71-2.9,2.71Z"/><path class="cls-4" d="M112,48.32V34.23h-1.59a1.22,1.22,0,0,1-1.2-1.21V31.63a1.22,1.22,0,0,1,1.2-1.21h1.69l.4-5.4a1.31,1.31,0,0,1,1.31-1.2h1.69a1.2,1.2,0,0,1,1.2,1.1h0v5.4h6.4a1.16,1.16,0,0,1,1.2,1.2h0V33a1.22,1.22,0,0,1-1.2,1.21h-6.4V48c0,3.71,1.5,5.41,4.8,5.41a19.58,19.58,0,0,0,2.41-.2.91.91,0,0,1,1.09.7v1.7a1.4,1.4,0,0,1-1.19,1.4,13.35,13.35,0,0,1-2.81.3C115.12,57.43,112,54.43,112,48.32Z"/><path class="cls-5" d="M130.13,56.73a1.19,1.19,0,0,1-1.2-1.1h0V22.73a1.21,1.21,0,0,1,1.1-1.21h2.3a1.2,1.2,0,0,1,1.2,1.11h0v10.3a10.4,10.4,0,0,1,6.9-3c6,0,8.8,3.4,8.8,9.4v8.5c0,6.1-2.7,9.4-8.8,9.4a10.2,10.2,0,0,1-7.1-3.2l-.11,1.5a1.4,1.4,0,0,1-1.39,1.2Zm3.5-19.5V50a8.59,8.59,0,0,0,6.1,3.21c3.6,0,4.9-2,4.9-6v-7.3c0-3.91-1.3-6-4.9-6A8.62,8.62,0,0,0,133.63,37.23Z"/><circle class="cls-3" cx="171.72" cy="41.23" r="16"/><path class="cls-6" d="M171,42h-.8v1.21h-1.1V39H171a2,2,0,0,1,1.3.41,1.6,1.6,0,0,1,.5,1.09,1.88,1.88,0,0,1-.2.8,1,1,0,0,1-.6.5l.9,1.41h-1.3Zm0-.9a.76.76,0,0,0,.5-.2.72.72,0,0,0,.2-.5.68.68,0,0,0-.7-.7h-.8V41Z"/><path class="cls-6" d="M176.83,38.93v.9h-2.2v.8h2v.9h-2v.8h2.3v.9h-3.4v-4.3Z"/><path class="cls-6" d="M179.63,39.82a1.51,1.51,0,0,0-.61.2,1.35,1.35,0,0,0-.39.41,1.48,1.48,0,0,0,0,1.3.84.84,0,0,0,.39.4,1.42,1.42,0,0,0,.61.2c.2,0,.39-.1.6-.1a1,1,0,0,0,.5-.4l.6.7a5.55,5.55,0,0,1-.8.6,3.55,3.55,0,0,1-1,.2,2.28,2.28,0,0,1-1.1-.3,3,3,0,0,1-.8-.8,2.17,2.17,0,0,1,0-2.2,3,3,0,0,1,.8-.8,2.66,2.66,0,0,1,1.2-.3,2.8,2.8,0,0,1,.89.2,2.14,2.14,0,0,1,.81.5l-.61.8a1,1,0,0,0-.5-.4A1.4,1.4,0,0,0,179.63,39.82Z"/><polygon class="cls-6" points="161.32 37.63 161.32 36.42 158.82 36.42 158.82 37.13 158.82 37.63 158.82 44.33 158.82 45.13 158.82 45.52 161.32 45.52 161.32 44.33 160.03 44.33 160.03 37.63 161.32 37.63"/><polygon class="cls-6" points="182.03 44.33 182.03 45.52 184.53 45.52 184.53 44.83 184.53 44.33 184.53 37.63 184.53 36.83 184.53 36.42 182.03 36.42 182.03 37.63 183.32 37.63 183.32 44.33 182.03 44.33"/><circle class="cls-6" cx="164.22" cy="40.93" r="2.8"/><rect class="cls-7" x="20.52" y="109.72" width="221.6" height="27.1"/><path class="cls-8" d="M54.32,234.42v-4.3c0-2,1.6-3.2,3.7-3.2s3.71,1.2,3.71,3.2v4.3c0,2-1.6,3.2-3.71,3.2S54.32,236.42,54.32,234.42Zm1.2-4.09v3.89a2.5,2.5,0,0,0,5,0v-3.89a2.5,2.5,0,0,0-5,0Z"/><path class="cls-8" d="M63.93,239.63a.27.27,0,0,1-.3-.3v-9.9a.27.27,0,0,1,.3-.3h.3a.27.27,0,0,1,.3.3v.6a3.59,3.59,0,0,1,2.4-1.1,2.61,2.61,0,0,1,2.8,2.9v2.69a2.56,2.56,0,0,1-2.8,2.9,3.26,3.26,0,0,1-2.3-1v2.7a.27.27,0,0,1-.3.3Zm.79-8.5v4.3a3.25,3.25,0,0,0,2.2,1.2c1.3,0,1.8-.8,1.8-2.2v-2.3c0-1.4-.5-2.2-1.8-2.2A3,3,0,0,0,64.72,231.13Z"/><path class="cls-8" d="M75,237.63a2.8,2.8,0,0,1-3.09-2.5V232a2.81,2.81,0,0,1,2.59-3H75c2,0,3.1,1.11,3.1,2.5,0,.11-.1.31-.19.31h-.6c-.1,0-.31-.11-.31-.2v-.11c0-.89-.69-1.6-2-1.6a2,2,0,0,0-2.09,2.2v2.2c0,1.5.69,2.2,2.09,2.2s2-.7,2-1.6c0-.1.1-.3.2-.3h.5c.1,0,.3.1.3.2h0A2.74,2.74,0,0,1,75,237.63Z"/><path class="cls-8" d="M80.43,237.42a.27.27,0,0,1-.31-.3v-7l-.6-.1a.33.33,0,0,1-.3-.3v-.2a.27.27,0,0,1,.3-.3h1.41a.27.27,0,0,1,.3.3v7.7a.27.27,0,0,1-.3.3Zm.19-9.5c-.4,0-.69-.2-.69-.8s.3-.8.69-.8.7.2.7.8a.56.56,0,0,1-.6.7C80.72,227.92,80.72,227.92,80.62,227.92Z"/><path class="cls-8" d="M83.33,234.63V232a3.1,3.1,0,1,1,6.19,0v2.5a3.12,3.12,0,0,1-3.09,3.11,3,3,0,0,1-3.1-3Zm1-2.41v2.2c0,1.5.69,2.2,2.1,2.2a1.92,1.92,0,0,0,2.09-2.2v-2.2c0-1.5-.69-2.2-2.09-2.2s-2,.7-2.1,2.2Z"/><path class="cls-8" d="M92,237.42a.27.27,0,0,1-.3-.3v-7.7a.27.27,0,0,1,.3-.3h.31a.27.27,0,0,1,.3.3v.6a3.4,3.4,0,0,1,2.3-1.1,2.49,2.49,0,0,1,2.8,2.8V237a.27.27,0,0,1-.3.31H97a.28.28,0,0,1-.3-.31v-5c0-1.39-.4-2-1.8-2a3.08,3.08,0,0,0-2.2,1.2v6a.27.27,0,0,1-.3.3Z"/><path class="cls-8" d="M102.93,237.63a2.81,2.81,0,0,1-3.1-2.5V232a3.11,3.11,0,0,1,6.2,0v1.2a.27.27,0,0,1-.3.3h-4.9v.9c0,1.5.69,2.2,2.1,2.2s2-.9,2-1.6c0-.1.09-.3.19-.3h.5c.1,0,.31.1.31.2h0A2.77,2.77,0,0,1,102.93,237.63Zm-2-5.41v.4H105v-.4c0-1.5-.69-2.2-2.09-2.2S100.93,230.72,100.93,232.22Z"/><path class="cls-8" d="M111,236.72c1.31,0,1.91-.7,1.91-1.6s-.81-1.2-2-1.4c-1.5-.2-2.91-.6-2.91-2.2v-.19c0-1.31.91-2.31,2.81-2.31a2.67,2.67,0,0,1,2.9,2.31v.19a.27.27,0,0,1-.3.31H113a.28.28,0,0,1-.3-.31c0-.6-.5-1.5-1.9-1.5s-1.8.61-1.8,1.5.9,1.31,2,1.5c1.4.11,2.9.5,2.9,2.11v.3c0,1.3-1,2.4-3,2.4s-3.2-1.11-3.2-2.5a.27.27,0,0,1,.3-.31h.5a.28.28,0,0,1,.31.31h0A2,2,0,0,0,111,236.72Z"/><path class="cls-8" d="M125.83,226.42a.27.27,0,0,1,.3.3h0v10.5a.27.27,0,0,1-.3.3h-.31a.27.27,0,0,1-.3-.3v-.6a3.45,3.45,0,0,1-2.3,1,2.61,2.61,0,0,1-2.8-2.9V232a2.56,2.56,0,0,1,2.8-2.89,3.21,3.21,0,0,1,2.3,1v-3.3a.27.27,0,0,1,.3-.31h0ZM121,232.13v2.3c0,1.4.5,2.2,1.81,2.2a3.06,3.06,0,0,0,2.19-1.2v-4.3a3.21,3.21,0,0,0-2.19-1.2C121.52,230,121,230.72,121,232.13Z"/><path class="cls-8" d="M131.33,237.63a2.77,2.77,0,0,1-3.11-2.5V232a3.11,3.11,0,0,1,6.21,0h0v1.2a.27.27,0,0,1-.3.3h-4.9v.9c0,1.5.7,2.2,2.1,2.2s2-.9,2-1.6c0-.1.1-.3.2-.3h.5c.1,0,.3.1.3.2h0A2.78,2.78,0,0,1,131.33,237.63Zm-2-5.41v.4h4.1v-.4c0-1.5-.7-2.2-2.1-2.2S129.33,230.72,129.33,232.22Z"/><path class="cls-8" d="M147.52,234.92c0,1.6-1.39,2.8-3.39,2.8a3.17,3.17,0,0,1-3.5-2.89v-4.61a3.15,3.15,0,0,1,3.2-3.2h.3c2,0,3.39,1.2,3.39,2.81V230c0,.11-.1.31-.19.31h-.61c-.1,0-.3-.11-.3-.2v-.21c0-1.1-1-1.9-2.4-1.9a2.23,2.23,0,0,0-2.39,2v4.3a2.22,2.22,0,0,0,2,2.4H144c1.4,0,2.4-.8,2.4-2v-.2c0-.1.1-.3.2-.3h.6a.31.31,0,0,1,.3.3h0Z"/><path class="cls-8" d="M149.42,234.63V232a2.56,2.56,0,0,1,2.8-2.89,3.64,3.64,0,0,1,2.4,1l.1-.61a.33.33,0,0,1,.3-.3h.31a.27.27,0,0,1,.3.3v7.7a.27.27,0,0,1-.3.3H155a.27.27,0,0,1-.3-.3l-.1-.6a3.49,3.49,0,0,1-2.4,1C150.33,237.63,149.42,236.52,149.42,234.63Zm1-2.5v2.3c0,1.4.5,2.2,1.8,2.2a3.08,3.08,0,0,0,2.2-1.2v-4.3a3.21,3.21,0,0,0-2.2-1.2c-1.3.09-1.8.79-1.8,2.2Z"/><path class="cls-8" d="M158.83,237.42c-.7,0-1.11-.3-1.11-1.2v-9.6a.27.27,0,0,1,.3-.3h.5a.27.27,0,0,1,.31.3h0v9.2c0,.5.1.7.69.7.2,0,.2.1.2.2v.3C159.72,237.42,159.22,237.42,158.83,237.42Z"/><path class="cls-8" d="M164,237.63a2.76,2.76,0,0,1-3.1-2.5V232a3.11,3.11,0,0,1,6.2,0v1.2a.27.27,0,0,1-.3.3H162v.9c0,1.5.7,2.2,2.11,2.2s2-.9,2-1.6c0-.1.1-.3.2-.3h.5c.1,0,.3.1.3.2h0a2.86,2.86,0,0,1-3.11,2.71Zm-2-5.41v.4h4.11v-.4c0-1.5-.7-2.2-2.11-2.2S162,230.72,162,232.22Z"/><path class="cls-8" d="M169.52,237.42a.27.27,0,0,1-.3-.3v-7.7a.27.27,0,0,1,.3-.3h.31a.27.27,0,0,1,.3.3l.1.6a3.26,3.26,0,0,1,2.3-1c1.8,0,2.7.9,2.7,2.81v5.3a.27.27,0,0,1-.3.3h-.5a.27.27,0,0,1-.3-.3V232c0-1.39-.4-2-1.8-2a3.08,3.08,0,0,0-2.2,1.2v6a.27.27,0,0,1-.3.3Z"/><path class="cls-8" d="M183.22,226.42a.27.27,0,0,1,.3.3h0v10.5a.27.27,0,0,1-.3.3h-.3a.27.27,0,0,1-.3-.3v-.6a3.49,3.49,0,0,1-2.4,1,2.61,2.61,0,0,1-2.8-2.9V232a2.56,2.56,0,0,1,2.8-2.89,3.21,3.21,0,0,1,2.3,1v-3.3a.28.28,0,0,1,.31-.31h0Zm-4.8,5.71v2.3c0,1.4.5,2.2,1.8,2.2a3.08,3.08,0,0,0,2.2-1.2v-4.3a3.21,3.21,0,0,0-2.2-1.2C178.92,230,178.42,230.72,178.42,232.13Z"/><path class="cls-8" d="M185.72,234.63V232a2.56,2.56,0,0,1,2.8-2.89,3.64,3.64,0,0,1,2.4,1v-.61a.33.33,0,0,1,.3-.3h.3a.28.28,0,0,1,.31.3v7.7a.27.27,0,0,1-.31.3h-.3a.27.27,0,0,1-.3-.3v-.6a3.49,3.49,0,0,1-2.4,1C186.63,237.63,185.72,236.52,185.72,234.63Zm1-2.5v2.3c0,1.4.5,2.2,1.8,2.2a3.08,3.08,0,0,0,2.2-1.2v-4.3a3.19,3.19,0,0,0-2.2-1.2C187.22,230,186.72,230.72,186.72,232.13Z"/><path class="cls-8" d="M197.42,229.33v.5a.21.21,0,0,1-.2.19h-.1a2.81,2.81,0,0,0-2,1.31v5.89a.27.27,0,0,1-.3.3h-.5a.27.27,0,0,1-.3-.3v-7.7a.27.27,0,0,1,.3-.3h.3a.27.27,0,0,1,.3.3l.1.7a3.22,3.22,0,0,1,2-1.2c.2,0,.4.11.4.31Z"/><path class="cls-8" d="M199.13,237.42a.27.27,0,0,1-.3-.3h0v-7l-.61-.1a.32.32,0,0,1-.3-.3v-.2a.27.27,0,0,1,.3-.3h1.4a.27.27,0,0,1,.3.3h0v7.7a.27.27,0,0,1-.3.3h0Zm.09-9.5c-.39,0-.7-.2-.7-.8s.31-.8.7-.8.7.2.7.8a.56.56,0,0,1-.6.7C199.33,227.92,199.33,227.92,199.22,227.92Z"/><path class="cls-8" d="M201.92,234.63V232a3.11,3.11,0,0,1,6.2,0v2.5a3.12,3.12,0,0,1-3.3,2.9,3,3,0,0,1-2.9-2.79Zm1-2.41v2.2c0,1.5.7,2.2,2.1,2.2a1.93,1.93,0,0,0,2.11-2.2v-2.2c0-1.5-.7-2.2-2.11-2.2s-2,.7-2.1,2.2Z"/><path class="cls-8" d="M52.32,96.83c-.2,0-.3-.1-.3-.31h0v-9.8a.27.27,0,0,1,.3-.3h.8c.2,0,.4.1.4.3l4.71,8.5v-8.5c0-.2.09-.3.29-.3H59a.26.26,0,0,1,.3.3h0v9.8c0,.2-.09.31-.3.31h-.79c-.21,0-.41-.1-.41-.31L53.12,88v8.5a.27.27,0,0,1-.3.31Z"/><path class="cls-8" d="M61.32,93.93v-2.5a3.11,3.11,0,0,1,6.2,0v2.5a3.12,3.12,0,0,1-3.3,2.9A3,3,0,0,1,61.32,93.93Zm1-2.31v2.2c0,1.5.7,2.2,2.11,2.2a1.92,1.92,0,0,0,2.09-2.2v-2.2c0-1.5-.69-2.19-2.09-2.19s-2.11.69-2.11,2.19Z"/><path class="cls-8" d="M69.93,96.83a.28.28,0,0,1-.31-.31h0V88.83a.28.28,0,0,1,.31-.31h.3c.2,0,.3.1.3.31v.6a3.33,3.33,0,0,1,2.1-1.1,2.38,2.38,0,0,1,2.3,1.19,3,3,0,0,1,2.3-1.19c1.8,0,2.6.9,2.6,2.8v5.3a.27.27,0,0,1-.3.3H79a.27.27,0,0,1-.3-.3h0v-5.1c0-1.4-.3-2-1.6-2a2.84,2.84,0,0,0-2,1.2c0,.3.1.6.1.8v5.2a.27.27,0,0,1-.3.3h-.5a.27.27,0,0,1-.31-.3h0v-5c0-1.4-.3-2.2-1.6-2.2a2.84,2.84,0,0,0-2,1.2v6a.26.26,0,0,1-.3.3h-.29Z"/><path class="cls-8" d="M82.43,96.83a.28.28,0,0,1-.31-.31h0V86a.27.27,0,0,1,.31-.3h.5a.27.27,0,0,1,.3.3v3.41a3.26,3.26,0,0,1,2.3-1,2.6,2.6,0,0,1,2.8,2.9V94c0,1.91-1,2.91-2.8,2.91a3.3,3.3,0,0,1-2.3-1v.59a.33.33,0,0,1-.3.31Zm.79-6.31v4.31A3.24,3.24,0,0,0,85.42,96c1.3,0,1.8-.8,1.8-2.19V91.52c0-1.4-.5-2.19-1.8-2.19A3.07,3.07,0,0,0,83.22,90.52Z"/><path class="cls-8" d="M93.72,88.72v.5a.22.22,0,0,1-.2.2h0a2.78,2.78,0,0,0-2,1.3v5.9c0,.2-.09.31-.3.31h-.5c-.2,0-.3-.1-.3-.31h0V88.93a.27.27,0,0,1,.3-.31H91a.28.28,0,0,1,.31.31l.1.69a3.14,3.14,0,0,1,2-1.19A.25.25,0,0,1,93.72,88.72Z"/><path class="cls-8" d="M97.83,97a2.76,2.76,0,0,1-3.1-2.5V91.43a3.11,3.11,0,0,1,6.2,0v1.19a.27.27,0,0,1-.3.31h-4.9v.9c0,1.5.7,2.19,2.1,2.19s2-.9,2-1.59c0-.1.1-.31.19-.31h.6a.33.33,0,0,1,.31.31h0A3,3,0,0,1,97.83,97Zm-2.11-5.4V92h4.1v-.4c0-1.5-.7-2.19-2.1-2.19s-2,.69-2,2.19Z"/><path class="cls-8" d="M113,85.72a.27.27,0,0,1,.31.3h0v10.5a.28.28,0,0,1-.31.31h-.3c-.2,0-.3-.1-.3-.31v-.59a3.49,3.49,0,0,1-2.3,1,2.61,2.61,0,0,1-2.8-2.91V91.43c0-1.91,1-2.91,2.8-2.91a3.3,3.3,0,0,1,2.3,1V86a.27.27,0,0,1,.3-.3h.3Zm-4.8,5.8v2.31c0,1.4.5,2.19,1.8,2.19a3,3,0,0,0,2.2-1.19V90.52a3.5,3.5,0,0,0-2.3-1.19c-1.2,0-1.7.79-1.7,2.19Z"/><path class="cls-8" d="M118.52,97a2.75,2.75,0,0,1-3.09-2.5V91.43a3.11,3.11,0,0,1,6.2,0v1.19a.27.27,0,0,1-.3.31h-4.9v.9c0,1.5.69,2.19,2.09,2.19s2-.9,2-1.59c0-.1.1-.31.2-.31h.5a.32.32,0,0,1,.3.31h0a2.74,2.74,0,0,1-3,2.59Zm-2.09-5.4V92h4.09v-.4c0-1.5-.69-2.19-2.09-2.19s-2,.69-2,2.19Z"/><path class="cls-8" d="M129.13,96.83c-.7,0-1.11-.31-1.11-1.2V86a.28.28,0,0,1,.31-.3h.5a.27.27,0,0,1,.3.3v9.2c0,.5.1.7.7.7a.21.21,0,0,1,.19.2v.4C129.92,96.83,129.42,96.83,129.13,96.83Z"/><path class="cls-8" d="M131.13,94V91.33a2.56,2.56,0,0,1,2.8-2.9,3.39,3.39,0,0,1,2.4,1.09v-.59a.32.32,0,0,1,.3-.31H137a.28.28,0,0,1,.31.31v7.69a.28.28,0,0,1-.31.31h-.3c-.2,0-.3-.1-.3-.31V96a3.49,3.49,0,0,1-2.4,1C132.13,97,131.13,95.93,131.13,94Zm1-2.5v2.31c0,1.4.5,2.19,1.8,2.19a3,3,0,0,0,2.2-1.19V90.52a3.07,3.07,0,0,0-2.2-1.19c-1.21,0-1.71.79-1.8,2.19Z"/><path class="cls-8" d="M143.83,97.22c0-.1.1-.3.19-.3h.5c.11,0,.31.1.31.2h0c0,.6.6,1,1.89,1s2-.5,2-1.9v-.9a3.24,3.24,0,0,1-2.3,1,2.49,2.49,0,0,1-2.8-2.2v-2.8a2.56,2.56,0,0,1,2.8-2.9,3,3,0,0,1,2.3,1.1l.11-.6a.31.31,0,0,1,.3-.3h.3a.27.27,0,0,1,.3.3h0v7.6c0,1.8-1.3,2.7-3,2.7C144.83,99.22,143.83,98.33,143.83,97.22Zm.89-5.7v1.7c0,1.4.5,2.1,1.8,2.1a2.66,2.66,0,0,0,2.2-1.1v-3.7a3.25,3.25,0,0,0-2.2-1.19c-1.3,0-1.8.79-1.8,2.19Z"/><path class="cls-8" d="M155.33,88.72v.5a.22.22,0,0,1-.2.2h0a2.75,2.75,0,0,0-2,1.3v5.9a.28.28,0,0,1-.3.31h-.5a.28.28,0,0,1-.31-.31V88.93a.28.28,0,0,1,.31-.31h.3c.2,0,.3.1.3.31l.1.69a3.16,3.16,0,0,1,2-1.19.26.26,0,0,1,.3.29Z"/><path class="cls-8" d="M156.63,94V91.33a2.56,2.56,0,0,1,2.8-2.9,3.39,3.39,0,0,1,2.4,1.09l.1-.59a.33.33,0,0,1,.3-.31h.3c.2,0,.3.1.3.31v7.69a.27.27,0,0,1-.3.31h-.3c-.2,0-.3-.1-.3-.31l-.1-.6a3.51,3.51,0,0,1-2.4,1C157.63,97,156.63,95.93,156.63,94Zm1.09-2.5v2.31c0,1.4.5,2.19,1.8,2.19a3,3,0,0,0,2.2-1.19V90.52a3.25,3.25,0,0,0-2.2-1.19c-1.3,0-1.8.79-1.8,2.19Z"/><path class="cls-8" d="M165.33,96.83a.28.28,0,0,1-.31-.31V86a.28.28,0,0,1,.31-.3h.5a.27.27,0,0,1,.3.3v3.41a3.24,3.24,0,0,1,2.3-1,2.6,2.6,0,0,1,2.8,2.9V94c0,1.91-1,2.91-2.8,2.91a3.74,3.74,0,0,1-2.4-1v.59a.33.33,0,0,1-.3.31Zm.8-6.31v4.31a3.21,3.21,0,0,0,2.2,1.19c1.3,0,1.8-.8,1.8-2.19V91.52c0-1.4-.5-2.19-1.8-2.19A3.05,3.05,0,0,0,166.13,90.52Z"/><path class="cls-8" d="M173.22,94V91.33a2.56,2.56,0,0,1,2.8-2.9,3.39,3.39,0,0,1,2.4,1.09v-.59a.33.33,0,0,1,.3-.31h.3a.28.28,0,0,1,.31.31v7.69a.28.28,0,0,1-.31.31h-.3c-.2,0-.3-.1-.3-.31V96a3.19,3.19,0,0,1-2.4,1.1A2.76,2.76,0,0,1,173.22,94Zm1-2.5v2.31c0,1.4.5,2.19,1.8,2.19a3,3,0,0,0,2.2-1.19V90.52a3.25,3.25,0,0,0-2.2-1.19c-1.19,0-1.8.79-1.8,2.19Z"/><path class="cls-8" d="M184.63,97a2.77,2.77,0,0,1-3.11-2.5V91.43a2.82,2.82,0,0,1,2.7-3h.5c2,0,3.11,1.09,3.11,2.5,0,.09-.11.3-.2.3h-.5c-.11,0-.3-.1-.3-.2h0c0-.9-.7-1.6-2-1.6a2,2,0,0,0-2.11,2.2v2.2c0,1.5.7,2.19,2.11,2.19s2-.69,2-1.59c0-.1.1-.31.19-.31h.61c.1,0,.3.1.3.2h0A3.05,3.05,0,0,1,184.63,97Z"/><path class="cls-8" d="M190.13,96.83c-.2,0-.3-.1-.3-.31V89.43l-.61-.1a.32.32,0,0,1-.3-.31v-.3a.27.27,0,0,1,.3-.3h1.4a.27.27,0,0,1,.3.3v7.7a.27.27,0,0,1-.3.3h-.49Zm.2-9.5c-.4,0-.7-.2-.7-.81s.3-.8.7-.8.69.2.69.8a.55.55,0,0,1-.6.7C190.42,87.33,190.33,87.33,190.33,87.33Z"/><path class="cls-8" d="M193,93.93v-2.5a3.15,3.15,0,0,1,3.31-2.91,3.11,3.11,0,0,1,2.89,2.91v2.5a3.13,3.13,0,0,1-3.3,2.9A3.05,3.05,0,0,1,193,93.93Zm1-2.31v2.2c0,1.5.7,2.2,2.11,2.2a1.93,1.93,0,0,0,2.1-2.2v-2.2c0-1.5-.7-2.19-2.1-2.19S194,90.12,194,91.62Zm1.9-3.9a.22.22,0,0,1-.2-.2v-.09l.8-1.31a.8.8,0,0,1,.5-.19h.7c.11,0,.11.09.11.19v.1l-1,1.3a.81.81,0,0,1-.5.2Z"/><path class="cls-8" d="M201.63,96.83c-.2,0-.3-.1-.3-.31V88.83a.27.27,0,0,1,.3-.31H202a.28.28,0,0,1,.31.31l.1.6a3.84,3.84,0,0,1,2.3-1.1c1.8,0,2.7.9,2.7,2.8v5.3a.27.27,0,0,1-.3.3h-.5a.27.27,0,0,1-.3-.3v-5.1c0-1.4-.4-2-1.81-2a3.23,3.23,0,0,0-2.19,1.2v6a.27.27,0,0,1-.31.3Z"/><path class="cls-8" d="M210,89.93c-.39,0-.69-.2-.69-.81s.3-.8.69-.8.7.2.7.8a.54.54,0,0,1-.5.7C210.13,89.93,210.13,89.93,210,89.93Zm0,7c-.39,0-.69-.2-.69-.81s.3-.8.69-.8.7.2.7.8a.62.62,0,0,1-.5.81c0,.09-.09.09-.2,0Z"/><path class="cls-9" d="M141.83,176.63V187h-20.9v19.2h-10.5v-26.1a3.54,3.54,0,0,1,3.5-3.5h27.9Z"/><polygon class="cls-10" points="141.82 216.63 141.82 206.22 152.22 206.22 141.82 216.63"/><rect class="cls-11" x="141.83" y="185.33" width="10.5" height="20.9"/><rect class="cls-12" x="120.93" y="206.22" width="20.9" height="10.5"/><path class="cls-13" d="M152.22,180.13v7h-10.5v-10.5h7A3.42,3.42,0,0,1,152.22,180.13Z"/><path class="cls-14" d="M120.93,206.22v10.5h-7a3.54,3.54,0,0,1-3.5-3.5v-7Z"/><path class="cls-9" d="M130.83,198.52c0,1.61-1.11,3.11-3.7,3.11a5.44,5.44,0,0,1-2.7-.7l-.1-.1.5-1.4.2.1a3.61,3.61,0,0,0,2,.6,2.4,2.4,0,0,0,1.49-.5,1.17,1.17,0,0,0,.4-1.1c0-1.3-1.2-1.7-2.3-1.7h-.9v-1.4h.9c.8,0,2-.4,2-1.4q0-1.2-1.5-1.2a2.79,2.79,0,0,0-1.8.6l-.2.2-.5-1.4.1-.1a5,5,0,0,1,2.7-.8c2.1,0,3,1.3,3,2.5a2.44,2.44,0,0,1-1.4,2.3A2.44,2.44,0,0,1,130.83,198.52Z"/><polygon class="cls-9" points="136.13 191.32 136.13 201.53 134.32 201.53 134.32 193.13 132.72 194.03 132.32 192.63 134.72 191.32 136.13 191.32"/><path class="cls-8" d="M84.33,271.82h.5a.21.21,0,0,1,.19.2v.11a1.81,1.81,0,0,0,2,1.6c1.2,0,1.81-.6,1.81-1.5s-.81-1.3-1.9-1.4c-1.41-.1-2.7-.6-2.7-2.1v-.21c0-1.2.8-2.2,2.6-2.2a2.37,2.37,0,0,1,2.6,2.1v.3a.22.22,0,0,1-.2.2h-.5a.22.22,0,0,1-.2-.2h0a1.58,1.58,0,0,0-1.6-1.6h-.2c-1.2,0-1.7.6-1.7,1.5,0,1.1.8,1.4,1.9,1.5s2.6.5,2.6,2v.3c0,1.3-.9,2.2-2.7,2.2s-2.9-1.1-2.9-2.4C84.12,271.92,84.22,271.82,84.33,271.82Z"/><path class="cls-8" d="M93.43,274.42a2.23,2.23,0,0,1-2.41-2v-2.29a2.41,2.41,0,0,1,4.81,0V271a.22.22,0,0,1-.2.21h-3.8v.7a1.5,1.5,0,0,0,1.6,1.7,1.47,1.47,0,0,0,1.59-1.2.22.22,0,0,1,.2-.2h.4a.22.22,0,0,1,.2.2h0a2.22,2.22,0,0,1-2.39,2Zm-1.6-4.19v.29H95v-.29a1.6,1.6,0,1,0-3.19,0Z"/><path class="cls-8" d="M98.33,274.32c-.6,0-.81-.3-.81-.9V266a.22.22,0,0,1,.2-.2H98a.22.22,0,0,1,.2.2h0v7.11c0,.39.1.5.5.5.1,0,.2,0,.2.1h0v.2C98.93,274.23,98.62,274.32,98.33,274.32Z"/><path class="cls-8" d="M102.33,274.42a2.22,2.22,0,0,1-2.4-2v-2.29a2.4,2.4,0,0,1,4.8,0V271a.22.22,0,0,1-.2.21h-3.8v.7a1.5,1.5,0,0,0,1.6,1.7,1.49,1.49,0,0,0,1.6-1.2.21.21,0,0,1,.19-.2h.4a.22.22,0,0,1,.2.2h0a2.28,2.28,0,0,1-2.39,2Zm-1.61-4.19v.29h3.2v-.29a1.6,1.6,0,1,0-3.2,0Z"/><path class="cls-8" d="M108.62,274.42a2.23,2.23,0,0,1-2.4-2v-2.29a2.13,2.13,0,0,1,2-2.3h.4c1.5,0,2.4.9,2.4,1.9a.21.21,0,0,1-.19.2h-.4a.22.22,0,0,1-.2-.2c0-.71-.5-1.21-1.6-1.21s-1.6.61-1.6,1.71v1.7a1.5,1.5,0,0,0,1.6,1.7c1,0,1.6-.6,1.6-1.2a.22.22,0,0,1,.2-.2h.4a.21.21,0,0,1,.19.2h0A2.13,2.13,0,0,1,108.62,274.42Z"/><path class="cls-8" d="M114.93,274.42a2.23,2.23,0,0,1-2.41-2v-2.29a2.14,2.14,0,0,1,2-2.3h.41c1.5,0,2.4.9,2.4,1.9a.22.22,0,0,1-.2.2h-.4a.22.22,0,0,1-.2-.2c0-.71-.5-1.21-1.6-1.21s-1.6.61-1.6,1.71v1.7a1.5,1.5,0,0,0,1.6,1.7c1,0,1.6-.6,1.6-1.2a.22.22,0,0,1,.2-.2h.4a.22.22,0,0,1,.2.2h0A2.13,2.13,0,0,1,114.93,274.42Z"/><path class="cls-8" d="M119.12,274.32a.21.21,0,0,1-.19-.2h0v-5.4h-.5a.22.22,0,0,1-.2-.2v-.2a.22.22,0,0,1,.2-.2h1.09a.22.22,0,0,1,.2.2h0v5.9a.22.22,0,0,1-.2.2h0Zm.21-7.4c-.31,0-.5-.2-.5-.6s.19-.6.5-.6.5.2.5.6S119.62,266.92,119.33,266.92Z"/><path class="cls-8" d="M121.33,272v-1.89a2.4,2.4,0,1,1,4.8,0v2a2.4,2.4,0,1,1-4.8-.11Zm.79-1.79v1.7a1.6,1.6,0,1,0,3.2,0v-1.7a1.51,1.51,0,0,0-1.6-1.71c-1,0-1.5.61-1.6,1.71Z"/><path class="cls-8" d="M128,274.32a.21.21,0,0,1-.19-.2v-5.9a.21.21,0,0,1,.19-.2h.31a.21.21,0,0,1,.19.2v.5a2.53,2.53,0,0,1,1.81-.8,1.83,1.83,0,0,1,2.1,1.6v4.71a.22.22,0,0,1-.2.2h-.4a.22.22,0,0,1-.2-.2h0v-4c0-1.1-.3-1.6-1.4-1.6a2.22,2.22,0,0,0-1.7.89v4.71a.22.22,0,0,1-.2.2Z"/><path class="cls-8" d="M134,272.13V270a2,2,0,0,1,1.7-2.2h.4a2.5,2.5,0,0,1,1.8.8v-.5a.22.22,0,0,1,.2-.2h.3a.22.22,0,0,1,.2.2h0V274a.22.22,0,0,1-.2.2h-.3a.22.22,0,0,1-.2-.2v-.5a2.5,2.5,0,0,1-1.8.8,2,2,0,0,1-2.2-1.8C134,272.42,134,272.32,134,272.13Zm.81-1.9V272c0,1.11.39,1.71,1.39,1.71a2.23,2.23,0,0,0,1.7-.9v-3.3a2.23,2.23,0,0,0-1.7-.9c-1-.11-1.3.5-1.39,1.6Z"/><path class="cls-8" d="M143,268v.4a.22.22,0,0,1-.19.21h0a2.32,2.32,0,0,0-1.61,1V274a.22.22,0,0,1-.2.21h-.39a.21.21,0,0,1-.2-.21h0v-5.89a.22.22,0,0,1,.2-.21h.3a.22.22,0,0,1,.2.21v.6a2.31,2.31,0,0,1,1.6-.9C143,267.82,143,267.92,143,268Z"/><path class="cls-8" d="M149.72,274.42a2.21,2.21,0,0,1-2.39-2v-2.29a2.12,2.12,0,0,1,2-2.3h.39c1.5,0,2.4.9,2.4,1.9a.22.22,0,0,1-.2.2h-.4a.21.21,0,0,1-.19-.2h0c0-.71-.5-1.21-1.61-1.21s-1.6.61-1.6,1.71v1.7a1.5,1.5,0,0,0,1.6,1.7c1,0,1.61-.6,1.61-1.2a.21.21,0,0,1,.19-.2h.4a.22.22,0,0,1,.2.2h0A2.18,2.18,0,0,1,149.72,274.42Z"/><path class="cls-8" d="M153.63,272.13V270a1.94,1.94,0,0,1,1.7-2.2h.39a2.5,2.5,0,0,1,1.8.8v-.5a.22.22,0,0,1,.2-.2h.3a.21.21,0,0,1,.2.2h0V274a.22.22,0,0,1-.2.2h-.3a.22.22,0,0,1-.2-.2v-.5a2.5,2.5,0,0,1-1.8.8,2,2,0,0,1-2.2-1.8A.54.54,0,0,0,153.63,272.13Zm.79-1.9V272c0,1.11.4,1.71,1.4,1.71a2.23,2.23,0,0,0,1.7-.9v-3.3a2.23,2.23,0,0,0-1.7-.9c-1-.11-1.4.5-1.4,1.6Z"/><path class="cls-8" d="M160.92,274.32a.8.8,0,0,1-.9-.9V266a.22.22,0,0,1,.2-.2h.4a.22.22,0,0,1,.2.2h0v7.11c0,.39.1.5.5.5.1,0,.2,0,.2.1h0v.2C161.52,274.23,161.22,274.32,160.92,274.32Z"/><path class="cls-8" d="M164.92,274.42a2.22,2.22,0,0,1-2.4-2v-2.29a2.4,2.4,0,0,1,4.8,0V271a.22.22,0,0,1-.2.21h-3.8v.7a1.5,1.5,0,0,0,1.6,1.7,1.49,1.49,0,0,0,1.6-1.2.22.22,0,0,1,.2-.2h.3a.21.21,0,0,1,.2.2h0A2.12,2.12,0,0,1,164.92,274.42Zm-1.59-4.19v.29h3.19v-.29a1.6,1.6,0,1,0-3.19,0Z"/><path class="cls-8" d="M169.13,274.32a.21.21,0,0,1-.2-.2v-5.9a.22.22,0,0,1,.2-.2h.3a.22.22,0,0,1,.2.2v.5a2.5,2.5,0,0,1,1.8-.8,1.9,1.9,0,0,1,2.1,1.6v4.71a.22.22,0,0,1-.2.2H173a.21.21,0,0,1-.19-.2v-4c0-1.1-.31-1.6-1.4-1.6a2.22,2.22,0,0,0-1.7.89v4.71a.22.22,0,0,1-.2.2h0Z"/><path class="cls-8" d="M179.72,265.73a.21.21,0,0,1,.2.2h0v8a.22.22,0,0,1-.2.2h-.3a.22.22,0,0,1-.2-.2v-.5a2.5,2.5,0,0,1-1.8.8,2,2,0,0,1-2.2-1.8V270a2,2,0,0,1,1.7-2.2h.4a2.5,2.5,0,0,1,1.8.8V266a.22.22,0,0,1,.2-.2h0Zm-3.7,4.5V272c0,1.11.4,1.71,1.4,1.71a2.23,2.23,0,0,0,1.7-.9v-3.3a2.23,2.23,0,0,0-1.7-.9C176.33,268.52,176,269.13,176,270.23Z"/><path class="cls-8" d="M181.52,272.13V270a2,2,0,0,1,1.7-2.2h.4a2.5,2.5,0,0,1,1.8.8v-.5a.22.22,0,0,1,.2-.2h.3a.22.22,0,0,1,.2.2h0V274a.22.22,0,0,1-.2.2h-.3a.22.22,0,0,1-.2-.2v-.5a2.5,2.5,0,0,1-1.8.8,2,2,0,0,1-2.2-1.8A.57.57,0,0,0,181.52,272.13Zm.81-1.9V272c0,1.11.39,1.71,1.39,1.71a2.23,2.23,0,0,0,1.7-.9v-3.3a2.23,2.23,0,0,0-1.7-.9c-1-.11-1.39.5-1.39,1.6Z"/><path class="cls-8" d="M190.52,268v.4a.22.22,0,0,1-.19.21,2.32,2.32,0,0,0-1.61,1V274a.22.22,0,0,1-.2.21h-.39a.21.21,0,0,1-.2-.21v-5.89a.22.22,0,0,1,.2-.21h.2a.21.21,0,0,1,.19.21l.11.6a2.31,2.31,0,0,1,1.6-.9c.19,0,.29.09.29.19Z"/><path class="cls-8" d="M191.83,274.32a.21.21,0,0,1-.2-.2h0v-5.4h-.5a.21.21,0,0,1-.2-.2v-.2a.22.22,0,0,1,.2-.2h1.1a.22.22,0,0,1,.2.2h0v5.9a.22.22,0,0,1-.2.2h0Zm.19-7.4c-.3,0-.5-.2-.5-.6s.2-.6.5-.6.5.2.5.6-.19.6-.5.6Z"/><path class="cls-8" d="M194,272v-1.89a2.4,2.4,0,0,1,4.8,0v2a2.43,2.43,0,0,1-2.4,2.39A2.46,2.46,0,0,1,194,272Zm.81-1.79v1.7a1.6,1.6,0,1,0,3.2,0v-1.7a1.6,1.6,0,1,0-3.2,0Z"/><path class="cls-8" d="M55.52,344.23a.22.22,0,0,1-.2-.21h0v-7.2a.22.22,0,0,1,.2-.2H56c.1,0,.3.1.3.2l2.7,4.6,2.6-4.6c.1-.1.2-.2.3-.2h.5a.22.22,0,0,1,.2.2h0V344a.22.22,0,0,1-.2.21H62a.22.22,0,0,1-.2-.21h0v-6.2l-2.3,4.1c-.09.1-.2.21-.29.21h-.41c-.09,0-.3-.11-.3-.21l-2.29-4.1v6.1a.23.23,0,0,1-.21.21h0Z"/><path class="cls-8" d="M64,342v-1.89a2.31,2.31,0,0,1,4.61,0V342A2.31,2.31,0,0,1,64,342Zm.81-1.7v1.6c0,1.1.5,1.6,1.5,1.6a1.4,1.4,0,0,0,1.5-1.6v-1.6c0-1.1-.5-1.7-1.5-1.7a1.39,1.39,0,0,0-1.5,1.7Z"/><path class="cls-8" d="M72.12,343.63c1,0,1.4-.5,1.4-1.11s-.59-.89-1.4-1c-1.1-.1-2.19-.5-2.19-1.6v-.2c0-1,.69-1.7,2.09-1.7a1.85,1.85,0,0,1,2.1,1.7v.1a.21.21,0,0,1-.19.2h-.31a.21.21,0,0,1-.19-.2h0c0-.5-.41-1.1-1.41-1.1s-1.3.5-1.3,1.1.6,1,1.5,1.1,2.1.4,2.1,1.6v.21c0,1-.8,1.79-2.2,1.79s-2.3-.79-2.3-1.79a.22.22,0,0,1,.2-.21h.4a.22.22,0,0,1,.2.21h0C70.62,343,71.12,343.63,72.12,343.63Z"/><path class="cls-8" d="M75.62,342.32v-3.5h-.5a.21.21,0,0,1-.19-.2h0v-.2a.21.21,0,0,1,.19-.2h.5l.1-1.3a.22.22,0,0,1,.2-.2h.2a.22.22,0,0,1,.2.2h0v1.3H78a.22.22,0,0,1,.2.2v.2a.22.22,0,0,1-.2.2H76.33v3.5c0,1,.4,1.4,1.3,1.4h.6c.1,0,.2,0,.2.1v.31c0,.1-.1.2-.2.29a1.27,1.27,0,0,1-.6.1,1.8,1.8,0,0,1-2-1.5C75.52,342.63,75.52,342.52,75.62,342.32Z"/><path class="cls-8" d="M81.83,338.23v.29a.35.35,0,0,1-.1.21h0a2.14,2.14,0,0,0-1.5.9v4.29a.22.22,0,0,1-.2.21h-.3a.22.22,0,0,1-.2-.21h0v-5.6a.22.22,0,0,1,.2-.2h.2a.21.21,0,0,1,.19.2v.5a2.37,2.37,0,0,1,1.5-.9.38.38,0,0,1,.21.31Z"/><path class="cls-8" d="M82.72,342.13v-2a1.92,1.92,0,0,1,1.7-2.11h.4a2.14,2.14,0,0,1,1.7.8v-.5a.22.22,0,0,1,.2-.2H87a.22.22,0,0,1,.2.2v5.6a.22.22,0,0,1-.2.21h-.19a.22.22,0,0,1-.2-.21v-.4a2.46,2.46,0,0,1-1.7.8,1.9,1.9,0,0,1-2.1-1.6A.45.45,0,0,1,82.72,342.13Zm.71-1.81V342c0,1,.4,1.61,1.3,1.61a2.2,2.2,0,0,0,1.6-.9v-3.21a2.58,2.58,0,0,0-1.6-.89C83.83,338.73,83.43,339.23,83.43,340.32Z"/><path class="cls-8" d="M91.22,338.23v.29a.35.35,0,0,1-.1.21h0a2.16,2.16,0,0,0-1.5.9v4.29a.22.22,0,0,1-.19.21H89a.22.22,0,0,1-.19-.21h0v-5.6a.21.21,0,0,1,.19-.2h.2a.22.22,0,0,1,.2.2v.5a1.9,1.9,0,0,1,1.5-.8C91.12,338,91.22,338.13,91.22,338.23Z"/><path class="cls-8" d="M95.93,344.23c-.6,0-.81-.21-.81-.9v-7.1a.22.22,0,0,1,.2-.21h.3a.22.22,0,0,1,.2.21h0V343c0,.4.1.5.5.5a.34.34,0,0,1,.2.11h0v.2C96.62,344.13,96.22,344.23,95.93,344.23Z"/><path class="cls-8" d="M97.72,344.23a.22.22,0,0,1-.2-.21h0v-5.2H97a.21.21,0,0,1-.19-.2v-.2a.21.21,0,0,1,.19-.2h1a.22.22,0,0,1,.2.2V344a.22.22,0,0,1-.2.2h-.3Zm.11-7a.47.47,0,0,1-.5-.5.55.55,0,0,1,.5-.6c.3,0,.5.2.5.6a.46.46,0,0,1-.4.5Z"/><path class="cls-8" d="M101.83,343.63c1,0,1.4-.5,1.4-1.11s-.6-.89-1.4-1c-1.1-.1-2.2-.5-2.2-1.6v-.2c0-1,.7-1.7,2.1-1.7a1.85,1.85,0,0,1,2.1,1.7v.1a.22.22,0,0,1-.2.2h-.3a.22.22,0,0,1-.2-.2h0c0-.5-.4-1.1-1.4-1.1s-1.3.5-1.3,1.1.59,1,1.5,1.1,2.09.4,2.09,1.6v.21c0,1-.8,1.79-2.19,1.79s-2.31-.79-2.31-1.79a.22.22,0,0,1,.2-.21h.4a.22.22,0,0,1,.2.21h0C100.33,343,100.83,343.63,101.83,343.63Z"/><path class="cls-8" d="M105.33,342.32v-3.5h-.5a.22.22,0,0,1-.2-.2h0v-.2a.22.22,0,0,1,.2-.2h.5l.1-1.3a.21.21,0,0,1,.19-.2h.2a.22.22,0,0,1,.2.2h0v1.3h1.7a.22.22,0,0,1,.2.2v.2a.22.22,0,0,1-.2.2H106v3.5c0,1,.4,1.4,1.3,1.4h.6c.1,0,.2,0,.2.1v.31c0,.1-.1.2-.2.29s-.4.1-.6.1A2,2,0,0,1,105.33,342.32Z"/><path class="cls-8" d="M109,342.13v-2a2.1,2.1,0,0,1,1.6-2.21h.5a2.12,2.12,0,0,1,1.7.8v-.5a.22.22,0,0,1,.2-.2h.2a.22.22,0,0,1,.2.2v5.6a.22.22,0,0,1-.2.2H113a.21.21,0,0,1-.19-.2v-.4a2.46,2.46,0,0,1-1.7.8,2,2,0,0,1-2.1-1.7Zm.81-1.81V342c0,1,.4,1.61,1.3,1.61a2.2,2.2,0,0,0,1.6-.9v-3.21a2.58,2.58,0,0,0-1.6-.89c-.91.1-1.3.6-1.3,1.69Z"/><path class="cls-8" d="M122.43,336a.22.22,0,0,1,.19.21h0v7.7a.21.21,0,0,1-.19.2h-.2a.22.22,0,0,1-.2-.2v-.4a2.46,2.46,0,0,1-1.7.8,2,2,0,0,1-2.1-1.7v-2.4a1.9,1.9,0,0,1,1.6-2.1h.4a2.56,2.56,0,0,1,1.7.7v-2.5a.22.22,0,0,1,.2-.2h.3Zm-3.6,4.3V342c0,1,.4,1.61,1.3,1.61a2.61,2.61,0,0,0,1.7-.9v-3.21a2.58,2.58,0,0,0-1.7-.89c-.91.1-1.3.6-1.3,1.69Z"/><path class="cls-8" d="M126.33,344.32a2.13,2.13,0,0,1-2.31-1.9v-2.19a2.31,2.31,0,0,1,4.61,0v.9a.22.22,0,0,1-.2.2h-3.6v.6c0,1.1.5,1.6,1.5,1.6a1.38,1.38,0,0,0,1.5-1.1.22.22,0,0,1,.2-.2h.3a.22.22,0,0,1,.2.2h0a1.93,1.93,0,0,1-2.2,1.89Zm-1.5-4v.3h3v-.3c0-1.1-.5-1.7-1.5-1.7s-1.5.61-1.5,1.7Z"/><path class="cls-8" d="M134.72,344.23c-.1,0-.2-.1-.3-.21l-2-5.7c0-.1,0-.2.1-.2h.5c.11,0,.2.1.31.2l1.6,5,1.7-5c0-.1.2-.2.3-.2h.4c.1,0,.1.1.1.2h0l-2,5.7c0,.11-.2.21-.3.21Z"/><path class="cls-8" d="M138.52,344.23a.21.21,0,0,1-.19-.21h0v-5.2h-.5a.21.21,0,0,1-.2-.2v-.2a.22.22,0,0,1,.2-.2h1a.21.21,0,0,1,.19.2V344a.21.21,0,0,1-.19.2Zm.11-7a.48.48,0,0,1-.5-.5.56.56,0,0,1,.5-.6c.3,0,.5.2.5.6a.46.46,0,0,1-.4.5Z"/><path class="cls-8" d="M144.83,336a.22.22,0,0,1,.19.21h0v7.7a.21.21,0,0,1-.19.2h-.2a.21.21,0,0,1-.2-.2v-.4a2.29,2.29,0,0,1-1.7.8,2,2,0,0,1-2.1-1.7v-2.5a2.08,2.08,0,0,1,1.6-2.21h.5a2.79,2.79,0,0,1,1.7.71v-2.5a.22.22,0,0,1,.2-.21h0Zm-3.5,4.3V342c0,1,.39,1.61,1.39,1.61a2.22,2.22,0,0,0,1.61-.9v-3.21a2.58,2.58,0,0,0-1.61-.89c-1.09.1-1.39.6-1.39,1.69Z"/><path class="cls-8" d="M148.83,344.32a2.13,2.13,0,0,1-2.31-1.9v-2.19a2.24,2.24,0,0,1,2.4-2.1,2.18,2.18,0,0,1,2.1,2.1v.9a.21.21,0,0,1-.19.2h-3.61v.6a1.4,1.4,0,0,0,1.5,1.6,1.47,1.47,0,0,0,1.5-1.1.22.22,0,0,1,.2-.2h.4a.22.22,0,0,1,.2.2h0a2,2,0,0,1-2.19,1.89Zm-1.5-4v.3h3v-.3c0-1.1-.61-1.7-1.5-1.7s-1.5.61-1.5,1.7Z"/><path class="cls-8" d="M152.52,342v-1.89a2.25,2.25,0,0,1,2.4-2.11,2.19,2.19,0,0,1,2.1,2.11V342a2.24,2.24,0,0,1-2.39,2.11A2.19,2.19,0,0,1,152.52,342Zm.7-1.7v1.6a1.4,1.4,0,0,0,1.5,1.6,1.45,1.45,0,0,0,1.5-1.6v-1.6c0-1.1-.5-1.7-1.5-1.7s-1.5.61-1.5,1.7Z"/><path class="cls-8" d="M160.63,343.63c1,0,1.39-.5,1.39-1.11s-.6-.89-1.39-1c-1.11-.1-2.2-.5-2.2-1.6v-.2c0-1,.7-1.7,2.1-1.7a1.85,1.85,0,0,1,2.1,1.7v.1a.22.22,0,0,1-.2.2h-.3a.22.22,0,0,1-.2-.2h0c0-.5-.4-1.1-1.4-1.1s-1.3.5-1.3,1.1.6,1,1.5,1.1,2.1.4,2.1,1.6v.21c0,1-.8,1.79-2.2,1.79s-2.3-.79-2.3-1.79a.22.22,0,0,1,.2-.21h.4a.22.22,0,0,1,.2.21h0C159.13,343,159.63,343.63,160.63,343.63Z"/><path class="cls-8" d="M167,342.13v-2a1.93,1.93,0,0,1,1.7-2.11h.4a2.14,2.14,0,0,1,1.7.8v-.5a.22.22,0,0,1,.2-.2h.2a.22.22,0,0,1,.2.2v5.6a.22.22,0,0,1-.2.21H171a.22.22,0,0,1-.2-.21v-.4a2.46,2.46,0,0,1-1.7.8,1.9,1.9,0,0,1-2.1-1.7Zm.81-1.81V342c0,1,.39,1.61,1.3,1.61a2.2,2.2,0,0,0,1.6-.9v-3.21a2.58,2.58,0,0,0-1.6-.89c-.91.1-1.3.6-1.3,1.69Z"/><path class="cls-8" d="M173.92,344.23c-.6,0-.8-.21-.8-.9v-7.1a.22.22,0,0,1,.2-.21h.3a.22.22,0,0,1,.2.21V343c0,.4.1.5.5.5a.34.34,0,0,1,.2.11h0v.2C174.63,344.13,174.22,344.23,173.92,344.23Z"/><path class="cls-8" d="M178.42,342.32v-3.5H178a.21.21,0,0,1-.19-.2h0v-.2a.21.21,0,0,1,.19-.2h.5l.11-1.3a.22.22,0,0,1,.2-.2H179a.21.21,0,0,1,.2.2h0v1.3h1.7a.22.22,0,0,1,.2.2v.2a.22.22,0,0,1-.2.2h-1.7v3.5c0,1,.4,1.4,1.3,1.4h.61c.1,0,.2,0,.2.1v.31c0,.1-.11.2-.2.29a1.29,1.29,0,0,1-.61.1,1.81,1.81,0,0,1-2.1-1.5Z"/><path class="cls-8" d="M184.52,344.32a2.12,2.12,0,0,1-2.3-1.9v-2.19a2.31,2.31,0,0,1,4.61,0v.9a.22.22,0,0,1-.2.2H183v.6c0,1.1.5,1.6,1.5,1.6a1.38,1.38,0,0,0,1.5-1.1.22.22,0,0,1,.2-.2h.3a.21.21,0,0,1,.2.2h0a1.92,1.92,0,0,1-2.2,1.89Zm-1.5-4v.3h3v-.3c0-1.1-.5-1.7-1.5-1.7S183,339.23,183,340.32Z"/><path class="cls-8" d="M190.72,338.23v.29a.35.35,0,0,1-.1.21h0a2.14,2.14,0,0,0-1.5.9v4.29a.22.22,0,0,1-.2.21h-.3a.22.22,0,0,1-.2-.21h0v-5.6a.22.22,0,0,1,.2-.2h.2a.22.22,0,0,1,.2.2v.5a2.37,2.37,0,0,1,1.5-.9,1,1,0,0,1,.2.31Z"/><path class="cls-8" d="M191.83,344.23a.21.21,0,0,1-.2-.21h0v-5.6a.22.22,0,0,1,.2-.2H192a.21.21,0,0,1,.2.2v.5a2.41,2.41,0,0,1,1.61-.79,1.65,1.65,0,0,1,1.69.89,2.22,2.22,0,0,1,1.7-.89c1.4,0,1.9.7,1.9,2V344a.22.22,0,0,1-.2.21h-.3a.22.22,0,0,1-.2-.21h0v-3.79c0-1-.2-1.5-1.2-1.5a2.37,2.37,0,0,0-1.5.9V344a.22.22,0,0,1-.2.21h-.3a.22.22,0,0,1-.2-.21h0v-3.7c0-1-.19-1.6-1.19-1.6a1.84,1.84,0,0,0-1.5.9V344a.22.22,0,0,1-.2.2h-.3Z"/><path class="cls-8" d="M200.92,344.23a.22.22,0,0,1-.2-.21h0v-5.2h-.5a.22.22,0,0,1-.2-.2v-.2a.22.22,0,0,1,.2-.2h1a.21.21,0,0,1,.2.2V344a.22.22,0,0,1-.2.2h-.3Zm.21-7a.48.48,0,0,1-.5-.5.56.56,0,0,1,.5-.6c.3,0,.5.2.5.6a.46.46,0,0,1-.4.5Z"/><path class="cls-8" d="M203.22,344.23a.22.22,0,0,1-.2-.21h0v-5.6a.22.22,0,0,1,.2-.2h.2a.22.22,0,0,1,.2.2v.5a2.13,2.13,0,0,1,1.7-.79,1.8,1.8,0,0,1,2,1.6V344a.22.22,0,0,1-.2.21h-.3a.22.22,0,0,1-.2-.21h0v-3.79c0-1-.3-1.5-1.3-1.5a2.2,2.2,0,0,0-1.6.9V344a.22.22,0,0,1-.2.21h-.3Z"/><path class="cls-8" d="M208.92,342.13v-2a1.92,1.92,0,0,1,1.7-2.11h.4a2.14,2.14,0,0,1,1.7.8v-.5a.22.22,0,0,1,.2-.2h.2a.22.22,0,0,1,.2.2v5.6a.22.22,0,0,1-.2.21H213a.22.22,0,0,1-.19-.21v-.4a2.48,2.48,0,0,1-1.7.8,1.92,1.92,0,0,1-2.11-1.6A1.25,1.25,0,0,1,208.92,342.13Zm.8-1.81V342c0,1,.4,1.61,1.3,1.61a2.22,2.22,0,0,0,1.61-.9v-3.21a2.58,2.58,0,0,0-1.61-.89c-.89.1-1.3.6-1.3,1.69Z"/><path class="cls-8" d="M217.42,338.23v.29a.35.35,0,0,1-.1.21h0a2.14,2.14,0,0,0-1.5.9v4.29a.22.22,0,0,1-.2.21h-.3a.22.22,0,0,1-.2-.21h0v-5.6a.22.22,0,0,1,.2-.2h.2a.22.22,0,0,1,.2.2v.5a2.37,2.37,0,0,1,1.5-.9c.11,0,.2.1.2.31Z"/><rect class="cls-7" x="73.22" y="286.73" width="167" height="22.2"/><path class="cls-8" d="M23.12,271.92v-3.29a2.57,2.57,0,0,1,2.61-2.5h.2a2.56,2.56,0,0,1,2.8,2.29v3.5a2.57,2.57,0,0,1-2.61,2.5h-.2a2.64,2.64,0,0,1-2.8-2.29Zm.8-3.1v3a1.71,1.71,0,0,0,1.7,1.8h.21a1.8,1.8,0,0,0,2-1.5v-3.3a1.87,1.87,0,0,0-1.71-1.9h-.29a1.71,1.71,0,0,0-1.9,1.6Z"/><path class="cls-8" d="M30.42,274.32a.22.22,0,0,1-.2-.2v-5.9a.22.22,0,0,1,.2-.2h.3a.22.22,0,0,1,.2.2v.5a2.51,2.51,0,0,1,1.81-.8,1.82,1.82,0,0,1,2.09,1.6v4.71a.21.21,0,0,1-.2.2h-.3a.22.22,0,0,1-.2-.2h0v-4c0-1.1-.3-1.6-1.4-1.6a2.22,2.22,0,0,0-1.7.89v4.71a.22.22,0,0,1-.2.2Z"/><path class="cls-8" d="M36,275.52c-.09,0-.09-.1-.09-.2v-.1l4.3-9.3c.09-.1.2-.2.29-.2h.3a.1.1,0,0,1,.1.1v.1l-4.3,9.3c-.1.1-.2.2-.3.2H36Z"/><path class="cls-8" d="M41.43,271.92v-3.29a2.56,2.56,0,0,1,2.59-2.5h.21A2.55,2.55,0,0,1,47,268.42v3.5a2.56,2.56,0,0,1-2.59,2.5h-.2a2.57,2.57,0,0,1-2.8-2.29Zm.89-3.1v3a2,2,0,0,0,3.91,0v-3a2,2,0,0,0-3.91,0Z"/><path class="cls-8" d="M48.82,274.32a.22.22,0,0,1-.2-.2v-5H48a.22.22,0,0,1-.2-.2h0v-.3a.22.22,0,0,1,.2-.2h.6V268a1.9,1.9,0,0,1,1.7-2.1h.41a4.19,4.19,0,0,1,1.59.4,2.24,2.24,0,0,1,1.7-.6,1.23,1.23,0,0,1,.6.1c.1,0,.2.1.2.3v.3a.21.21,0,0,1-.2.2h0c-.2,0-.4-.1-.6-.1-.9,0-1.5.6-1.5,1.7v.2h1.91a.22.22,0,0,1,.2.2h0v.3a.22.22,0,0,1-.2.2H52.52v5a.21.21,0,0,1-.2.2h-.4a.22.22,0,0,1-.2-.2v-5h-2.3v5a.22.22,0,0,1-.2.2h-.4Zm.61-6h2.3v-.4a3.87,3.87,0,0,1,.2-1.1,2.69,2.69,0,0,0-1.2-.3c-.8,0-1.3.4-1.3,1.5Z"/><path class="cls-15" d="M38.52,283.23h0a15.14,15.14,0,0,1,15.1,15.1h0a15.15,15.15,0,0,1-15.1,15.1h0a15.16,15.16,0,0,1-15.1-15.1h0A15.15,15.15,0,0,1,38.52,283.23Z"/><path class="cls-6" d="M31.23,299.63v-3.9c0-1.9,1.5-3,3.5-3s3.5,1.1,3.5,3v3.9c0,1.89-1.6,3-3.5,3S31.23,301.52,31.23,299.63ZM32.62,296v3.5a2.09,2.09,0,0,0,2.2,1.9,2.15,2.15,0,0,0,1.91-1.9V296a2.08,2.08,0,0,0-2.21-1.89A2.13,2.13,0,0,0,32.62,296Z"/><path class="cls-6" d="M40.23,302.52a.31.31,0,0,1-.3-.29v-7a.31.31,0,0,1,.3-.3h.5c.2,0,.4.1.4.3v.4a2.49,2.49,0,0,1,2-.9c1.7,0,2.5.9,2.5,2.6v4.9a.31.31,0,0,1-.3.29h-.7a.32.32,0,0,1-.3-.29v-4.71c0-1.1-.3-1.6-1.4-1.6a2.23,2.23,0,0,0-1.7.9v5.3a.33.33,0,0,1-.3.3Z"/><path class="cls-3" d="M117.43,365.23h26.79a10.61,10.61,0,0,1,10.61,10.6v6.6A10.61,10.61,0,0,1,144.22,393h-26.8a10.61,10.61,0,0,1-10.6-10.6v-6.6A10.67,10.67,0,0,1,117.43,365.23Z"/><path class="cls-6" d="M121,381.42v-4.79c0-2.3,1.91-3.71,4.31-3.71s4.3,1.4,4.3,3.71v4.79c0,2.3-1.9,3.71-4.3,3.71S121,383.73,121,381.42Zm1.81-4.5v4.3a2.55,2.55,0,0,0,5.1,0v-4.3a2.57,2.57,0,0,0-2.7-2.4A2.6,2.6,0,0,0,122.83,376.92Z"/><path class="cls-6" d="M132.13,384.92a.43.43,0,0,1-.4-.4h0V372.73a.42.42,0,0,1,.4-.4h.8a.43.43,0,0,1,.4.4h0v6.9H134l2.81-3.8a.87.87,0,0,1,.69-.3h1.11a.22.22,0,0,1,.2.2v.1l-3.5,4.5,3.69,4.3a.18.18,0,0,1,0,.3l-.1.1h-1.1a.91.91,0,0,1-.7-.3l-3-3.5h-.7v3.4a.43.43,0,0,1-.4.4h-.89Z"/><rect class="cls-16" x="32.32" y="334.82" width="13" height="13"/></g></g></g></g></svg>