<?xml version="1.0" encoding="utf-8"?>
<!-- Generator: Adobe Illustrator 22.0.1, SVG Export Plug-In . SVG Version: 6.00 Build 0)  -->
<svg version="1.1" id="Capa_1" xmlns="http://www.w3.org/2000/svg" xmlns:xlink="http://www.w3.org/1999/xlink" x="0px" y="0px"
	 viewBox="0 0 500 500" style="enable-background:new 0 0 500 500;" xml:space="preserve">
<style type="text/css">
	.st0{fill:#7D4E24;}
	.st1{fill:#C6C6C6;}
	.st2{fill:#009FE3;}
	.st3{fill:#E94E1B;}
	.st4{fill:#FFFFFF;}
	.st5{fill:#DC3336;}
	.st6{fill:#FFFFFF;stroke:#FFFFFF;stroke-width:5.5495;stroke-miterlimit:10;}
	.st7{fill:#F4C312;}
	.st8{fill:#E71D73;}
	.st9{fill:#4EB056;}
	.st10{fill:#547DBE;}
	.st11{fill:#EDEDED;}
	.st12{fill:#DADADA;}
	.st13{clip-path:url(#SVGID_2_);fill:#DADADA;}
	.st14{clip-path:url(#SVGID_4_);fill:#DADADA;}
	.st15{fill:#8085C0;}
	.st16{fill:#BE1622;}
	.st17{clip-path:url(#SVGID_6_);fill:#DADADA;}
	.st18{clip-path:url(#SVGID_8_);fill:#DADADA;}
	.st19{clip-path:url(#SVGID_10_);fill:#DADADA;}
	.st20{clip-path:url(#SVGID_12_);fill:#DADADA;}
	.st21{clip-path:url(#SVGID_14_);fill:#DADADA;}
	.st22{clip-path:url(#SVGID_16_);fill:#DADADA;}
	.st23{fill:#C6C6C6;stroke:#C6C6C6;stroke-width:3;stroke-miterlimit:10;}
	.st24{clip-path:url(#SVGID_18_);fill:#DADADA;}
	.st25{fill:#4EB056;stroke:#4EB056;stroke-width:3;stroke-miterlimit:10;}
	.st26{clip-path:url(#SVGID_20_);fill:#DADADA;}
	.st27{clip-path:url(#SVGID_22_);fill:#DADADA;}
	.st28{clip-path:url(#SVGID_24_);fill:#DADADA;}
	.st29{fill:#006633;}
	.st30{font-family:'ArgentumSans-Bold';}
	.st31{font-size:70.5453px;}
	.st32{fill:#FFFFFF;stroke:#FFFFFF;stroke-width:5;stroke-miterlimit:10;}
	.st33{fill:none;stroke:#FFFFFF;stroke-width:18.9043;stroke-miterlimit:10;}
	.st34{fill:none;stroke:#FFFFFF;stroke-width:18.6817;stroke-linecap:round;stroke-linejoin:round;stroke-miterlimit:10;}
</style>
<circle class="st5" cx="250.1" cy="250" r="186.3"/>
<g>
	<text transform="matrix(1 0 0 1 215.2777 273.3508)" class="st4 st30 st31">REC</text>
	<polygon class="st4" points="129.7,208.2 129.7,194.3 101.1,194.3 101.1,202.6 101.1,208.2 101.1,286.7 101.1,295.8 101.1,300.6 
		129.7,300.6 129.7,286.7 114.9,286.7 114.9,208.2 	"/>
	<polygon class="st4" points="370.4,286.7 370.4,300.6 399,300.6 399,292.3 399,286.7 399,208.2 399,199.1 399,194.3 370.4,194.3 
		370.4,208.2 385.2,208.2 385.2,286.7 	"/>
	<circle class="st4" cx="163.9" cy="247.1" r="32.4"/>
</g>
</svg>
